solid OpenSCAD_Model
  facet normal 0 0 -1
    outer loop
      vertex -7.77156e-16 144 3.5
      vertex 4 152.535 3.5
      vertex 4 144 3.5
    endloop
  endfacet
  facet normal 0 0 -1
    outer loop
      vertex -7.77156e-16 154.929 3.5
      vertex 4 152.535 3.5
      vertex -7.77156e-16 144 3.5
    endloop
  endfacet
  facet normal 0 0 -1
    outer loop
      vertex 4 152.535 3.5
      vertex -7.77156e-16 154.929 3.5
      vertex 3.66355 154.929 3.5
    endloop
  endfacet
  facet normal 0 0 -1
    outer loop
      vertex -7.77156e-16 4.07107 3.5
      vertex 4 6.465 3.5
      vertex 3.66355 4.07107 3.5
    endloop
  endfacet
  facet normal -0 0 -1
    outer loop
      vertex 4 6.465 3.5
      vertex -7.77156e-16 4.07107 3.5
      vertex -7.77156e-16 15 3.5
    endloop
  endfacet
  facet normal 0 0 -1
    outer loop
      vertex 4 6.465 3.5
      vertex -7.77156e-16 15 3.5
      vertex 4 15 3.5
    endloop
  endfacet
  facet normal 0 0 -1
    outer loop
      vertex -7.77156e-16 18 3.5
      vertex 4 141 3.5
      vertex 4 18 3.5
    endloop
  endfacet
  facet normal -0 0 -1
    outer loop
      vertex 4 141 3.5
      vertex -7.77156e-16 18 3.5
      vertex -7.77156e-16 141 3.5
    endloop
  endfacet
  facet normal -1 0 -3.44509e-16
    outer loop
      vertex -7.77156e-16 144 3.5
      vertex -2.17968e-15 159 7.57107
      vertex -7.77156e-16 154.929 3.5
    endloop
  endfacet
  facet normal -1 -1.09954e-23 -3.44509e-16
    outer loop
      vertex -2.17968e-15 159 7.57107
      vertex -7.77156e-16 144 3.5
      vertex -7.98737e-15 159 24.4289
    endloop
  endfacet
  facet normal -1 -1.12908e-23 -3.44509e-16
    outer loop
      vertex -7.98737e-15 159 24.4289
      vertex -7.77156e-16 144 3.5
      vertex -9.38989e-15 154.929 28.5
    endloop
  endfacet
  facet normal -1 0 -3.44509e-16
    outer loop
      vertex -7.77156e-16 141 3.5
      vertex -9.38989e-15 154.929 28.5
      vertex -7.77156e-16 144 3.5
    endloop
  endfacet
  facet normal -1 0 -3.44509e-16
    outer loop
      vertex -7.77156e-16 18 3.5
      vertex -9.38989e-15 154.929 28.5
      vertex -7.77156e-16 141 3.5
    endloop
  endfacet
  facet normal -1 0 -3.44509e-16
    outer loop
      vertex -9.38989e-15 4.07107 28.5
      vertex -7.77156e-16 18 3.5
      vertex -7.77156e-16 15 3.5
    endloop
  endfacet
  facet normal -1 0 -3.44509e-16
    outer loop
      vertex -2.17968e-15 0 7.57107
      vertex -7.77156e-16 15 3.5
      vertex -7.77156e-16 4.07107 3.5
    endloop
  endfacet
  facet normal -1 0 -3.44509e-16
    outer loop
      vertex -7.77156e-16 18 3.5
      vertex -9.38989e-15 4.07107 28.5
      vertex -9.38989e-15 154.929 28.5
    endloop
  endfacet
  facet normal -1 1.09954e-23 -3.44509e-16
    outer loop
      vertex -7.98737e-15 0 24.4289
      vertex -7.77156e-16 15 3.5
      vertex -2.17968e-15 0 7.57107
    endloop
  endfacet
  facet normal -1 1.12908e-23 -3.44509e-16
    outer loop
      vertex -7.77156e-16 15 3.5
      vertex -7.98737e-15 0 24.4289
      vertex -9.38989e-15 4.07107 28.5
    endloop
  endfacet
  facet normal 1 -0 0
    outer loop
      vertex 4 144 28.5
      vertex 4 152.535 3.5
      vertex 4 152.535 28.5
    endloop
  endfacet
  facet normal 1 0 0
    outer loop
      vertex 4 152.535 3.5
      vertex 4 144 28.5
      vertex 4 144 3.5
    endloop
  endfacet
  facet normal 1 -0 0
    outer loop
      vertex 4 6.465 28.5
      vertex 4 15 3.5
      vertex 4 15 28.5
    endloop
  endfacet
  facet normal 1 0 0
    outer loop
      vertex 4 15 3.5
      vertex 4 6.465 28.5
      vertex 4 6.465 3.5
    endloop
  endfacet
  facet normal 1 -0 0
    outer loop
      vertex 4 18 28.5
      vertex 4 141 21
      vertex 4 141 28.5
    endloop
  endfacet
  facet normal 1 0 0
    outer loop
      vertex 4 141 21
      vertex 4 18 28.5
      vertex 4 18 21
    endloop
  endfacet
  facet normal 1 -0 0
    outer loop
      vertex 4 18 11.1005
      vertex 4 141 3.5
      vertex 4 141 11.1005
    endloop
  endfacet
  facet normal 1 0 0
    outer loop
      vertex 4 141 3.5
      vertex 4 18 11.1005
      vertex 4 18 3.5
    endloop
  endfacet
  facet normal 0 -1 0
    outer loop
      vertex -2.17968e-15 0 7.57107
      vertex 3.0914 0 24.4289
      vertex -7.98737e-15 0 24.4289
    endloop
  endfacet
  facet normal 0 -1 -0
    outer loop
      vertex 3.0914 0 24.4289
      vertex -2.17968e-15 0 7.57107
      vertex 3.0914 0 7.57107
    endloop
  endfacet
  facet normal 0 -0.707107 -0.707107
    outer loop
      vertex 3.0914 0 7.57107
      vertex -7.77156e-16 4.07107 3.5
      vertex 3.66355 4.07107 3.5
    endloop
  endfacet
  facet normal 0 -0.707107 -0.707107
    outer loop
      vertex -7.77156e-16 4.07107 3.5
      vertex 3.0914 0 7.57107
      vertex -2.17968e-15 0 7.57107
    endloop
  endfacet
  facet normal 0.990268 -0.139173 3.78121e-09
    outer loop
      vertex 3.0914 0 24.4289
      vertex 4 6.465 28.5
      vertex 3.66355 4.07107 28.5
    endloop
  endfacet
  facet normal 0.990268 -0.139173 0
    outer loop
      vertex 4 6.465 28.5
      vertex 3.0914 0 24.4289
      vertex 4 6.465 3.5
    endloop
  endfacet
  facet normal 0.990268 -0.139173 0
    outer loop
      vertex 3.0914 0 7.57107
      vertex 4 6.465 3.5
      vertex 3.0914 0 24.4289
    endloop
  endfacet
  facet normal 0.990268 -0.139173 -3.78121e-09
    outer loop
      vertex 4 6.465 3.5
      vertex 3.0914 0 7.57107
      vertex 3.66355 4.07107 3.5
    endloop
  endfacet
  facet normal -0 0 1
    outer loop
      vertex -9.38989e-15 154.929 28.5
      vertex 4 152.535 28.5
      vertex 3.66355 154.929 28.5
    endloop
  endfacet
  facet normal 0 0 1
    outer loop
      vertex 4 152.535 28.5
      vertex -6.32827e-15 144 28.5
      vertex 4 144 28.5
    endloop
  endfacet
  facet normal 0 0 0
    outer loop
      vertex -6.32827e-15 144 28.5
      vertex -6.32827e-15 18 28.5
      vertex -6.32827e-15 141 28.5
    endloop
  endfacet
  facet normal 0 0 0
    outer loop
      vertex -6.32827e-15 144 28.5
      vertex -6.32827e-15 15 28.5
      vertex -6.32827e-15 18 28.5
    endloop
  endfacet
  facet normal 0 0 1
    outer loop
      vertex -6.32827e-15 144 28.5
      vertex -9.38989e-15 154.929 28.5
      vertex -6.32827e-15 15 28.5
    endloop
  endfacet
  facet normal 0 0 1
    outer loop
      vertex 4 152.535 28.5
      vertex -9.38989e-15 154.929 28.5
      vertex -6.32827e-15 144 28.5
    endloop
  endfacet
  facet normal -0 0 1
    outer loop
      vertex -6.32827e-15 141 28.5
      vertex 4 18 28.5
      vertex 4 141 28.5
    endloop
  endfacet
  facet normal 0 0 1
    outer loop
      vertex 4 18 28.5
      vertex -6.32827e-15 141 28.5
      vertex -6.32827e-15 18 28.5
    endloop
  endfacet
  facet normal -0 0 1
    outer loop
      vertex -6.32827e-15 15 28.5
      vertex 4 6.465 28.5
      vertex 4 15 28.5
    endloop
  endfacet
  facet normal 0 0 1
    outer loop
      vertex -9.38989e-15 4.07107 28.5
      vertex 4 6.465 28.5
      vertex -6.32827e-15 15 28.5
    endloop
  endfacet
  facet normal 0 0 1
    outer loop
      vertex 4 6.465 28.5
      vertex -9.38989e-15 4.07107 28.5
      vertex 3.66355 4.07107 28.5
    endloop
  endfacet
  facet normal 0 0 1
    outer loop
      vertex -9.38989e-15 4.07107 28.5
      vertex -6.32827e-15 15 28.5
      vertex -9.38989e-15 154.929 28.5
    endloop
  endfacet
  facet normal 0 -0.707107 0.707107
    outer loop
      vertex -9.38989e-15 4.07107 28.5
      vertex 3.0914 0 24.4289
      vertex 3.66355 4.07107 28.5
    endloop
  endfacet
  facet normal 0 -0.707107 0.707107
    outer loop
      vertex 3.0914 0 24.4289
      vertex -9.38989e-15 4.07107 28.5
      vertex -7.98737e-15 0 24.4289
    endloop
  endfacet
  facet normal 0 1 -0
    outer loop
      vertex 3.0914 159 7.57107
      vertex -7.98737e-15 159 24.4289
      vertex 3.0914 159 24.4289
    endloop
  endfacet
  facet normal 0 1 0
    outer loop
      vertex -7.98737e-15 159 24.4289
      vertex 3.0914 159 7.57107
      vertex -2.17968e-15 159 7.57107
    endloop
  endfacet
  facet normal 0 0.707106 -0.707107
    outer loop
      vertex -7.77156e-16 154.929 3.5
      vertex 3.0914 159 7.57107
      vertex 3.66355 154.929 3.5
    endloop
  endfacet
  facet normal 0 0.707106 -0.707107
    outer loop
      vertex 3.0914 159 7.57107
      vertex -7.77156e-16 154.929 3.5
      vertex -2.17968e-15 159 7.57107
    endloop
  endfacet
  facet normal 0.990268 0.139174 9.80476e-07
    outer loop
      vertex 4 152.535 28.5
      vertex 3.0914 159 24.4289
      vertex 3.66355 154.929 28.5
    endloop
  endfacet
  facet normal 0.990268 0.139173 0
    outer loop
      vertex 3.0914 159 24.4289
      vertex 4 152.535 28.5
      vertex 3.0914 159 7.57107
    endloop
  endfacet
  facet normal 0.990268 0.139173 -0
    outer loop
      vertex 4 152.535 3.5
      vertex 3.0914 159 7.57107
      vertex 4 152.535 28.5
    endloop
  endfacet
  facet normal 0.990268 0.139174 -9.80476e-07
    outer loop
      vertex 3.0914 159 7.57107
      vertex 4 152.535 3.5
      vertex 3.66355 154.929 3.5
    endloop
  endfacet
  facet normal 0 0.707106 0.707107
    outer loop
      vertex -9.38989e-15 154.929 28.5
      vertex 3.0914 159 24.4289
      vertex -7.98737e-15 159 24.4289
    endloop
  endfacet
  facet normal 0 0.707106 0.707107
    outer loop
      vertex 3.0914 159 24.4289
      vertex -9.38989e-15 154.929 28.5
      vertex 3.66355 154.929 28.5
    endloop
  endfacet
  facet normal 1 -0 0
    outer loop
      vertex 158.8 15 27
      vertex 158.8 18 7
      vertex 158.8 18 27
    endloop
  endfacet
  facet normal 1 0 0
    outer loop
      vertex 158.8 18 7
      vertex 158.8 15 27
      vertex 158.8 15 7
    endloop
  endfacet
  facet normal -1 0 -2.22045e-16
    outer loop
      vertex 2.22045e-16 15 -1
      vertex -7.77156e-16 18 3.5
      vertex 2.22045e-16 18 -1
    endloop
  endfacet
  facet normal -1 -0 -2.22045e-16
    outer loop
      vertex -7.77156e-16 18 3.5
      vertex 2.22045e-16 15 -1
      vertex -7.77156e-16 15 3.5
    endloop
  endfacet
  facet normal -1 0 -2.22045e-16
    outer loop
      vertex -6.32827e-15 15 28.5
      vertex -7.32747e-15 18 33
      vertex -6.32827e-15 18 28.5
    endloop
  endfacet
  facet normal -1 -0 -2.22045e-16
    outer loop
      vertex -7.32747e-15 18 33
      vertex -6.32827e-15 15 28.5
      vertex -7.32747e-15 15 33
    endloop
  endfacet
  facet normal 0.0768434 0 -0.997043
    outer loop
      vertex 55 15 -1
      vertex 158.8 18 7
      vertex 158.8 15 7
    endloop
  endfacet
  facet normal 0.0768434 0 -0.997043
    outer loop
      vertex 158.8 18 7
      vertex 55 15 -1
      vertex 55 18 -1
    endloop
  endfacet
  facet normal -0 0 1
    outer loop
      vertex -7.32747e-15 18 33
      vertex 55 15 33
      vertex 55 18 33
    endloop
  endfacet
  facet normal 0 0 1
    outer loop
      vertex 55 15 33
      vertex -7.32747e-15 18 33
      vertex -7.32747e-15 15 33
    endloop
  endfacet
  facet normal 0 1 0
    outer loop
      vertex 55 18 33
      vertex 4 18 28.5
      vertex -7.32747e-15 18 33
    endloop
  endfacet
  facet normal 0 1 -0
    outer loop
      vertex 158.8 18 7
      vertex 55 18 33
      vertex 158.8 18 27
    endloop
  endfacet
  facet normal -0 1 0
    outer loop
      vertex 8.94975 18 16.0503
      vertex 55 18 33
      vertex 55 18 -1
    endloop
  endfacet
  facet normal 0 1 0
    outer loop
      vertex 55 18 33
      vertex 8.94975 18 16.0503
      vertex 4 18 28.5
    endloop
  endfacet
  facet normal 0 1 0
    outer loop
      vertex 4 18 28.5
      vertex 8.87055 18 16.1294
      vertex 4 18 21
    endloop
  endfacet
  facet normal 0 1 0
    outer loop
      vertex 4 18 28.5
      vertex 8.94975 18 16.0503
      vertex 8.87055 18 16.1294
    endloop
  endfacet
  facet normal 0 1 0
    outer loop
      vertex 55 18 33
      vertex 158.8 18 7
      vertex 55 18 -1
    endloop
  endfacet
  facet normal -0 1 0
    outer loop
      vertex 4 18 3.5
      vertex 8.94975 18 16.0503
      vertex 55 18 -1
    endloop
  endfacet
  facet normal 0 1 0
    outer loop
      vertex 8.94975 18 16.0503
      vertex 4 18 3.5
      vertex 4 18 11.1005
    endloop
  endfacet
  facet normal 0 1 0
    outer loop
      vertex 2.22045e-16 18 -1
      vertex 4 18 3.5
      vertex 55 18 -1
    endloop
  endfacet
  facet normal 0 1 0
    outer loop
      vertex 4 18 3.5
      vertex 2.22045e-16 18 -1
      vertex -7.77156e-16 18 3.5
    endloop
  endfacet
  facet normal 0 1 0
    outer loop
      vertex -7.32747e-15 18 33
      vertex 4 18 28.5
      vertex -6.32827e-15 18 28.5
    endloop
  endfacet
  facet normal 0 0 -1
    outer loop
      vertex 2.22045e-16 15 -1
      vertex 55 18 -1
      vertex 55 15 -1
    endloop
  endfacet
  facet normal -0 0 -1
    outer loop
      vertex 55 18 -1
      vertex 2.22045e-16 15 -1
      vertex 2.22045e-16 18 -1
    endloop
  endfacet
  facet normal 0 -1 0
    outer loop
      vertex -7.77156e-16 15 3.5
      vertex 2.22045e-16 15 -1
      vertex 4 15 3.5
    endloop
  endfacet
  facet normal 0 -1 0
    outer loop
      vertex 4 15 28.5
      vertex -7.32747e-15 15 33
      vertex -6.32827e-15 15 28.5
    endloop
  endfacet
  facet normal 0 -1 0
    outer loop
      vertex -7.32747e-15 15 33
      vertex 4 15 28.5
      vertex 55 15 33
    endloop
  endfacet
  facet normal 0 -1 0
    outer loop
      vertex 55 15 -1
      vertex 55 15 33
      vertex 4 15 28.5
    endloop
  endfacet
  facet normal -0 -1 0
    outer loop
      vertex 158.8 15 7
      vertex 55 15 33
      vertex 55 15 -1
    endloop
  endfacet
  facet normal 0 -1 0
    outer loop
      vertex 55 15 -1
      vertex 4 15 28.5
      vertex 4 15 3.5
    endloop
  endfacet
  facet normal 0 -1 0
    outer loop
      vertex 55 15 -1
      vertex 4 15 3.5
      vertex 2.22045e-16 15 -1
    endloop
  endfacet
  facet normal 0 -1 0
    outer loop
      vertex 55 15 33
      vertex 158.8 15 7
      vertex 158.8 15 27
    endloop
  endfacet
  facet normal 0.0577071 0 0.998334
    outer loop
      vertex 55 18 33
      vertex 158.8 15 27
      vertex 158.8 18 27
    endloop
  endfacet
  facet normal 0.0577071 0 0.998334
    outer loop
      vertex 158.8 15 27
      vertex 55 18 33
      vertex 55 15 33
    endloop
  endfacet
  facet normal 1 -0 0
    outer loop
      vertex 158.8 141 27
      vertex 158.8 144 7
      vertex 158.8 144 27
    endloop
  endfacet
  facet normal 1 0 0
    outer loop
      vertex 158.8 144 7
      vertex 158.8 141 27
      vertex 158.8 141 7
    endloop
  endfacet
  facet normal -1 0 -2.22045e-16
    outer loop
      vertex 2.22045e-16 141 -1
      vertex -7.77156e-16 144 3.5
      vertex 2.22045e-16 144 -1
    endloop
  endfacet
  facet normal -1 -0 -2.22045e-16
    outer loop
      vertex -7.77156e-16 144 3.5
      vertex 2.22045e-16 141 -1
      vertex -7.77156e-16 141 3.5
    endloop
  endfacet
  facet normal -1 0 -2.22045e-16
    outer loop
      vertex -6.32827e-15 141 28.5
      vertex -7.32747e-15 144 33
      vertex -6.32827e-15 144 28.5
    endloop
  endfacet
  facet normal -1 -0 -2.22045e-16
    outer loop
      vertex -7.32747e-15 144 33
      vertex -6.32827e-15 141 28.5
      vertex -7.32747e-15 141 33
    endloop
  endfacet
  facet normal 0.0768434 0 -0.997043
    outer loop
      vertex 55 141 -1
      vertex 158.8 144 7
      vertex 158.8 141 7
    endloop
  endfacet
  facet normal 0.0768434 0 -0.997043
    outer loop
      vertex 158.8 144 7
      vertex 55 141 -1
      vertex 55 144 -1
    endloop
  endfacet
  facet normal -0 0 1
    outer loop
      vertex -7.32747e-15 144 33
      vertex 55 141 33
      vertex 55 144 33
    endloop
  endfacet
  facet normal 0 0 1
    outer loop
      vertex 55 141 33
      vertex -7.32747e-15 144 33
      vertex -7.32747e-15 141 33
    endloop
  endfacet
  facet normal 0 1 0
    outer loop
      vertex 55 144 33
      vertex 4 144 28.5
      vertex -7.32747e-15 144 33
    endloop
  endfacet
  facet normal 0 1 -0
    outer loop
      vertex 158.8 144 7
      vertex 55 144 33
      vertex 158.8 144 27
    endloop
  endfacet
  facet normal 0 1 0
    outer loop
      vertex 55 144 33
      vertex 158.8 144 7
      vertex 55 144 -1
    endloop
  endfacet
  facet normal 0 1 0
    outer loop
      vertex 55 144 33
      vertex 55 144 -1
      vertex 4 144 28.5
    endloop
  endfacet
  facet normal 0 1 0
    outer loop
      vertex 4 144 28.5
      vertex 55 144 -1
      vertex 4 144 3.5
    endloop
  endfacet
  facet normal 0 1 0
    outer loop
      vertex 2.22045e-16 144 -1
      vertex 4 144 3.5
      vertex 55 144 -1
    endloop
  endfacet
  facet normal 0 1 0
    outer loop
      vertex 4 144 3.5
      vertex 2.22045e-16 144 -1
      vertex -7.77156e-16 144 3.5
    endloop
  endfacet
  facet normal 0 1 0
    outer loop
      vertex -7.32747e-15 144 33
      vertex 4 144 28.5
      vertex -6.32827e-15 144 28.5
    endloop
  endfacet
  facet normal 0 0 -1
    outer loop
      vertex 2.22045e-16 141 -1
      vertex 55 144 -1
      vertex 55 141 -1
    endloop
  endfacet
  facet normal -0 0 -1
    outer loop
      vertex 55 144 -1
      vertex 2.22045e-16 141 -1
      vertex 2.22045e-16 144 -1
    endloop
  endfacet
  facet normal 0 -1 0
    outer loop
      vertex -7.77156e-16 141 3.5
      vertex 2.22045e-16 141 -1
      vertex 4 141 3.5
    endloop
  endfacet
  facet normal 0 -1 0
    outer loop
      vertex 4 141 28.5
      vertex -7.32747e-15 141 33
      vertex -6.32827e-15 141 28.5
    endloop
  endfacet
  facet normal 0 -1 0
    outer loop
      vertex -7.32747e-15 141 33
      vertex 4 141 28.5
      vertex 55 141 33
    endloop
  endfacet
  facet normal 0 -1 0
    outer loop
      vertex 8.94975 141 16.0503
      vertex 55 141 33
      vertex 4 141 28.5
    endloop
  endfacet
  facet normal 0 -1 0
    outer loop
      vertex 8.94975 141 16.0503
      vertex 4 141 28.5
      vertex 4 141 21
    endloop
  endfacet
  facet normal 0 -1 -0
    outer loop
      vertex 55 141 33
      vertex 8.94975 141 16.0503
      vertex 55 141 -1
    endloop
  endfacet
  facet normal 0 -1 0
    outer loop
      vertex 4 141 3.5
      vertex 8.94975 141 16.0503
      vertex 4 141 11.1005
    endloop
  endfacet
  facet normal -0 -1 0
    outer loop
      vertex 158.8 141 7
      vertex 55 141 33
      vertex 55 141 -1
    endloop
  endfacet
  facet normal 0 -1 -0
    outer loop
      vertex 8.94975 141 16.0503
      vertex 4 141 3.5
      vertex 55 141 -1
    endloop
  endfacet
  facet normal 0 -1 0
    outer loop
      vertex 55 141 -1
      vertex 4 141 3.5
      vertex 2.22045e-16 141 -1
    endloop
  endfacet
  facet normal 0 -1 0
    outer loop
      vertex 55 141 33
      vertex 158.8 141 7
      vertex 158.8 141 27
    endloop
  endfacet
  facet normal 0.0577071 0 0.998334
    outer loop
      vertex 55 144 33
      vertex 158.8 141 27
      vertex 158.8 144 27
    endloop
  endfacet
  facet normal 0.0577071 0 0.998334
    outer loop
      vertex 158.8 141 27
      vertex 55 144 33
      vertex 55 141 33
    endloop
  endfacet
  facet normal 0.707107 5.30708e-09 0.707107
    outer loop
      vertex 8.87055 18 16.1294
      vertex 8.94975 141 16.0503
      vertex 4 141 21
    endloop
  endfacet
  facet normal 0.707111 0 0.707103
    outer loop
      vertex 8.94975 141 16.0503
      vertex 8.87055 18 16.1294
      vertex 8.94975 18 16.0503
    endloop
  endfacet
  facet normal 0.707107 0 0.707107
    outer loop
      vertex 8.87055 18 16.1294
      vertex 4 141 21
      vertex 4 18 21
    endloop
  endfacet
  facet normal 0.707107 0 -0.707107
    outer loop
      vertex 4 18 11.1005
      vertex 8.94975 141 16.0503
      vertex 8.94975 18 16.0503
    endloop
  endfacet
  facet normal 0.707107 0 -0.707107
    outer loop
      vertex 8.94975 141 16.0503
      vertex 4 18 11.1005
      vertex 4 141 11.1005
    endloop
  endfacet
  facet normal 0 0 -1
    outer loop
      vertex 166 27.465 3.5
      vertex 170 25.0711 3.5
      vertex 166.336 25.0711 3.5
    endloop
  endfacet
  facet normal 0 0 -1
    outer loop
      vertex 170 25.0711 3.5
      vertex 166 27.465 3.5
      vertex 170 36 3.5
    endloop
  endfacet
  facet normal -0 0 -1
    outer loop
      vertex 170 36 3.5
      vertex 166 27.465 3.5
      vertex 166 36 3.5
    endloop
  endfacet
  facet normal 0 0 -1
    outer loop
      vertex 166 173.535 3.5
      vertex 170 175.929 3.5
      vertex 170 165 3.5
    endloop
  endfacet
  facet normal 0 0 -1
    outer loop
      vertex 166 173.535 3.5
      vertex 170 165 3.5
      vertex 166 165 3.5
    endloop
  endfacet
  facet normal -0 0 -1
    outer loop
      vertex 170 175.929 3.5
      vertex 166 173.535 3.5
      vertex 166.336 175.929 3.5
    endloop
  endfacet
  facet normal 0 0 -1
    outer loop
      vertex 166 39 3.5
      vertex 170 162 3.5
      vertex 170 39 3.5
    endloop
  endfacet
  facet normal -0 0 -1
    outer loop
      vertex 170 162 3.5
      vertex 166 39 3.5
      vertex 166 162 3.5
    endloop
  endfacet
  facet normal 1 0 0
    outer loop
      vertex 170 165 3.5
      vertex 170 180 24.4289
      vertex 170 175.929 28.5
    endloop
  endfacet
  facet normal 1 0 0
    outer loop
      vertex 170 180 24.4289
      vertex 170 165 3.5
      vertex 170 180 7.57107
    endloop
  endfacet
  facet normal 1 0 0
    outer loop
      vertex 170 180 7.57107
      vertex 170 165 3.5
      vertex 170 175.929 3.5
    endloop
  endfacet
  facet normal 1 0 0
    outer loop
      vertex 170 175.929 28.5
      vertex 170 162 3.5
      vertex 170 165 3.5
    endloop
  endfacet
  facet normal 1 0 0
    outer loop
      vertex 170 175.929 28.5
      vertex 170 39 3.5
      vertex 170 162 3.5
    endloop
  endfacet
  facet normal 1 -0 0
    outer loop
      vertex 170 25.0711 28.5
      vertex 170 39 3.5
      vertex 170 175.929 28.5
    endloop
  endfacet
  facet normal 1 0 0
    outer loop
      vertex 170 39 3.5
      vertex 170 25.0711 28.5
      vertex 170 36 3.5
    endloop
  endfacet
  facet normal 1 -0 0
    outer loop
      vertex 170 21 24.4289
      vertex 170 36 3.5
      vertex 170 25.0711 28.5
    endloop
  endfacet
  facet normal 1 -0 0
    outer loop
      vertex 170 21 7.57107
      vertex 170 36 3.5
      vertex 170 21 24.4289
    endloop
  endfacet
  facet normal 1 0 0
    outer loop
      vertex 170 36 3.5
      vertex 170 21 7.57107
      vertex 170 25.0711 3.5
    endloop
  endfacet
  facet normal -1 0 0
    outer loop
      vertex 166 27.465 3.5
      vertex 166 36 28.5
      vertex 166 36 3.5
    endloop
  endfacet
  facet normal -1 -0 0
    outer loop
      vertex 166 36 28.5
      vertex 166 27.465 3.5
      vertex 166 27.465 28.5
    endloop
  endfacet
  facet normal -1 0 0
    outer loop
      vertex 166 165 3.5
      vertex 166 173.535 28.5
      vertex 166 173.535 3.5
    endloop
  endfacet
  facet normal -1 -0 0
    outer loop
      vertex 166 173.535 28.5
      vertex 166 165 3.5
      vertex 166 165 28.5
    endloop
  endfacet
  facet normal -1 0 0
    outer loop
      vertex 166 39 21
      vertex 166 162 28.5
      vertex 166 162 21
    endloop
  endfacet
  facet normal -1 -0 0
    outer loop
      vertex 166 162 28.5
      vertex 166 39 21
      vertex 166 39 28.5
    endloop
  endfacet
  facet normal -1 0 0
    outer loop
      vertex 166 39 3.5
      vertex 166 162 11.1005
      vertex 166 162 3.5
    endloop
  endfacet
  facet normal -1 -0 0
    outer loop
      vertex 166 162 11.1005
      vertex 166 39 3.5
      vertex 166 39 11.1005
    endloop
  endfacet
  facet normal 0 1 -0
    outer loop
      vertex 170 180 7.57107
      vertex 166.909 180 24.4289
      vertex 170 180 24.4289
    endloop
  endfacet
  facet normal 0 1 0
    outer loop
      vertex 166.909 180 24.4289
      vertex 170 180 7.57107
      vertex 166.909 180 7.57107
    endloop
  endfacet
  facet normal 0 0.707106 -0.707107
    outer loop
      vertex 170 175.929 3.5
      vertex 166.909 180 7.57107
      vertex 170 180 7.57107
    endloop
  endfacet
  facet normal 0 0.707106 -0.707107
    outer loop
      vertex 166.909 180 7.57107
      vertex 170 175.929 3.5
      vertex 166.336 175.929 3.5
    endloop
  endfacet
  facet normal -0.990268 0.139172 2.65058e-06
    outer loop
      vertex 166 173.535 3.5
      vertex 166.909 180 7.57107
      vertex 166.336 175.929 3.5
    endloop
  endfacet
  facet normal -0.990268 0.139174 0
    outer loop
      vertex 166.909 180 7.57107
      vertex 166 173.535 3.5
      vertex 166.909 180 24.4289
    endloop
  endfacet
  facet normal -0.990268 0.139174 0
    outer loop
      vertex 166 173.535 28.5
      vertex 166.909 180 24.4289
      vertex 166 173.535 3.5
    endloop
  endfacet
  facet normal -0.990268 0.139172 -2.65058e-06
    outer loop
      vertex 166.909 180 24.4289
      vertex 166 173.535 28.5
      vertex 166.336 175.929 28.5
    endloop
  endfacet
  facet normal 0 0 1
    outer loop
      vertex 166 173.535 28.5
      vertex 170 175.929 28.5
      vertex 166.336 175.929 28.5
    endloop
  endfacet
  facet normal 0 0 1
    outer loop
      vertex 170 175.929 28.5
      vertex 166 173.535 28.5
      vertex 170 165 28.5
    endloop
  endfacet
  facet normal 0 0 1
    outer loop
      vertex 170 165 28.5
      vertex 166 173.535 28.5
      vertex 166 165 28.5
    endloop
  endfacet
  facet normal -0 0 1
    outer loop
      vertex 166 162 28.5
      vertex 170 39 28.5
      vertex 170 162 28.5
    endloop
  endfacet
  facet normal 0 0 1
    outer loop
      vertex 170 39 28.5
      vertex 166 162 28.5
      vertex 166 39 28.5
    endloop
  endfacet
  facet normal -0 0 1
    outer loop
      vertex 166 27.465 28.5
      vertex 170 25.0711 28.5
      vertex 170 36 28.5
    endloop
  endfacet
  facet normal 0 0 1
    outer loop
      vertex 166 27.465 28.5
      vertex 170 36 28.5
      vertex 166 36 28.5
    endloop
  endfacet
  facet normal 0 0 1
    outer loop
      vertex 170 25.0711 28.5
      vertex 166 27.465 28.5
      vertex 166.336 25.0711 28.5
    endloop
  endfacet
  facet normal 0 0 0
    outer loop
      vertex 170 162 28.5
      vertex 170 39 28.5
      vertex 170 36 28.5
    endloop
  endfacet
  facet normal 0 0 0
    outer loop
      vertex 170 175.929 28.5
      vertex 170 165 28.5
      vertex 170 162 28.5
    endloop
  endfacet
  facet normal 0 0 0
    outer loop
      vertex 170 36 28.5
      vertex 170 25.0711 28.5
      vertex 170 175.929 28.5
    endloop
  endfacet
  facet normal 0 0 0
    outer loop
      vertex 170 36 28.5
      vertex 170 175.929 28.5
      vertex 170 162 28.5
    endloop
  endfacet
  facet normal -0 0.707106 0.707107
    outer loop
      vertex 166.909 180 24.4289
      vertex 170 175.929 28.5
      vertex 170 180 24.4289
    endloop
  endfacet
  facet normal 0 0.707106 0.707107
    outer loop
      vertex 170 175.929 28.5
      vertex 166.909 180 24.4289
      vertex 166.336 175.929 28.5
    endloop
  endfacet
  facet normal 0 -1 0
    outer loop
      vertex 166.909 21 7.57107
      vertex 170 21 24.4289
      vertex 166.909 21 24.4289
    endloop
  endfacet
  facet normal 0 -1 -0
    outer loop
      vertex 170 21 24.4289
      vertex 166.909 21 7.57107
      vertex 170 21 7.57107
    endloop
  endfacet
  facet normal -0 -0.707107 -0.707107
    outer loop
      vertex 170 25.0711 3.5
      vertex 166.909 21 7.57107
      vertex 166.336 25.0711 3.5
    endloop
  endfacet
  facet normal 0 -0.707107 -0.707107
    outer loop
      vertex 166.909 21 7.57107
      vertex 170 25.0711 3.5
      vertex 170 21 7.57107
    endloop
  endfacet
  facet normal -0.990268 -0.139171 3.68758e-06
    outer loop
      vertex 166.909 21 7.57107
      vertex 166 27.465 3.5
      vertex 166.336 25.0711 3.5
    endloop
  endfacet
  facet normal -0.990268 -0.139174 0
    outer loop
      vertex 166 27.465 3.5
      vertex 166.909 21 7.57107
      vertex 166 27.465 28.5
    endloop
  endfacet
  facet normal -0.990268 -0.139174 -0
    outer loop
      vertex 166.909 21 24.4289
      vertex 166 27.465 28.5
      vertex 166.909 21 7.57107
    endloop
  endfacet
  facet normal -0.990268 -0.139171 -3.68758e-06
    outer loop
      vertex 166 27.465 28.5
      vertex 166.909 21 24.4289
      vertex 166.336 25.0711 28.5
    endloop
  endfacet
  facet normal 0 -0.707107 0.707107
    outer loop
      vertex 166.909 21 24.4289
      vertex 170 25.0711 28.5
      vertex 166.336 25.0711 28.5
    endloop
  endfacet
  facet normal 0 -0.707107 0.707107
    outer loop
      vertex 170 25.0711 28.5
      vertex 166.909 21 24.4289
      vertex 170 21 24.4289
    endloop
  endfacet
  facet normal -1 0 0
    outer loop
      vertex 11.2 162 7
      vertex 11.2 165 27
      vertex 11.2 165 7
    endloop
  endfacet
  facet normal -1 -0 0
    outer loop
      vertex 11.2 165 27
      vertex 11.2 162 7
      vertex 11.2 162 27
    endloop
  endfacet
  facet normal 1 -0 0
    outer loop
      vertex 170 162 3.5
      vertex 170 165 -1
      vertex 170 165 3.5
    endloop
  endfacet
  facet normal 1 0 0
    outer loop
      vertex 170 165 -1
      vertex 170 162 3.5
      vertex 170 162 -1
    endloop
  endfacet
  facet normal 1 -0 0
    outer loop
      vertex 170 162 33
      vertex 170 165 28.5
      vertex 170 165 33
    endloop
  endfacet
  facet normal 1 0 0
    outer loop
      vertex 170 165 28.5
      vertex 170 162 33
      vertex 170 162 28.5
    endloop
  endfacet
  facet normal -0.0768434 0 -0.997043
    outer loop
      vertex 11.2 162 7
      vertex 115 165 -1
      vertex 115 162 -1
    endloop
  endfacet
  facet normal -0.0768434 0 -0.997043
    outer loop
      vertex 115 165 -1
      vertex 11.2 162 7
      vertex 11.2 165 7
    endloop
  endfacet
  facet normal -0 0 1
    outer loop
      vertex 115 165 33
      vertex 170 162 33
      vertex 170 165 33
    endloop
  endfacet
  facet normal 0 0 1
    outer loop
      vertex 170 162 33
      vertex 115 165 33
      vertex 115 162 33
    endloop
  endfacet
  facet normal 0 -1 0
    outer loop
      vertex 115 162 33
      vertex 166 162 28.5
      vertex 170 162 33
    endloop
  endfacet
  facet normal 0 -1 0
    outer loop
      vertex 11.2 162 7
      vertex 115 162 33
      vertex 11.2 162 27
    endloop
  endfacet
  facet normal -0 -1 0
    outer loop
      vertex 161.05 162 16.0503
      vertex 115 162 33
      vertex 115 162 -1
    endloop
  endfacet
  facet normal 0 -1 0
    outer loop
      vertex 115 162 33
      vertex 161.05 162 16.0503
      vertex 166 162 28.5
    endloop
  endfacet
  facet normal 0 -1 -0
    outer loop
      vertex 166 162 28.5
      vertex 161.129 162 16.1294
      vertex 166 162 21
    endloop
  endfacet
  facet normal 0 -1 0
    outer loop
      vertex 166 162 28.5
      vertex 161.05 162 16.0503
      vertex 161.129 162 16.1294
    endloop
  endfacet
  facet normal 0 -1 -0
    outer loop
      vertex 115 162 33
      vertex 11.2 162 7
      vertex 115 162 -1
    endloop
  endfacet
  facet normal -0 -1 0
    outer loop
      vertex 166 162 3.5
      vertex 161.05 162 16.0503
      vertex 115 162 -1
    endloop
  endfacet
  facet normal 0 -1 0
    outer loop
      vertex 161.05 162 16.0503
      vertex 166 162 3.5
      vertex 166 162 11.1005
    endloop
  endfacet
  facet normal 0 -1 0
    outer loop
      vertex 170 162 -1
      vertex 166 162 3.5
      vertex 115 162 -1
    endloop
  endfacet
  facet normal 0 -1 0
    outer loop
      vertex 166 162 3.5
      vertex 170 162 -1
      vertex 170 162 3.5
    endloop
  endfacet
  facet normal 0 -1 -0
    outer loop
      vertex 170 162 33
      vertex 166 162 28.5
      vertex 170 162 28.5
    endloop
  endfacet
  facet normal 0 0 -1
    outer loop
      vertex 115 162 -1
      vertex 170 165 -1
      vertex 170 162 -1
    endloop
  endfacet
  facet normal -0 0 -1
    outer loop
      vertex 170 165 -1
      vertex 115 162 -1
      vertex 115 165 -1
    endloop
  endfacet
  facet normal 0 1 0
    outer loop
      vertex 170 165 3.5
      vertex 170 165 -1
      vertex 166 165 3.5
    endloop
  endfacet
  facet normal 0 1 0
    outer loop
      vertex 166 165 28.5
      vertex 170 165 33
      vertex 170 165 28.5
    endloop
  endfacet
  facet normal 0 1 0
    outer loop
      vertex 170 165 33
      vertex 166 165 28.5
      vertex 115 165 33
    endloop
  endfacet
  facet normal 0 1 0
    outer loop
      vertex 115 165 -1
      vertex 115 165 33
      vertex 166 165 28.5
    endloop
  endfacet
  facet normal -0 1 0
    outer loop
      vertex 11.2 165 7
      vertex 115 165 33
      vertex 115 165 -1
    endloop
  endfacet
  facet normal 0 1 0
    outer loop
      vertex 115 165 -1
      vertex 166 165 28.5
      vertex 166 165 3.5
    endloop
  endfacet
  facet normal 0 1 0
    outer loop
      vertex 115 165 -1
      vertex 166 165 3.5
      vertex 170 165 -1
    endloop
  endfacet
  facet normal 0 1 0
    outer loop
      vertex 115 165 33
      vertex 11.2 165 7
      vertex 11.2 165 27
    endloop
  endfacet
  facet normal -0.0577071 0 0.998334
    outer loop
      vertex 11.2 165 27
      vertex 115 162 33
      vertex 115 165 33
    endloop
  endfacet
  facet normal -0.0577071 0 0.998334
    outer loop
      vertex 115 162 33
      vertex 11.2 165 27
      vertex 11.2 162 27
    endloop
  endfacet
  facet normal -1 0 0
    outer loop
      vertex 11.2 36 7
      vertex 11.2 39 27
      vertex 11.2 39 7
    endloop
  endfacet
  facet normal -1 -0 0
    outer loop
      vertex 11.2 39 27
      vertex 11.2 36 7
      vertex 11.2 36 27
    endloop
  endfacet
  facet normal 1 -0 0
    outer loop
      vertex 170 36 3.5
      vertex 170 39 -1
      vertex 170 39 3.5
    endloop
  endfacet
  facet normal 1 0 0
    outer loop
      vertex 170 39 -1
      vertex 170 36 3.5
      vertex 170 36 -1
    endloop
  endfacet
  facet normal 1 -0 0
    outer loop
      vertex 170 36 33
      vertex 170 39 28.5
      vertex 170 39 33
    endloop
  endfacet
  facet normal 1 0 0
    outer loop
      vertex 170 39 28.5
      vertex 170 36 33
      vertex 170 36 28.5
    endloop
  endfacet
  facet normal -0.0768434 0 -0.997043
    outer loop
      vertex 11.2 36 7
      vertex 115 39 -1
      vertex 115 36 -1
    endloop
  endfacet
  facet normal -0.0768434 0 -0.997043
    outer loop
      vertex 115 39 -1
      vertex 11.2 36 7
      vertex 11.2 39 7
    endloop
  endfacet
  facet normal -0 0 1
    outer loop
      vertex 115 39 33
      vertex 170 36 33
      vertex 170 39 33
    endloop
  endfacet
  facet normal 0 0 1
    outer loop
      vertex 170 36 33
      vertex 115 39 33
      vertex 115 36 33
    endloop
  endfacet
  facet normal 0 -1 0
    outer loop
      vertex 115 36 33
      vertex 166 36 28.5
      vertex 170 36 33
    endloop
  endfacet
  facet normal 0 -1 0
    outer loop
      vertex 11.2 36 7
      vertex 115 36 33
      vertex 11.2 36 27
    endloop
  endfacet
  facet normal 0 -1 -0
    outer loop
      vertex 115 36 33
      vertex 11.2 36 7
      vertex 115 36 -1
    endloop
  endfacet
  facet normal 0 -1 0
    outer loop
      vertex 115 36 33
      vertex 115 36 -1
      vertex 166 36 28.5
    endloop
  endfacet
  facet normal 0 -1 -0
    outer loop
      vertex 166 36 28.5
      vertex 115 36 -1
      vertex 166 36 3.5
    endloop
  endfacet
  facet normal 0 -1 0
    outer loop
      vertex 170 36 -1
      vertex 166 36 3.5
      vertex 115 36 -1
    endloop
  endfacet
  facet normal 0 -1 0
    outer loop
      vertex 166 36 3.5
      vertex 170 36 -1
      vertex 170 36 3.5
    endloop
  endfacet
  facet normal 0 -1 -0
    outer loop
      vertex 170 36 33
      vertex 166 36 28.5
      vertex 170 36 28.5
    endloop
  endfacet
  facet normal 0 0 -1
    outer loop
      vertex 115 36 -1
      vertex 170 39 -1
      vertex 170 36 -1
    endloop
  endfacet
  facet normal -0 0 -1
    outer loop
      vertex 170 39 -1
      vertex 115 36 -1
      vertex 115 39 -1
    endloop
  endfacet
  facet normal 0 1 0
    outer loop
      vertex 170 39 3.5
      vertex 170 39 -1
      vertex 166 39 3.5
    endloop
  endfacet
  facet normal 0 1 0
    outer loop
      vertex 166 39 28.5
      vertex 170 39 33
      vertex 170 39 28.5
    endloop
  endfacet
  facet normal 0 1 0
    outer loop
      vertex 170 39 33
      vertex 166 39 28.5
      vertex 115 39 33
    endloop
  endfacet
  facet normal 0 1 -0
    outer loop
      vertex 161.05 39 16.0503
      vertex 115 39 33
      vertex 166 39 28.5
    endloop
  endfacet
  facet normal 0 1 0
    outer loop
      vertex 161.05 39 16.0503
      vertex 166 39 28.5
      vertex 166 39 21
    endloop
  endfacet
  facet normal 0 1 0
    outer loop
      vertex 115 39 33
      vertex 161.05 39 16.0503
      vertex 115 39 -1
    endloop
  endfacet
  facet normal 0 1 -0
    outer loop
      vertex 166 39 3.5
      vertex 161.05 39 16.0503
      vertex 166 39 11.1005
    endloop
  endfacet
  facet normal -0 1 0
    outer loop
      vertex 11.2 39 7
      vertex 115 39 33
      vertex 115 39 -1
    endloop
  endfacet
  facet normal 0 1 0
    outer loop
      vertex 161.05 39 16.0503
      vertex 166 39 3.5
      vertex 115 39 -1
    endloop
  endfacet
  facet normal 0 1 0
    outer loop
      vertex 115 39 -1
      vertex 166 39 3.5
      vertex 170 39 -1
    endloop
  endfacet
  facet normal 0 1 0
    outer loop
      vertex 115 39 33
      vertex 11.2 39 7
      vertex 11.2 39 27
    endloop
  endfacet
  facet normal -0.0577071 0 0.998334
    outer loop
      vertex 11.2 39 27
      vertex 115 36 33
      vertex 115 39 33
    endloop
  endfacet
  facet normal -0.0577071 0 0.998334
    outer loop
      vertex 115 36 33
      vertex 11.2 39 27
      vertex 11.2 36 27
    endloop
  endfacet
  facet normal -0.707056 0 0.707158
    outer loop
      vertex 161.05 39 16.0503
      vertex 161.129 162 16.1294
      vertex 161.05 162 16.0503
    endloop
  endfacet
  facet normal -0.707106 6.52638e-08 0.707107
    outer loop
      vertex 161.129 162 16.1294
      vertex 161.05 39 16.0503
      vertex 166 39 21
    endloop
  endfacet
  facet normal -0.707107 -1.0965e-08 0.707106
    outer loop
      vertex 166 39 21
      vertex 166 162 21
      vertex 161.129 162 16.1294
    endloop
  endfacet
  facet normal -0.707106 0 -0.707107
    outer loop
      vertex 161.05 39 16.0503
      vertex 166 162 11.1005
      vertex 166 39 11.1005
    endloop
  endfacet
  facet normal -0.707106 0 -0.707107
    outer loop
      vertex 166 162 11.1005
      vertex 161.05 39 16.0503
      vertex 161.05 162 16.0503
    endloop
  endfacet
endsolid OpenSCAD_Model
