solid OpenSCAD_Model
  facet normal -1 0 0
    outer loop
      vertex 0 0 0
      vertex 0 186 8
      vertex 0 186 0
    endloop
  endfacet
  facet normal -1 -0 0
    outer loop
      vertex 0 186 8
      vertex 0 0 0
      vertex 0 0 8
    endloop
  endfacet
  facet normal 0 0 1
    outer loop
      vertex 137.05 186 8
      vertex 134.55 183.5 8
      vertex 137.05 0 8
    endloop
  endfacet
  facet normal 0 0 1
    outer loop
      vertex 137.05 186 8
      vertex 2.5 183.5 8
      vertex 134.55 183.5 8
    endloop
  endfacet
  facet normal 0 0 1
    outer loop
      vertex 2.5 183.5 8
      vertex 0 186 8
      vertex 2.5 2.5 8
    endloop
  endfacet
  facet normal -0 0 1
    outer loop
      vertex 0 186 8
      vertex 2.5 183.5 8
      vertex 137.05 186 8
    endloop
  endfacet
  facet normal -0 0 1
    outer loop
      vertex 134.55 2.5 8
      vertex 137.05 0 8
      vertex 134.55 183.5 8
    endloop
  endfacet
  facet normal -0 0 1
    outer loop
      vertex 2.5 2.5 8
      vertex 137.05 0 8
      vertex 134.55 2.5 8
    endloop
  endfacet
  facet normal 0 0 1
    outer loop
      vertex 2.5 2.5 8
      vertex 0 0 8
      vertex 137.05 0 8
    endloop
  endfacet
  facet normal 0 0 1
    outer loop
      vertex 0 0 8
      vertex 2.5 2.5 8
      vertex 0 186 8
    endloop
  endfacet
  facet normal 1 -0 0
    outer loop
      vertex 137.05 0 8
      vertex 137.05 186 0
      vertex 137.05 186 8
    endloop
  endfacet
  facet normal 1 0 0
    outer loop
      vertex 137.05 186 0
      vertex 137.05 0 8
      vertex 137.05 0 0
    endloop
  endfacet
  facet normal 0 1 -0
    outer loop
      vertex 137.05 186 0
      vertex 0 186 8
      vertex 137.05 186 8
    endloop
  endfacet
  facet normal 0 1 0
    outer loop
      vertex 0 186 8
      vertex 137.05 186 0
      vertex 0 186 0
    endloop
  endfacet
  facet normal 0 0 -1
    outer loop
      vertex 0 0 0
      vertex 137.05 186 0
      vertex 137.05 0 0
    endloop
  endfacet
  facet normal -0 0 -1
    outer loop
      vertex 137.05 186 0
      vertex 0 0 0
      vertex 0 186 0
    endloop
  endfacet
  facet normal 0 -1 0
    outer loop
      vertex 0 0 0
      vertex 137.05 0 8
      vertex 0 0 8
    endloop
  endfacet
  facet normal 0 -1 -0
    outer loop
      vertex 137.05 0 8
      vertex 0 0 0
      vertex 137.05 0 0
    endloop
  endfacet
  facet normal 1 0 0
    outer loop
      vertex 2.5 183.5 8
      vertex 2.5 161 5
      vertex 2.5 183.5 4
    endloop
  endfacet
  facet normal 1 0 0
    outer loop
      vertex 2.5 183.5 8
      vertex 2.5 160 5
      vertex 2.5 161 5
    endloop
  endfacet
  facet normal 1 0 0
    outer loop
      vertex 2.5 160 5
      vertex 2.5 141 5
      vertex 2.5 160 4
    endloop
  endfacet
  facet normal 1 0 0
    outer loop
      vertex 2.5 183.5 8
      vertex 2.5 141 5
      vertex 2.5 160 5
    endloop
  endfacet
  facet normal 1 0 0
    outer loop
      vertex 2.5 183.5 8
      vertex 2.5 140 5
      vertex 2.5 141 5
    endloop
  endfacet
  facet normal 1 0 0
    outer loop
      vertex 2.5 140 5
      vertex 2.5 121 5
      vertex 2.5 140 4
    endloop
  endfacet
  facet normal 1 0 0
    outer loop
      vertex 2.5 183.5 8
      vertex 2.5 121 5
      vertex 2.5 140 5
    endloop
  endfacet
  facet normal 1 0 0
    outer loop
      vertex 2.5 183.5 8
      vertex 2.5 120 5
      vertex 2.5 121 5
    endloop
  endfacet
  facet normal 1 0 0
    outer loop
      vertex 2.5 120 5
      vertex 2.5 101 5
      vertex 2.5 120 4
    endloop
  endfacet
  facet normal 1 0 0
    outer loop
      vertex 2.5 183.5 8
      vertex 2.5 101 5
      vertex 2.5 120 5
    endloop
  endfacet
  facet normal 1 0 0
    outer loop
      vertex 2.5 183.5 8
      vertex 2.5 100 5
      vertex 2.5 101 5
    endloop
  endfacet
  facet normal 1 0 0
    outer loop
      vertex 2.5 100 5
      vertex 2.5 81 5
      vertex 2.5 100 4
    endloop
  endfacet
  facet normal 1 0 0
    outer loop
      vertex 2.5 183.5 8
      vertex 2.5 81 5
      vertex 2.5 100 5
    endloop
  endfacet
  facet normal 1 0 0
    outer loop
      vertex 2.5 183.5 8
      vertex 2.5 80 5
      vertex 2.5 81 5
    endloop
  endfacet
  facet normal 1 0 0
    outer loop
      vertex 2.5 80 5
      vertex 2.5 61 5
      vertex 2.5 80 4
    endloop
  endfacet
  facet normal 1 -0 0
    outer loop
      vertex 2.5 2.5 8
      vertex 2.5 80 5
      vertex 2.5 183.5 8
    endloop
  endfacet
  facet normal 1 0 0
    outer loop
      vertex 2.5 80 5
      vertex 2.5 2.5 8
      vertex 2.5 61 5
    endloop
  endfacet
  facet normal 1 0 0
    outer loop
      vertex 2.5 60 5
      vertex 2.5 41 5
      vertex 2.5 60 4
    endloop
  endfacet
  facet normal 1 0 0
    outer loop
      vertex 2.5 61 5
      vertex 2.5 2.5 8
      vertex 2.5 60 5
    endloop
  endfacet
  facet normal 1 0 0
    outer loop
      vertex 2.5 60 5
      vertex 2.5 2.5 8
      vertex 2.5 41 5
    endloop
  endfacet
  facet normal 1 0 0
    outer loop
      vertex 2.5 40 5
      vertex 2.5 21 5
      vertex 2.5 40 4
    endloop
  endfacet
  facet normal 1 0 0
    outer loop
      vertex 2.5 41 5
      vertex 2.5 2.5 8
      vertex 2.5 40 5
    endloop
  endfacet
  facet normal 1 0 0
    outer loop
      vertex 2.5 40 5
      vertex 2.5 2.5 8
      vertex 2.5 21 5
    endloop
  endfacet
  facet normal 1 0 0
    outer loop
      vertex 2.5 21 5
      vertex 2.5 2.5 8
      vertex 2.5 20 5
    endloop
  endfacet
  facet normal 1 0 0
    outer loop
      vertex 2.5 2.5 4
      vertex 2.5 20 5
      vertex 2.5 2.5 8
    endloop
  endfacet
  facet normal 1 0 0
    outer loop
      vertex 2.5 20 5
      vertex 2.5 2.5 4
      vertex 2.5 20 4
    endloop
  endfacet
  facet normal 1 0 0
    outer loop
      vertex 2.5 183.5 4
      vertex 2.5 161 5
      vertex 2.5 161 4
    endloop
  endfacet
  facet normal 1 0 0
    outer loop
      vertex 2.5 160 4
      vertex 2.5 141 5
      vertex 2.5 141 4
    endloop
  endfacet
  facet normal 1 0 0
    outer loop
      vertex 2.5 140 4
      vertex 2.5 121 5
      vertex 2.5 121 4
    endloop
  endfacet
  facet normal 1 0 0
    outer loop
      vertex 2.5 120 4
      vertex 2.5 101 5
      vertex 2.5 101 4
    endloop
  endfacet
  facet normal 1 0 0
    outer loop
      vertex 2.5 100 4
      vertex 2.5 81 5
      vertex 2.5 81 4
    endloop
  endfacet
  facet normal 1 0 0
    outer loop
      vertex 2.5 80 4
      vertex 2.5 61 5
      vertex 2.5 61 4
    endloop
  endfacet
  facet normal 1 0 0
    outer loop
      vertex 2.5 60 4
      vertex 2.5 41 5
      vertex 2.5 41 4
    endloop
  endfacet
  facet normal 1 0 0
    outer loop
      vertex 2.5 40 4
      vertex 2.5 21 5
      vertex 2.5 21 4
    endloop
  endfacet
  facet normal -1 0 0
    outer loop
      vertex 134.55 20 4
      vertex 134.55 2.5 4
      vertex 134.55 20 5
    endloop
  endfacet
  facet normal -1 0 0
    outer loop
      vertex 134.55 40 4
      vertex 134.55 21 4
      vertex 134.55 40 5
    endloop
  endfacet
  facet normal -1 0 0
    outer loop
      vertex 134.55 60 4
      vertex 134.55 41 4
      vertex 134.55 60 5
    endloop
  endfacet
  facet normal -1 0 0
    outer loop
      vertex 134.55 80 4
      vertex 134.55 61 4
      vertex 134.55 80 5
    endloop
  endfacet
  facet normal -1 0 0
    outer loop
      vertex 134.55 100 4
      vertex 134.55 81 4
      vertex 134.55 100 5
    endloop
  endfacet
  facet normal -1 0 0
    outer loop
      vertex 134.55 120 4
      vertex 134.55 101 4
      vertex 134.55 120 5
    endloop
  endfacet
  facet normal -1 0 0
    outer loop
      vertex 134.55 140 4
      vertex 134.55 121 4
      vertex 134.55 140 5
    endloop
  endfacet
  facet normal -1 0 0
    outer loop
      vertex 134.55 160 4
      vertex 134.55 141 4
      vertex 134.55 160 5
    endloop
  endfacet
  facet normal -1 0 0
    outer loop
      vertex 134.55 161 5
      vertex 134.55 183.5 4
      vertex 134.55 161 4
    endloop
  endfacet
  facet normal -1 0 0
    outer loop
      vertex 134.55 183.5 4
      vertex 134.55 161 5
      vertex 134.55 183.5 8
    endloop
  endfacet
  facet normal -1 0 0
    outer loop
      vertex 134.55 160 5
      vertex 134.55 183.5 8
      vertex 134.55 161 5
    endloop
  endfacet
  facet normal -1 0 0
    outer loop
      vertex 134.55 141 5
      vertex 134.55 160 5
      vertex 134.55 141 4
    endloop
  endfacet
  facet normal -1 0 0
    outer loop
      vertex 134.55 160 5
      vertex 134.55 141 5
      vertex 134.55 183.5 8
    endloop
  endfacet
  facet normal -1 0 0
    outer loop
      vertex 134.55 140 5
      vertex 134.55 183.5 8
      vertex 134.55 141 5
    endloop
  endfacet
  facet normal -1 0 0
    outer loop
      vertex 134.55 121 5
      vertex 134.55 140 5
      vertex 134.55 121 4
    endloop
  endfacet
  facet normal -1 0 0
    outer loop
      vertex 134.55 140 5
      vertex 134.55 121 5
      vertex 134.55 183.5 8
    endloop
  endfacet
  facet normal -1 0 0
    outer loop
      vertex 134.55 120 5
      vertex 134.55 183.5 8
      vertex 134.55 121 5
    endloop
  endfacet
  facet normal -1 0 0
    outer loop
      vertex 134.55 101 5
      vertex 134.55 120 5
      vertex 134.55 101 4
    endloop
  endfacet
  facet normal -1 0 0
    outer loop
      vertex 134.55 101 5
      vertex 134.55 183.5 8
      vertex 134.55 120 5
    endloop
  endfacet
  facet normal -1 0 0
    outer loop
      vertex 134.55 100 5
      vertex 134.55 183.5 8
      vertex 134.55 101 5
    endloop
  endfacet
  facet normal -1 0 0
    outer loop
      vertex 134.55 81 5
      vertex 134.55 100 5
      vertex 134.55 81 4
    endloop
  endfacet
  facet normal -1 0 0
    outer loop
      vertex 134.55 81 5
      vertex 134.55 183.5 8
      vertex 134.55 100 5
    endloop
  endfacet
  facet normal -1 0 0
    outer loop
      vertex 134.55 80 5
      vertex 134.55 183.5 8
      vertex 134.55 81 5
    endloop
  endfacet
  facet normal -1 0 0
    outer loop
      vertex 134.55 61 5
      vertex 134.55 80 5
      vertex 134.55 61 4
    endloop
  endfacet
  facet normal -1 0 0
    outer loop
      vertex 134.55 2.5 8
      vertex 134.55 80 5
      vertex 134.55 61 5
    endloop
  endfacet
  facet normal -1 0 0
    outer loop
      vertex 134.55 2.5 8
      vertex 134.55 61 5
      vertex 134.55 60 5
    endloop
  endfacet
  facet normal -1 0 0
    outer loop
      vertex 134.55 41 5
      vertex 134.55 60 5
      vertex 134.55 41 4
    endloop
  endfacet
  facet normal -1 0 0
    outer loop
      vertex 134.55 2.5 8
      vertex 134.55 60 5
      vertex 134.55 41 5
    endloop
  endfacet
  facet normal -1 0 0
    outer loop
      vertex 134.55 2.5 8
      vertex 134.55 41 5
      vertex 134.55 40 5
    endloop
  endfacet
  facet normal -1 0 0
    outer loop
      vertex 134.55 21 5
      vertex 134.55 40 5
      vertex 134.55 21 4
    endloop
  endfacet
  facet normal -1 0 0
    outer loop
      vertex 134.55 2.5 8
      vertex 134.55 40 5
      vertex 134.55 21 5
    endloop
  endfacet
  facet normal -1 0 0
    outer loop
      vertex 134.55 2.5 8
      vertex 134.55 21 5
      vertex 134.55 20 5
    endloop
  endfacet
  facet normal -1 0 0
    outer loop
      vertex 134.55 80 5
      vertex 134.55 2.5 8
      vertex 134.55 183.5 8
    endloop
  endfacet
  facet normal -1 0 0
    outer loop
      vertex 134.55 2.5 8
      vertex 134.55 20 5
      vertex 134.55 2.5 4
    endloop
  endfacet
  facet normal 0 -1 0
    outer loop
      vertex 2.5 183.5 4
      vertex 134.55 183.5 8
      vertex 2.5 183.5 8
    endloop
  endfacet
  facet normal 0 -1 -0
    outer loop
      vertex 134.55 183.5 8
      vertex 2.5 183.5 4
      vertex 134.55 183.5 4
    endloop
  endfacet
  facet normal 0 0 1
    outer loop
      vertex 101.48 100 4
      vertex 102.525 92 4
      vertex 101.782 99.069 4
    endloop
  endfacet
  facet normal 0 0 1
    outer loop
      vertex 100.505 81 4
      vertex 102.525 92 4
      vertex 101.48 100 4
    endloop
  endfacet
  facet normal 0 0 1
    outer loop
      vertex 102.525 92 4
      vertex 100.505 81 4
      vertex 101.782 84.931 4
    endloop
  endfacet
  facet normal 0 0 1
    outer loop
      vertex 101.48 100 4
      vertex 36.5452 81 4
      vertex 100.505 81 4
    endloop
  endfacet
  facet normal -0 0 1
    outer loop
      vertex 35.5705 100 4
      vertex 36.5452 81 4
      vertex 101.48 100 4
    endloop
  endfacet
  facet normal 0 0 1
    outer loop
      vertex 34.525 92 4
      vertex 35.5705 100 4
      vertex 35.268 99.069 4
    endloop
  endfacet
  facet normal 0 0 1
    outer loop
      vertex 35.5705 100 4
      vertex 34.525 92 4
      vertex 36.5452 81 4
    endloop
  endfacet
  facet normal 0 0 1
    outer loop
      vertex 36.5452 81 4
      vertex 34.525 92 4
      vertex 35.268 84.931 4
    endloop
  endfacet
  facet normal 0 0 1
    outer loop
      vertex 134.55 100 4
      vertex 102.525 92 4
      vertex 134.55 81 4
    endloop
  endfacet
  facet normal 0 0 1
    outer loop
      vertex 134.55 100 4
      vertex 101.782 99.069 4
      vertex 102.525 92 4
    endloop
  endfacet
  facet normal 0 -0 1
    outer loop
      vertex 101.782 99.069 4
      vertex 134.55 100 4
      vertex 101.48 100 4
    endloop
  endfacet
  facet normal -0 0 1
    outer loop
      vertex 101.782 84.931 4
      vertex 134.55 81 4
      vertex 102.525 92 4
    endloop
  endfacet
  facet normal 0 0 1
    outer loop
      vertex 134.55 81 4
      vertex 101.782 84.931 4
      vertex 100.505 81 4
    endloop
  endfacet
  facet normal 0 0 1
    outer loop
      vertex 96.0316 111.985 4
      vertex 101.155 101 4
      vertex 99.5855 105.829 4
    endloop
  endfacet
  facet normal 0 0 1
    outer loop
      vertex 87.5137 120 4
      vertex 96.0316 111.985 4
      vertex 91.2754 117.267 4
    endloop
  endfacet
  facet normal 0 0 1
    outer loop
      vertex 96.0316 111.985 4
      vertex 87.5137 120 4
      vertex 101.155 101 4
    endloop
  endfacet
  facet normal -0 0 1
    outer loop
      vertex 49.5363 120 4
      vertex 101.155 101 4
      vertex 87.5137 120 4
    endloop
  endfacet
  facet normal 0 0 1
    outer loop
      vertex 41.0184 111.985 4
      vertex 49.5363 120 4
      vertex 45.7746 117.267 4
    endloop
  endfacet
  facet normal 0 0 1
    outer loop
      vertex 49.5363 120 4
      vertex 41.0184 111.985 4
      vertex 35.8954 101 4
    endloop
  endfacet
  facet normal 0 0 1
    outer loop
      vertex 35.8954 101 4
      vertex 41.0184 111.985 4
      vertex 37.4645 105.829 4
    endloop
  endfacet
  facet normal 0 0 1
    outer loop
      vertex 49.5363 120 4
      vertex 35.8954 101 4
      vertex 101.155 101 4
    endloop
  endfacet
  facet normal -0 0 1
    outer loop
      vertex 99.5855 105.829 4
      vertex 134.55 101 4
      vertex 134.55 120 4
    endloop
  endfacet
  facet normal 0 0 1
    outer loop
      vertex 134.55 101 4
      vertex 99.5855 105.829 4
      vertex 101.155 101 4
    endloop
  endfacet
  facet normal 0 0 1
    outer loop
      vertex 134.55 120 4
      vertex 96.0316 111.985 4
      vertex 99.5855 105.829 4
    endloop
  endfacet
  facet normal 0 0 1
    outer loop
      vertex 134.55 120 4
      vertex 91.2754 117.267 4
      vertex 96.0316 111.985 4
    endloop
  endfacet
  facet normal 0 -0 1
    outer loop
      vertex 91.2754 117.267 4
      vertex 134.55 120 4
      vertex 87.5137 120 4
    endloop
  endfacet
  facet normal 0 0 1
    outer loop
      vertex 35.268 99.069 4
      vertex 2.5 100 4
      vertex 34.525 92 4
    endloop
  endfacet
  facet normal -0 0 1
    outer loop
      vertex 2.5 100 4
      vertex 35.268 99.069 4
      vertex 35.5705 100 4
    endloop
  endfacet
  facet normal 0 0 1
    outer loop
      vertex 2.5 81 4
      vertex 34.525 92 4
      vertex 2.5 100 4
    endloop
  endfacet
  facet normal 0 0 1
    outer loop
      vertex 34.525 92 4
      vertex 2.5 81 4
      vertex 35.268 84.931 4
    endloop
  endfacet
  facet normal 0 0 1
    outer loop
      vertex 35.268 84.931 4
      vertex 2.5 81 4
      vertex 36.5452 81 4
    endloop
  endfacet
  facet normal -0 0 1
    outer loop
      vertex 79.7861 60 4
      vertex 134.55 41 4
      vertex 134.55 60 4
    endloop
  endfacet
  facet normal -0 0 1
    outer loop
      vertex 79.0316 59.6641 4
      vertex 134.55 41 4
      vertex 79.7861 60 4
    endloop
  endfacet
  facet normal -0 0 1
    outer loop
      vertex 72.079 58.1863 4
      vertex 134.55 41 4
      vertex 79.0316 59.6641 4
    endloop
  endfacet
  facet normal -0 0 1
    outer loop
      vertex 64.971 58.1863 4
      vertex 134.55 41 4
      vertex 72.079 58.1863 4
    endloop
  endfacet
  facet normal 0 0 1
    outer loop
      vertex 2.5 41 4
      vertex 64.971 58.1863 4
      vertex 58.0184 59.6641 4
    endloop
  endfacet
  facet normal 0 0 1
    outer loop
      vertex 2.5 41 4
      vertex 57.2639 60 4
      vertex 2.5 60 4
    endloop
  endfacet
  facet normal 0 0 1
    outer loop
      vertex 57.2639 60 4
      vertex 2.5 41 4
      vertex 58.0184 59.6641 4
    endloop
  endfacet
  facet normal 0 0 1
    outer loop
      vertex 64.971 58.1863 4
      vertex 2.5 41 4
      vertex 134.55 41 4
    endloop
  endfacet
  facet normal 0 0 1
    outer loop
      vertex 79.7861 60 4
      vertex 72.079 58.1863 4
      vertex 79.0316 59.6641 4
    endloop
  endfacet
  facet normal 0 0 1
    outer loop
      vertex 79.7861 60 4
      vertex 64.971 58.1863 4
      vertex 72.079 58.1863 4
    endloop
  endfacet
  facet normal -0 0 1
    outer loop
      vertex 57.2639 60 4
      vertex 64.971 58.1863 4
      vertex 79.7861 60 4
    endloop
  endfacet
  facet normal 0 0 1
    outer loop
      vertex 64.971 58.1863 4
      vertex 57.2639 60 4
      vertex 58.0184 59.6641 4
    endloop
  endfacet
  facet normal 0 0 1
    outer loop
      vertex 79.0316 124.336 4
      vertex 86.1373 121 4
      vertex 85.525 121.445 4
    endloop
  endfacet
  facet normal 0 0 1
    outer loop
      vertex 72.079 125.814 4
      vertex 86.1373 121 4
      vertex 79.0316 124.336 4
    endloop
  endfacet
  facet normal -0 0 1
    outer loop
      vertex 64.971 125.814 4
      vertex 86.1373 121 4
      vertex 72.079 125.814 4
    endloop
  endfacet
  facet normal -0 0 1
    outer loop
      vertex 58.0184 124.336 4
      vertex 86.1373 121 4
      vertex 64.971 125.814 4
    endloop
  endfacet
  facet normal 0 0 1
    outer loop
      vertex 50.9127 121 4
      vertex 58.0184 124.336 4
      vertex 51.525 121.445 4
    endloop
  endfacet
  facet normal 0 0 1
    outer loop
      vertex 58.0184 124.336 4
      vertex 50.9127 121 4
      vertex 86.1373 121 4
    endloop
  endfacet
  facet normal 0 0 1
    outer loop
      vertex 134.55 140 4
      vertex 86.1373 121 4
      vertex 134.55 121 4
    endloop
  endfacet
  facet normal 0 0 1
    outer loop
      vertex 134.55 140 4
      vertex 85.525 121.445 4
      vertex 86.1373 121 4
    endloop
  endfacet
  facet normal 0 0 1
    outer loop
      vertex 134.55 140 4
      vertex 79.0316 124.336 4
      vertex 85.525 121.445 4
    endloop
  endfacet
  facet normal 0 0 1
    outer loop
      vertex 134.55 140 4
      vertex 72.079 125.814 4
      vertex 79.0316 124.336 4
    endloop
  endfacet
  facet normal 0 0 1
    outer loop
      vertex 134.55 140 4
      vertex 64.971 125.814 4
      vertex 72.079 125.814 4
    endloop
  endfacet
  facet normal -0 0 1
    outer loop
      vertex 2.5 140 4
      vertex 64.971 125.814 4
      vertex 134.55 140 4
    endloop
  endfacet
  facet normal 0 0 1
    outer loop
      vertex 2.5 140 4
      vertex 58.0184 124.336 4
      vertex 64.971 125.814 4
    endloop
  endfacet
  facet normal 0 0 1
    outer loop
      vertex 2.5 140 4
      vertex 51.525 121.445 4
      vertex 58.0184 124.336 4
    endloop
  endfacet
  facet normal 0 0 1
    outer loop
      vertex 2.5 140 4
      vertex 50.9127 121 4
      vertex 51.525 121.445 4
    endloop
  endfacet
  facet normal 0 0 1
    outer loop
      vertex 50.9127 121 4
      vertex 2.5 140 4
      vertex 2.5 121 4
    endloop
  endfacet
  facet normal -0 0 1
    outer loop
      vertex 2.5 120 4
      vertex 45.7746 117.267 4
      vertex 49.5363 120 4
    endloop
  endfacet
  facet normal 0 0 1
    outer loop
      vertex 2.5 120 4
      vertex 41.0184 111.985 4
      vertex 45.7746 117.267 4
    endloop
  endfacet
  facet normal 0 0 1
    outer loop
      vertex 2.5 120 4
      vertex 37.4645 105.829 4
      vertex 41.0184 111.985 4
    endloop
  endfacet
  facet normal 0 0 1
    outer loop
      vertex 2.5 101 4
      vertex 37.4645 105.829 4
      vertex 2.5 120 4
    endloop
  endfacet
  facet normal 0 0 1
    outer loop
      vertex 37.4645 105.829 4
      vertex 2.5 101 4
      vertex 35.8954 101 4
    endloop
  endfacet
  facet normal 0 0 1
    outer loop
      vertex 99.5855 78.171 4
      vertex 134.55 80 4
      vertex 100.18 80 4
    endloop
  endfacet
  facet normal 0 0 1
    outer loop
      vertex 134.55 80 4
      vertex 99.5855 78.171 4
      vertex 134.55 61 4
    endloop
  endfacet
  facet normal -0 0 1
    outer loop
      vertex 96.0316 72.0153 4
      vertex 134.55 61 4
      vertex 99.5855 78.171 4
    endloop
  endfacet
  facet normal -0 0 1
    outer loop
      vertex 91.2754 66.7331 4
      vertex 134.55 61 4
      vertex 96.0316 72.0153 4
    endloop
  endfacet
  facet normal -0 0 1
    outer loop
      vertex 85.525 62.5551 4
      vertex 134.55 61 4
      vertex 91.2754 66.7331 4
    endloop
  endfacet
  facet normal 0 0 1
    outer loop
      vertex 134.55 61 4
      vertex 85.525 62.5551 4
      vertex 82.0321 61 4
    endloop
  endfacet
  facet normal 0 0 1
    outer loop
      vertex 100.18 80 4
      vertex 96.0316 72.0153 4
      vertex 99.5855 78.171 4
    endloop
  endfacet
  facet normal 0 0 1
    outer loop
      vertex 100.18 80 4
      vertex 91.2754 66.7331 4
      vertex 96.0316 72.0153 4
    endloop
  endfacet
  facet normal 0 0 1
    outer loop
      vertex 82.0321 61 4
      vertex 91.2754 66.7331 4
      vertex 100.18 80 4
    endloop
  endfacet
  facet normal 0 0 1
    outer loop
      vertex 91.2754 66.7331 4
      vertex 82.0321 61 4
      vertex 85.525 62.5551 4
    endloop
  endfacet
  facet normal 0 0 1
    outer loop
      vertex 100.18 80 4
      vertex 55.0179 61 4
      vertex 82.0321 61 4
    endloop
  endfacet
  facet normal -0 0 1
    outer loop
      vertex 36.8702 80 4
      vertex 55.0179 61 4
      vertex 100.18 80 4
    endloop
  endfacet
  facet normal 0 0 1
    outer loop
      vertex 55.0179 61 4
      vertex 45.7746 66.7331 4
      vertex 51.525 62.5551 4
    endloop
  endfacet
  facet normal 0 0 1
    outer loop
      vertex 55.0179 61 4
      vertex 36.8702 80 4
      vertex 45.7746 66.7331 4
    endloop
  endfacet
  facet normal 0 0 1
    outer loop
      vertex 45.7746 66.7331 4
      vertex 36.8702 80 4
      vertex 41.0184 72.0153 4
    endloop
  endfacet
  facet normal 0 0 1
    outer loop
      vertex 41.0184 72.0153 4
      vertex 36.8702 80 4
      vertex 37.4645 78.171 4
    endloop
  endfacet
  facet normal -0 0 1
    outer loop
      vertex 2.5 80 4
      vertex 37.4645 78.171 4
      vertex 36.8702 80 4
    endloop
  endfacet
  facet normal 0 0 1
    outer loop
      vertex 2.5 61 4
      vertex 37.4645 78.171 4
      vertex 2.5 80 4
    endloop
  endfacet
  facet normal 0 0 1
    outer loop
      vertex 37.4645 78.171 4
      vertex 2.5 61 4
      vertex 41.0184 72.0153 4
    endloop
  endfacet
  facet normal 0 0 1
    outer loop
      vertex 41.0184 72.0153 4
      vertex 2.5 61 4
      vertex 45.7746 66.7331 4
    endloop
  endfacet
  facet normal 0 0 1
    outer loop
      vertex 45.7746 66.7331 4
      vertex 2.5 61 4
      vertex 51.525 62.5551 4
    endloop
  endfacet
  facet normal 0 0 1
    outer loop
      vertex 51.525 62.5551 4
      vertex 2.5 61 4
      vertex 55.0179 61 4
    endloop
  endfacet
  facet normal -0 0 1
    outer loop
      vertex 2.5 183.5 4
      vertex 134.55 161 4
      vertex 134.55 183.5 4
    endloop
  endfacet
  facet normal 0 0 1
    outer loop
      vertex 134.55 161 4
      vertex 2.5 183.5 4
      vertex 2.5 161 4
    endloop
  endfacet
  facet normal -0 0 1
    outer loop
      vertex 2.5 20 4
      vertex 134.55 2.5 4
      vertex 134.55 20 4
    endloop
  endfacet
  facet normal 0 0 1
    outer loop
      vertex 134.55 2.5 4
      vertex 2.5 20 4
      vertex 2.5 2.5 4
    endloop
  endfacet
  facet normal -0 0 1
    outer loop
      vertex 2.5 160 4
      vertex 134.55 141 4
      vertex 134.55 160 4
    endloop
  endfacet
  facet normal 0 0 1
    outer loop
      vertex 134.55 141 4
      vertex 2.5 160 4
      vertex 2.5 141 4
    endloop
  endfacet
  facet normal -0 0 1
    outer loop
      vertex 2.5 40 4
      vertex 134.55 21 4
      vertex 134.55 40 4
    endloop
  endfacet
  facet normal 0 0 1
    outer loop
      vertex 134.55 21 4
      vertex 2.5 40 4
      vertex 2.5 21 4
    endloop
  endfacet
  facet normal 0 1 -0
    outer loop
      vertex 134.55 2.5 4
      vertex 2.5 2.5 8
      vertex 134.55 2.5 8
    endloop
  endfacet
  facet normal 0 1 0
    outer loop
      vertex 2.5 2.5 8
      vertex 134.55 2.5 4
      vertex 2.5 2.5 4
    endloop
  endfacet
  facet normal -0 0 1
    outer loop
      vertex 2.5 21 5
      vertex 134.55 20 5
      vertex 134.55 21 5
    endloop
  endfacet
  facet normal 0 0 1
    outer loop
      vertex 134.55 20 5
      vertex 2.5 21 5
      vertex 2.5 20 5
    endloop
  endfacet
  facet normal 0 -1 0
    outer loop
      vertex 2.5 20 4
      vertex 134.55 20 5
      vertex 2.5 20 5
    endloop
  endfacet
  facet normal 0 -1 -0
    outer loop
      vertex 134.55 20 5
      vertex 2.5 20 4
      vertex 134.55 20 4
    endloop
  endfacet
  facet normal 0 1 -0
    outer loop
      vertex 134.55 21 4
      vertex 2.5 21 5
      vertex 134.55 21 5
    endloop
  endfacet
  facet normal 0 1 0
    outer loop
      vertex 2.5 21 5
      vertex 134.55 21 4
      vertex 2.5 21 4
    endloop
  endfacet
  facet normal -0 0 1
    outer loop
      vertex 2.5 41 5
      vertex 134.55 40 5
      vertex 134.55 41 5
    endloop
  endfacet
  facet normal 0 0 1
    outer loop
      vertex 134.55 40 5
      vertex 2.5 41 5
      vertex 2.5 40 5
    endloop
  endfacet
  facet normal 0 1 -0
    outer loop
      vertex 134.55 41 4
      vertex 2.5 41 5
      vertex 134.55 41 5
    endloop
  endfacet
  facet normal 0 1 0
    outer loop
      vertex 2.5 41 5
      vertex 134.55 41 4
      vertex 2.5 41 4
    endloop
  endfacet
  facet normal 0 -1 0
    outer loop
      vertex 2.5 40 4
      vertex 134.55 40 5
      vertex 2.5 40 5
    endloop
  endfacet
  facet normal 0 -1 -0
    outer loop
      vertex 134.55 40 5
      vertex 2.5 40 4
      vertex 134.55 40 4
    endloop
  endfacet
  facet normal -0 0 1
    outer loop
      vertex 2.5 61 5
      vertex 134.55 60 5
      vertex 134.55 61 5
    endloop
  endfacet
  facet normal 0 0 1
    outer loop
      vertex 134.55 60 5
      vertex 2.5 61 5
      vertex 2.5 60 5
    endloop
  endfacet
  facet normal 0 -1 0
    outer loop
      vertex 57.2639 60 4
      vertex 2.5 60 5
      vertex 2.5 60 4
    endloop
  endfacet
  facet normal 0 -1 0
    outer loop
      vertex 2.5 60 5
      vertex 57.2639 60 4
      vertex 134.55 60 5
    endloop
  endfacet
  facet normal 0 -1 0
    outer loop
      vertex 79.7861 60 4
      vertex 134.55 60 5
      vertex 57.2639 60 4
    endloop
  endfacet
  facet normal 0 -1 -0
    outer loop
      vertex 134.55 60 5
      vertex 79.7861 60 4
      vertex 134.55 60 4
    endloop
  endfacet
  facet normal 0 1 0
    outer loop
      vertex 82.0321 61 4
      vertex 134.55 61 5
      vertex 134.55 61 4
    endloop
  endfacet
  facet normal 0 1 0
    outer loop
      vertex 134.55 61 5
      vertex 82.0321 61 4
      vertex 2.5 61 5
    endloop
  endfacet
  facet normal 0 1 -0
    outer loop
      vertex 55.0179 61 4
      vertex 2.5 61 5
      vertex 82.0321 61 4
    endloop
  endfacet
  facet normal 0 1 0
    outer loop
      vertex 2.5 61 5
      vertex 55.0179 61 4
      vertex 2.5 61 4
    endloop
  endfacet
  facet normal -0 0 1
    outer loop
      vertex 2.5 81 5
      vertex 134.55 80 5
      vertex 134.55 81 5
    endloop
  endfacet
  facet normal 0 0 1
    outer loop
      vertex 134.55 80 5
      vertex 2.5 81 5
      vertex 2.5 80 5
    endloop
  endfacet
  facet normal 0 1 0
    outer loop
      vertex 100.505 81 4
      vertex 134.55 81 5
      vertex 134.55 81 4
    endloop
  endfacet
  facet normal 0 1 0
    outer loop
      vertex 134.55 81 5
      vertex 100.505 81 4
      vertex 2.5 81 5
    endloop
  endfacet
  facet normal 0 1 -0
    outer loop
      vertex 36.5452 81 4
      vertex 2.5 81 5
      vertex 100.505 81 4
    endloop
  endfacet
  facet normal 0 1 0
    outer loop
      vertex 2.5 81 5
      vertex 36.5452 81 4
      vertex 2.5 81 4
    endloop
  endfacet
  facet normal 0 -1 0
    outer loop
      vertex 36.8702 80 4
      vertex 2.5 80 5
      vertex 2.5 80 4
    endloop
  endfacet
  facet normal 0 -1 0
    outer loop
      vertex 2.5 80 5
      vertex 36.8702 80 4
      vertex 134.55 80 5
    endloop
  endfacet
  facet normal 0 -1 0
    outer loop
      vertex 100.18 80 4
      vertex 134.55 80 5
      vertex 36.8702 80 4
    endloop
  endfacet
  facet normal 0 -1 -0
    outer loop
      vertex 134.55 80 5
      vertex 100.18 80 4
      vertex 134.55 80 4
    endloop
  endfacet
  facet normal -0 0 1
    outer loop
      vertex 2.5 101 5
      vertex 134.55 100 5
      vertex 134.55 101 5
    endloop
  endfacet
  facet normal 0 0 1
    outer loop
      vertex 134.55 100 5
      vertex 2.5 101 5
      vertex 2.5 100 5
    endloop
  endfacet
  facet normal 0 -1 0
    outer loop
      vertex 35.5705 100 4
      vertex 2.5 100 5
      vertex 2.5 100 4
    endloop
  endfacet
  facet normal 0 -1 0
    outer loop
      vertex 2.5 100 5
      vertex 35.5705 100 4
      vertex 134.55 100 5
    endloop
  endfacet
  facet normal 0 -1 0
    outer loop
      vertex 101.48 100 4
      vertex 134.55 100 5
      vertex 35.5705 100 4
    endloop
  endfacet
  facet normal 0 -1 -0
    outer loop
      vertex 134.55 100 5
      vertex 101.48 100 4
      vertex 134.55 100 4
    endloop
  endfacet
  facet normal 0 1 0
    outer loop
      vertex 101.155 101 4
      vertex 134.55 101 5
      vertex 134.55 101 4
    endloop
  endfacet
  facet normal 0 1 0
    outer loop
      vertex 134.55 101 5
      vertex 101.155 101 4
      vertex 2.5 101 5
    endloop
  endfacet
  facet normal 0 1 -0
    outer loop
      vertex 35.8954 101 4
      vertex 2.5 101 5
      vertex 101.155 101 4
    endloop
  endfacet
  facet normal 0 1 0
    outer loop
      vertex 2.5 101 5
      vertex 35.8954 101 4
      vertex 2.5 101 4
    endloop
  endfacet
  facet normal -0 0 1
    outer loop
      vertex 2.5 121 5
      vertex 134.55 120 5
      vertex 134.55 121 5
    endloop
  endfacet
  facet normal 0 0 1
    outer loop
      vertex 134.55 120 5
      vertex 2.5 121 5
      vertex 2.5 120 5
    endloop
  endfacet
  facet normal 0 -1 0
    outer loop
      vertex 49.5363 120 4
      vertex 2.5 120 5
      vertex 2.5 120 4
    endloop
  endfacet
  facet normal 0 -1 0
    outer loop
      vertex 2.5 120 5
      vertex 49.5363 120 4
      vertex 134.55 120 5
    endloop
  endfacet
  facet normal 0 -1 0
    outer loop
      vertex 87.5137 120 4
      vertex 134.55 120 5
      vertex 49.5363 120 4
    endloop
  endfacet
  facet normal 0 -1 -0
    outer loop
      vertex 134.55 120 5
      vertex 87.5137 120 4
      vertex 134.55 120 4
    endloop
  endfacet
  facet normal 0 1 0
    outer loop
      vertex 86.1373 121 4
      vertex 134.55 121 5
      vertex 134.55 121 4
    endloop
  endfacet
  facet normal 0 1 0
    outer loop
      vertex 134.55 121 5
      vertex 86.1373 121 4
      vertex 2.5 121 5
    endloop
  endfacet
  facet normal 0 1 -0
    outer loop
      vertex 50.9127 121 4
      vertex 2.5 121 5
      vertex 86.1373 121 4
    endloop
  endfacet
  facet normal 0 1 0
    outer loop
      vertex 2.5 121 5
      vertex 50.9127 121 4
      vertex 2.5 121 4
    endloop
  endfacet
  facet normal -0 0 1
    outer loop
      vertex 2.5 141 5
      vertex 134.55 140 5
      vertex 134.55 141 5
    endloop
  endfacet
  facet normal 0 0 1
    outer loop
      vertex 134.55 140 5
      vertex 2.5 141 5
      vertex 2.5 140 5
    endloop
  endfacet
  facet normal 0 1 -0
    outer loop
      vertex 134.55 141 4
      vertex 2.5 141 5
      vertex 134.55 141 5
    endloop
  endfacet
  facet normal 0 1 0
    outer loop
      vertex 2.5 141 5
      vertex 134.55 141 4
      vertex 2.5 141 4
    endloop
  endfacet
  facet normal 0 -1 0
    outer loop
      vertex 2.5 140 4
      vertex 134.55 140 5
      vertex 2.5 140 5
    endloop
  endfacet
  facet normal 0 -1 -0
    outer loop
      vertex 134.55 140 5
      vertex 2.5 140 4
      vertex 134.55 140 4
    endloop
  endfacet
  facet normal -0 0 1
    outer loop
      vertex 2.5 161 5
      vertex 134.55 160 5
      vertex 134.55 161 5
    endloop
  endfacet
  facet normal 0 0 1
    outer loop
      vertex 134.55 160 5
      vertex 2.5 161 5
      vertex 2.5 160 5
    endloop
  endfacet
  facet normal 0 1 -0
    outer loop
      vertex 134.55 161 4
      vertex 2.5 161 5
      vertex 134.55 161 5
    endloop
  endfacet
  facet normal 0 1 0
    outer loop
      vertex 2.5 161 5
      vertex 134.55 161 4
      vertex 2.5 161 4
    endloop
  endfacet
  facet normal 0 -1 0
    outer loop
      vertex 2.5 160 4
      vertex 134.55 160 5
      vertex 2.5 160 5
    endloop
  endfacet
  facet normal 0 -1 -0
    outer loop
      vertex 134.55 160 5
      vertex 2.5 160 4
      vertex 134.55 160 4
    endloop
  endfacet
endsolid OpenSCAD_Model
