solid OpenSCAD_Model
  facet normal -1 0 0
    outer loop
      vertex 0 0 0
      vertex 0 186 8
      vertex 0 186 0
    endloop
  endfacet
  facet normal -1 -0 0
    outer loop
      vertex 0 186 8
      vertex 0 0 0
      vertex 0 0 8
    endloop
  endfacet
  facet normal 0 0 1
    outer loop
      vertex 137.05 186 8
      vertex 134.55 183.5 8
      vertex 137.05 0 8
    endloop
  endfacet
  facet normal 0 0 1
    outer loop
      vertex 137.05 186 8
      vertex 2.5 183.5 8
      vertex 134.55 183.5 8
    endloop
  endfacet
  facet normal 0 0 1
    outer loop
      vertex 2.5 183.5 8
      vertex 0 186 8
      vertex 2.5 2.5 8
    endloop
  endfacet
  facet normal -0 0 1
    outer loop
      vertex 0 186 8
      vertex 2.5 183.5 8
      vertex 137.05 186 8
    endloop
  endfacet
  facet normal -0 0 1
    outer loop
      vertex 134.55 2.5 8
      vertex 137.05 0 8
      vertex 134.55 183.5 8
    endloop
  endfacet
  facet normal -0 0 1
    outer loop
      vertex 2.5 2.5 8
      vertex 137.05 0 8
      vertex 134.55 2.5 8
    endloop
  endfacet
  facet normal 0 0 1
    outer loop
      vertex 2.5 2.5 8
      vertex 0 0 8
      vertex 137.05 0 8
    endloop
  endfacet
  facet normal 0 0 1
    outer loop
      vertex 0 0 8
      vertex 2.5 2.5 8
      vertex 0 186 8
    endloop
  endfacet
  facet normal 1 -0 0
    outer loop
      vertex 137.05 0 8
      vertex 137.05 186 0
      vertex 137.05 186 8
    endloop
  endfacet
  facet normal 1 0 0
    outer loop
      vertex 137.05 186 0
      vertex 137.05 0 8
      vertex 137.05 0 0
    endloop
  endfacet
  facet normal 0 1 -0
    outer loop
      vertex 137.05 186 0
      vertex 0 186 8
      vertex 137.05 186 8
    endloop
  endfacet
  facet normal 0 1 0
    outer loop
      vertex 0 186 8
      vertex 137.05 186 0
      vertex 0 186 0
    endloop
  endfacet
  facet normal 0 0 -1
    outer loop
      vertex 137.05 0 0
      vertex 101.525 92 0
      vertex 137.05 186 0
    endloop
  endfacet
  facet normal 0 0 -1
    outer loop
      vertex 137.05 0 0
      vertex 100.804 85.1389 0
      vertex 101.525 92 0
    endloop
  endfacet
  facet normal 0 0 -1
    outer loop
      vertex 137.05 0 0
      vertex 98.672 78.5777 0
      vertex 100.804 85.1389 0
    endloop
  endfacet
  facet normal 0 0 -1
    outer loop
      vertex 137.05 0 0
      vertex 95.2226 72.6031 0
      vertex 98.672 78.5777 0
    endloop
  endfacet
  facet normal 0 0 -1
    outer loop
      vertex 137.05 0 0
      vertex 90.6063 67.4762 0
      vertex 95.2226 72.6031 0
    endloop
  endfacet
  facet normal 0 0 -1
    outer loop
      vertex 137.05 0 0
      vertex 85.025 63.4212 0
      vertex 90.6063 67.4762 0
    endloop
  endfacet
  facet normal 0 0 -1
    outer loop
      vertex 137.05 0 0
      vertex 78.7226 60.6151 0
      vertex 85.025 63.4212 0
    endloop
  endfacet
  facet normal 0 0 -1
    outer loop
      vertex 137.05 0 0
      vertex 71.9744 59.1808 0
      vertex 78.7226 60.6151 0
    endloop
  endfacet
  facet normal 0 0 -1
    outer loop
      vertex 137.05 0 0
      vertex 65.0756 59.1808 0
      vertex 71.9744 59.1808 0
    endloop
  endfacet
  facet normal 0 0 -1
    outer loop
      vertex 0 0 0
      vertex 65.0756 59.1808 0
      vertex 137.05 0 0
    endloop
  endfacet
  facet normal -0 0 -1
    outer loop
      vertex 65.0756 59.1808 0
      vertex 0 0 0
      vertex 58.3274 60.6151 0
    endloop
  endfacet
  facet normal -0 0 -1
    outer loop
      vertex 58.3274 60.6151 0
      vertex 0 0 0
      vertex 52.025 63.4212 0
    endloop
  endfacet
  facet normal -0 0 -1
    outer loop
      vertex 36.2461 85.1389 0
      vertex 0 0 0
      vertex 35.525 92 0
    endloop
  endfacet
  facet normal -0 0 -1
    outer loop
      vertex 38.378 78.5777 0
      vertex 0 0 0
      vertex 36.2461 85.1389 0
    endloop
  endfacet
  facet normal -0 0 -1
    outer loop
      vertex 41.8274 72.6031 0
      vertex 0 0 0
      vertex 38.378 78.5777 0
    endloop
  endfacet
  facet normal -0 0 -1
    outer loop
      vertex 46.4437 67.4762 0
      vertex 0 0 0
      vertex 41.8274 72.6031 0
    endloop
  endfacet
  facet normal -0 0 -1
    outer loop
      vertex 52.025 63.4212 0
      vertex 0 0 0
      vertex 46.4437 67.4762 0
    endloop
  endfacet
  facet normal 0 0 -1
    outer loop
      vertex 100.804 98.8611 0
      vertex 137.05 186 0
      vertex 101.525 92 0
    endloop
  endfacet
  facet normal 0 0 -1
    outer loop
      vertex 98.672 105.422 0
      vertex 137.05 186 0
      vertex 100.804 98.8611 0
    endloop
  endfacet
  facet normal 0 0 -1
    outer loop
      vertex 95.2226 111.397 0
      vertex 137.05 186 0
      vertex 98.672 105.422 0
    endloop
  endfacet
  facet normal 0 0 -1
    outer loop
      vertex 90.6063 116.524 0
      vertex 137.05 186 0
      vertex 95.2226 111.397 0
    endloop
  endfacet
  facet normal 0 0 -1
    outer loop
      vertex 85.025 120.579 0
      vertex 137.05 186 0
      vertex 90.6063 116.524 0
    endloop
  endfacet
  facet normal 0 0 -1
    outer loop
      vertex 78.7226 123.385 0
      vertex 137.05 186 0
      vertex 85.025 120.579 0
    endloop
  endfacet
  facet normal 0 0 -1
    outer loop
      vertex 71.9744 124.819 0
      vertex 137.05 186 0
      vertex 78.7226 123.385 0
    endloop
  endfacet
  facet normal 0 0 -1
    outer loop
      vertex 65.0756 124.819 0
      vertex 137.05 186 0
      vertex 71.9744 124.819 0
    endloop
  endfacet
  facet normal 0 0 -1
    outer loop
      vertex 0 186 0
      vertex 65.0756 124.819 0
      vertex 58.3274 123.385 0
    endloop
  endfacet
  facet normal 0 0 -1
    outer loop
      vertex 0 186 0
      vertex 58.3274 123.385 0
      vertex 52.025 120.579 0
    endloop
  endfacet
  facet normal 0 0 -1
    outer loop
      vertex 0 186 0
      vertex 52.025 120.579 0
      vertex 46.4437 116.524 0
    endloop
  endfacet
  facet normal 0 0 -1
    outer loop
      vertex 0 186 0
      vertex 35.525 92 0
      vertex 0 0 0
    endloop
  endfacet
  facet normal 0 0 -1
    outer loop
      vertex 35.525 92 0
      vertex 0 186 0
      vertex 36.2461 98.8611 0
    endloop
  endfacet
  facet normal 0 0 -1
    outer loop
      vertex 65.0756 124.819 0
      vertex 0 186 0
      vertex 137.05 186 0
    endloop
  endfacet
  facet normal 0 0 -1
    outer loop
      vertex 41.8274 111.397 0
      vertex 0 186 0
      vertex 46.4437 116.524 0
    endloop
  endfacet
  facet normal 0 0 -1
    outer loop
      vertex 38.378 105.422 0
      vertex 0 186 0
      vertex 41.8274 111.397 0
    endloop
  endfacet
  facet normal 0 0 -1
    outer loop
      vertex 36.2461 98.8611 0
      vertex 0 186 0
      vertex 38.378 105.422 0
    endloop
  endfacet
  facet normal 0 -1 0
    outer loop
      vertex 0 0 0
      vertex 137.05 0 8
      vertex 0 0 8
    endloop
  endfacet
  facet normal 0 -1 -0
    outer loop
      vertex 137.05 0 8
      vertex 0 0 0
      vertex 137.05 0 0
    endloop
  endfacet
  facet normal 1 0 0
    outer loop
      vertex 2.5 183.5 8
      vertex 2.5 161 5
      vertex 2.5 183.5 4
    endloop
  endfacet
  facet normal 1 0 0
    outer loop
      vertex 2.5 183.5 8
      vertex 2.5 160 5
      vertex 2.5 161 5
    endloop
  endfacet
  facet normal 1 0 0
    outer loop
      vertex 2.5 160 5
      vertex 2.5 141 5
      vertex 2.5 160 4
    endloop
  endfacet
  facet normal 1 0 0
    outer loop
      vertex 2.5 183.5 8
      vertex 2.5 141 5
      vertex 2.5 160 5
    endloop
  endfacet
  facet normal 1 0 0
    outer loop
      vertex 2.5 183.5 8
      vertex 2.5 140 5
      vertex 2.5 141 5
    endloop
  endfacet
  facet normal 1 0 0
    outer loop
      vertex 2.5 140 5
      vertex 2.5 121 5
      vertex 2.5 140 4
    endloop
  endfacet
  facet normal 1 0 0
    outer loop
      vertex 2.5 183.5 8
      vertex 2.5 121 5
      vertex 2.5 140 5
    endloop
  endfacet
  facet normal 1 0 0
    outer loop
      vertex 2.5 183.5 8
      vertex 2.5 120 5
      vertex 2.5 121 5
    endloop
  endfacet
  facet normal 1 0 0
    outer loop
      vertex 2.5 120 5
      vertex 2.5 101 5
      vertex 2.5 120 4
    endloop
  endfacet
  facet normal 1 0 0
    outer loop
      vertex 2.5 183.5 8
      vertex 2.5 101 5
      vertex 2.5 120 5
    endloop
  endfacet
  facet normal 1 0 0
    outer loop
      vertex 2.5 183.5 8
      vertex 2.5 100 5
      vertex 2.5 101 5
    endloop
  endfacet
  facet normal 1 0 0
    outer loop
      vertex 2.5 100 5
      vertex 2.5 81 5
      vertex 2.5 100 4
    endloop
  endfacet
  facet normal 1 0 0
    outer loop
      vertex 2.5 183.5 8
      vertex 2.5 81 5
      vertex 2.5 100 5
    endloop
  endfacet
  facet normal 1 0 0
    outer loop
      vertex 2.5 183.5 8
      vertex 2.5 80 5
      vertex 2.5 81 5
    endloop
  endfacet
  facet normal 1 0 0
    outer loop
      vertex 2.5 80 5
      vertex 2.5 61 5
      vertex 2.5 80 4
    endloop
  endfacet
  facet normal 1 -0 0
    outer loop
      vertex 2.5 2.5 8
      vertex 2.5 80 5
      vertex 2.5 183.5 8
    endloop
  endfacet
  facet normal 1 0 0
    outer loop
      vertex 2.5 80 5
      vertex 2.5 2.5 8
      vertex 2.5 61 5
    endloop
  endfacet
  facet normal 1 0 0
    outer loop
      vertex 2.5 60 5
      vertex 2.5 41 5
      vertex 2.5 60 4
    endloop
  endfacet
  facet normal 1 0 0
    outer loop
      vertex 2.5 61 5
      vertex 2.5 2.5 8
      vertex 2.5 60 5
    endloop
  endfacet
  facet normal 1 0 0
    outer loop
      vertex 2.5 60 5
      vertex 2.5 2.5 8
      vertex 2.5 41 5
    endloop
  endfacet
  facet normal 1 0 0
    outer loop
      vertex 2.5 40 5
      vertex 2.5 21 5
      vertex 2.5 40 4
    endloop
  endfacet
  facet normal 1 0 0
    outer loop
      vertex 2.5 41 5
      vertex 2.5 2.5 8
      vertex 2.5 40 5
    endloop
  endfacet
  facet normal 1 0 0
    outer loop
      vertex 2.5 40 5
      vertex 2.5 2.5 8
      vertex 2.5 21 5
    endloop
  endfacet
  facet normal 1 0 0
    outer loop
      vertex 2.5 21 5
      vertex 2.5 2.5 8
      vertex 2.5 20 5
    endloop
  endfacet
  facet normal 1 0 0
    outer loop
      vertex 2.5 2.5 4
      vertex 2.5 20 5
      vertex 2.5 2.5 8
    endloop
  endfacet
  facet normal 1 0 0
    outer loop
      vertex 2.5 20 5
      vertex 2.5 2.5 4
      vertex 2.5 20 4
    endloop
  endfacet
  facet normal 1 0 0
    outer loop
      vertex 2.5 183.5 4
      vertex 2.5 161 5
      vertex 2.5 161 4
    endloop
  endfacet
  facet normal 1 0 0
    outer loop
      vertex 2.5 160 4
      vertex 2.5 141 5
      vertex 2.5 141 4
    endloop
  endfacet
  facet normal 1 0 0
    outer loop
      vertex 2.5 140 4
      vertex 2.5 121 5
      vertex 2.5 121 4
    endloop
  endfacet
  facet normal 1 0 0
    outer loop
      vertex 2.5 120 4
      vertex 2.5 101 5
      vertex 2.5 101 4
    endloop
  endfacet
  facet normal 1 0 0
    outer loop
      vertex 2.5 100 4
      vertex 2.5 81 5
      vertex 2.5 81 4
    endloop
  endfacet
  facet normal 1 0 0
    outer loop
      vertex 2.5 80 4
      vertex 2.5 61 5
      vertex 2.5 61 4
    endloop
  endfacet
  facet normal 1 0 0
    outer loop
      vertex 2.5 60 4
      vertex 2.5 41 5
      vertex 2.5 41 4
    endloop
  endfacet
  facet normal 1 0 0
    outer loop
      vertex 2.5 40 4
      vertex 2.5 21 5
      vertex 2.5 21 4
    endloop
  endfacet
  facet normal -1 0 0
    outer loop
      vertex 134.55 20 4
      vertex 134.55 2.5 4
      vertex 134.55 20 5
    endloop
  endfacet
  facet normal -1 0 0
    outer loop
      vertex 134.55 40 4
      vertex 134.55 21 4
      vertex 134.55 40 5
    endloop
  endfacet
  facet normal -1 0 0
    outer loop
      vertex 134.55 60 4
      vertex 134.55 41 4
      vertex 134.55 60 5
    endloop
  endfacet
  facet normal -1 0 0
    outer loop
      vertex 134.55 80 4
      vertex 134.55 61 4
      vertex 134.55 80 5
    endloop
  endfacet
  facet normal -1 0 0
    outer loop
      vertex 134.55 100 4
      vertex 134.55 81 4
      vertex 134.55 100 5
    endloop
  endfacet
  facet normal -1 0 0
    outer loop
      vertex 134.55 120 4
      vertex 134.55 101 4
      vertex 134.55 120 5
    endloop
  endfacet
  facet normal -1 0 0
    outer loop
      vertex 134.55 140 4
      vertex 134.55 121 4
      vertex 134.55 140 5
    endloop
  endfacet
  facet normal -1 0 0
    outer loop
      vertex 134.55 160 4
      vertex 134.55 141 4
      vertex 134.55 160 5
    endloop
  endfacet
  facet normal -1 0 0
    outer loop
      vertex 134.55 161 5
      vertex 134.55 183.5 4
      vertex 134.55 161 4
    endloop
  endfacet
  facet normal -1 0 0
    outer loop
      vertex 134.55 183.5 4
      vertex 134.55 161 5
      vertex 134.55 183.5 8
    endloop
  endfacet
  facet normal -1 0 0
    outer loop
      vertex 134.55 160 5
      vertex 134.55 183.5 8
      vertex 134.55 161 5
    endloop
  endfacet
  facet normal -1 0 0
    outer loop
      vertex 134.55 141 5
      vertex 134.55 160 5
      vertex 134.55 141 4
    endloop
  endfacet
  facet normal -1 0 0
    outer loop
      vertex 134.55 160 5
      vertex 134.55 141 5
      vertex 134.55 183.5 8
    endloop
  endfacet
  facet normal -1 0 0
    outer loop
      vertex 134.55 140 5
      vertex 134.55 183.5 8
      vertex 134.55 141 5
    endloop
  endfacet
  facet normal -1 0 0
    outer loop
      vertex 134.55 121 5
      vertex 134.55 140 5
      vertex 134.55 121 4
    endloop
  endfacet
  facet normal -1 0 0
    outer loop
      vertex 134.55 140 5
      vertex 134.55 121 5
      vertex 134.55 183.5 8
    endloop
  endfacet
  facet normal -1 0 0
    outer loop
      vertex 134.55 120 5
      vertex 134.55 183.5 8
      vertex 134.55 121 5
    endloop
  endfacet
  facet normal -1 0 0
    outer loop
      vertex 134.55 101 5
      vertex 134.55 120 5
      vertex 134.55 101 4
    endloop
  endfacet
  facet normal -1 0 0
    outer loop
      vertex 134.55 101 5
      vertex 134.55 183.5 8
      vertex 134.55 120 5
    endloop
  endfacet
  facet normal -1 0 0
    outer loop
      vertex 134.55 100 5
      vertex 134.55 183.5 8
      vertex 134.55 101 5
    endloop
  endfacet
  facet normal -1 0 0
    outer loop
      vertex 134.55 81 5
      vertex 134.55 100 5
      vertex 134.55 81 4
    endloop
  endfacet
  facet normal -1 0 0
    outer loop
      vertex 134.55 81 5
      vertex 134.55 183.5 8
      vertex 134.55 100 5
    endloop
  endfacet
  facet normal -1 0 0
    outer loop
      vertex 134.55 80 5
      vertex 134.55 183.5 8
      vertex 134.55 81 5
    endloop
  endfacet
  facet normal -1 0 0
    outer loop
      vertex 134.55 61 5
      vertex 134.55 80 5
      vertex 134.55 61 4
    endloop
  endfacet
  facet normal -1 0 0
    outer loop
      vertex 134.55 2.5 8
      vertex 134.55 80 5
      vertex 134.55 61 5
    endloop
  endfacet
  facet normal -1 0 0
    outer loop
      vertex 134.55 2.5 8
      vertex 134.55 61 5
      vertex 134.55 60 5
    endloop
  endfacet
  facet normal -1 0 0
    outer loop
      vertex 134.55 41 5
      vertex 134.55 60 5
      vertex 134.55 41 4
    endloop
  endfacet
  facet normal -1 0 0
    outer loop
      vertex 134.55 2.5 8
      vertex 134.55 60 5
      vertex 134.55 41 5
    endloop
  endfacet
  facet normal -1 0 0
    outer loop
      vertex 134.55 2.5 8
      vertex 134.55 41 5
      vertex 134.55 40 5
    endloop
  endfacet
  facet normal -1 0 0
    outer loop
      vertex 134.55 21 5
      vertex 134.55 40 5
      vertex 134.55 21 4
    endloop
  endfacet
  facet normal -1 0 0
    outer loop
      vertex 134.55 2.5 8
      vertex 134.55 40 5
      vertex 134.55 21 5
    endloop
  endfacet
  facet normal -1 0 0
    outer loop
      vertex 134.55 2.5 8
      vertex 134.55 21 5
      vertex 134.55 20 5
    endloop
  endfacet
  facet normal -1 0 0
    outer loop
      vertex 134.55 80 5
      vertex 134.55 2.5 8
      vertex 134.55 183.5 8
    endloop
  endfacet
  facet normal -1 0 0
    outer loop
      vertex 134.55 2.5 8
      vertex 134.55 20 5
      vertex 134.55 2.5 4
    endloop
  endfacet
  facet normal 0 -1 0
    outer loop
      vertex 2.5 183.5 4
      vertex 134.55 183.5 8
      vertex 2.5 183.5 8
    endloop
  endfacet
  facet normal 0 -1 -0
    outer loop
      vertex 134.55 183.5 8
      vertex 2.5 183.5 4
      vertex 134.55 183.5 4
    endloop
  endfacet
  facet normal 0 0 1
    outer loop
      vertex 101.525 92 4
      vertex 102.525 92 4
      vertex 101.782 99.069 4
    endloop
  endfacet
  facet normal 0 0 1
    outer loop
      vertex 102.525 92 4
      vertex 101.525 92 4
      vertex 101.782 84.931 4
    endloop
  endfacet
  facet normal 0 0 1
    outer loop
      vertex 100.804 98.8611 4
      vertex 101.782 99.069 4
      vertex 101.48 100 4
    endloop
  endfacet
  facet normal 0 0 1
    outer loop
      vertex 101.782 99.069 4
      vertex 100.804 98.8611 4
      vertex 101.525 92 4
    endloop
  endfacet
  facet normal 0 -0 1
    outer loop
      vertex 100.804 98.8611 4
      vertex 101.48 100 4
      vertex 100.434 100 4
    endloop
  endfacet
  facet normal -0 0 1
    outer loop
      vertex 100.804 85.1389 4
      vertex 101.782 84.931 4
      vertex 101.525 92 4
    endloop
  endfacet
  facet normal 0 0 1
    outer loop
      vertex 100.804 85.1389 4
      vertex 100.505 81 4
      vertex 101.782 84.931 4
    endloop
  endfacet
  facet normal 0 -0 1
    outer loop
      vertex 100.505 81 4
      vertex 100.804 85.1389 4
      vertex 99.4591 81 4
    endloop
  endfacet
  facet normal 0 0 1
    outer loop
      vertex 134.55 100 4
      vertex 102.525 92 4
      vertex 134.55 81 4
    endloop
  endfacet
  facet normal 0 0 1
    outer loop
      vertex 134.55 100 4
      vertex 101.782 99.069 4
      vertex 102.525 92 4
    endloop
  endfacet
  facet normal 0 -0 1
    outer loop
      vertex 101.782 99.069 4
      vertex 134.55 100 4
      vertex 101.48 100 4
    endloop
  endfacet
  facet normal -0 0 1
    outer loop
      vertex 101.782 84.931 4
      vertex 134.55 81 4
      vertex 102.525 92 4
    endloop
  endfacet
  facet normal 0 0 1
    outer loop
      vertex 134.55 81 4
      vertex 101.782 84.931 4
      vertex 100.505 81 4
    endloop
  endfacet
  facet normal 0 0 1
    outer loop
      vertex 99.5855 105.829 4
      vertex 100.109 101 4
      vertex 101.155 101 4
    endloop
  endfacet
  facet normal 0 0 1
    outer loop
      vertex 99.5855 105.829 4
      vertex 98.672 105.422 4
      vertex 100.109 101 4
    endloop
  endfacet
  facet normal 0 0 1
    outer loop
      vertex 96.0316 111.985 4
      vertex 98.672 105.422 4
      vertex 99.5855 105.829 4
    endloop
  endfacet
  facet normal 0 0 1
    outer loop
      vertex 96.0316 111.985 4
      vertex 95.2226 111.397 4
      vertex 98.672 105.422 4
    endloop
  endfacet
  facet normal 0 0 1
    outer loop
      vertex 91.2754 117.267 4
      vertex 95.2226 111.397 4
      vertex 96.0316 111.985 4
    endloop
  endfacet
  facet normal 0 0 1
    outer loop
      vertex 91.2754 117.267 4
      vertex 90.6063 116.524 4
      vertex 95.2226 111.397 4
    endloop
  endfacet
  facet normal 0 0 1
    outer loop
      vertex 87.5137 120 4
      vertex 90.6063 116.524 4
      vertex 91.2754 117.267 4
    endloop
  endfacet
  facet normal 0 0 1
    outer loop
      vertex 90.6063 116.524 4
      vertex 87.5137 120 4
      vertex 85.8217 120 4
    endloop
  endfacet
  facet normal -0 0 1
    outer loop
      vertex 99.5855 105.829 4
      vertex 134.55 101 4
      vertex 134.55 120 4
    endloop
  endfacet
  facet normal 0 0 1
    outer loop
      vertex 134.55 101 4
      vertex 99.5855 105.829 4
      vertex 101.155 101 4
    endloop
  endfacet
  facet normal 0 0 1
    outer loop
      vertex 134.55 120 4
      vertex 96.0316 111.985 4
      vertex 99.5855 105.829 4
    endloop
  endfacet
  facet normal 0 0 1
    outer loop
      vertex 134.55 120 4
      vertex 91.2754 117.267 4
      vertex 96.0316 111.985 4
    endloop
  endfacet
  facet normal 0 -0 1
    outer loop
      vertex 91.2754 117.267 4
      vertex 134.55 120 4
      vertex 87.5137 120 4
    endloop
  endfacet
  facet normal 0 0 1
    outer loop
      vertex 35.268 99.069 4
      vertex 2.5 100 4
      vertex 34.525 92 4
    endloop
  endfacet
  facet normal -0 0 1
    outer loop
      vertex 2.5 100 4
      vertex 35.268 99.069 4
      vertex 35.5705 100 4
    endloop
  endfacet
  facet normal 0 0 1
    outer loop
      vertex 2.5 81 4
      vertex 34.525 92 4
      vertex 2.5 100 4
    endloop
  endfacet
  facet normal 0 0 1
    outer loop
      vertex 34.525 92 4
      vertex 2.5 81 4
      vertex 35.268 84.931 4
    endloop
  endfacet
  facet normal 0 0 1
    outer loop
      vertex 35.268 84.931 4
      vertex 2.5 81 4
      vertex 36.5452 81 4
    endloop
  endfacet
  facet normal -0 0 1
    outer loop
      vertex 35.5705 100 4
      vertex 36.2461 98.8611 4
      vertex 36.6162 100 4
    endloop
  endfacet
  facet normal -0 0 1
    outer loop
      vertex 35.268 99.069 4
      vertex 36.2461 98.8611 4
      vertex 35.5705 100 4
    endloop
  endfacet
  facet normal 0 0 1
    outer loop
      vertex 36.2461 98.8611 4
      vertex 35.268 99.069 4
      vertex 35.525 92 4
    endloop
  endfacet
  facet normal 0 0 1
    outer loop
      vertex 36.2461 85.1389 4
      vertex 36.5452 81 4
      vertex 37.5909 81 4
    endloop
  endfacet
  facet normal 0 0 1
    outer loop
      vertex 35.268 84.931 4
      vertex 36.2461 85.1389 4
      vertex 35.525 92 4
    endloop
  endfacet
  facet normal 0 0 1
    outer loop
      vertex 36.2461 85.1389 4
      vertex 35.268 84.931 4
      vertex 36.5452 81 4
    endloop
  endfacet
  facet normal 0 0 1
    outer loop
      vertex 34.525 92 4
      vertex 35.525 92 4
      vertex 35.268 99.069 4
    endloop
  endfacet
  facet normal 0 0 1
    outer loop
      vertex 35.525 92 4
      vertex 34.525 92 4
      vertex 35.268 84.931 4
    endloop
  endfacet
  facet normal -0 0 1
    outer loop
      vertex 79.7861 60 4
      vertex 134.55 41 4
      vertex 134.55 60 4
    endloop
  endfacet
  facet normal -0 0 1
    outer loop
      vertex 79.0316 59.6641 4
      vertex 134.55 41 4
      vertex 79.7861 60 4
    endloop
  endfacet
  facet normal -0 0 1
    outer loop
      vertex 72.079 58.1863 4
      vertex 134.55 41 4
      vertex 79.0316 59.6641 4
    endloop
  endfacet
  facet normal -0 0 1
    outer loop
      vertex 64.971 58.1863 4
      vertex 134.55 41 4
      vertex 72.079 58.1863 4
    endloop
  endfacet
  facet normal 0 0 1
    outer loop
      vertex 2.5 41 4
      vertex 64.971 58.1863 4
      vertex 58.0184 59.6641 4
    endloop
  endfacet
  facet normal 0 0 1
    outer loop
      vertex 2.5 41 4
      vertex 57.2639 60 4
      vertex 2.5 60 4
    endloop
  endfacet
  facet normal 0 0 1
    outer loop
      vertex 57.2639 60 4
      vertex 2.5 41 4
      vertex 58.0184 59.6641 4
    endloop
  endfacet
  facet normal 0 0 1
    outer loop
      vertex 64.971 58.1863 4
      vertex 2.5 41 4
      vertex 134.55 41 4
    endloop
  endfacet
  facet normal -0 0 1
    outer loop
      vertex 75.8286 60 4
      vertex 79.0316 59.6641 4
      vertex 79.7861 60 4
    endloop
  endfacet
  facet normal 0 0 1
    outer loop
      vertex 75.8286 60 4
      vertex 72.079 58.1863 4
      vertex 79.0316 59.6641 4
    endloop
  endfacet
  facet normal -0 0 1
    outer loop
      vertex 71.9744 59.1808 4
      vertex 72.079 58.1863 4
      vertex 75.8286 60 4
    endloop
  endfacet
  facet normal -0 0 1
    outer loop
      vertex 65.0756 59.1808 4
      vertex 72.079 58.1863 4
      vertex 71.9744 59.1808 4
    endloop
  endfacet
  facet normal 0 0 1
    outer loop
      vertex 65.0756 59.1808 4
      vertex 64.971 58.1863 4
      vertex 72.079 58.1863 4
    endloop
  endfacet
  facet normal 0 0 1
    outer loop
      vertex 61.2214 60 4
      vertex 64.971 58.1863 4
      vertex 65.0756 59.1808 4
    endloop
  endfacet
  facet normal 0 0 1
    outer loop
      vertex 61.2214 60 4
      vertex 58.0184 59.6641 4
      vertex 64.971 58.1863 4
    endloop
  endfacet
  facet normal 0 -0 1
    outer loop
      vertex 58.0184 59.6641 4
      vertex 61.2214 60 4
      vertex 57.2639 60 4
    endloop
  endfacet
  facet normal 0 0 1
    outer loop
      vertex 85.525 121.445 4
      vertex 84.0791 121 4
      vertex 86.1373 121 4
    endloop
  endfacet
  facet normal 0 0 1
    outer loop
      vertex 79.0316 124.336 4
      vertex 84.0791 121 4
      vertex 85.525 121.445 4
    endloop
  endfacet
  facet normal 0 0 1
    outer loop
      vertex 79.0316 124.336 4
      vertex 78.7226 123.385 4
      vertex 84.0791 121 4
    endloop
  endfacet
  facet normal 0 0 1
    outer loop
      vertex 72.079 125.814 4
      vertex 78.7226 123.385 4
      vertex 79.0316 124.336 4
    endloop
  endfacet
  facet normal 0 0 1
    outer loop
      vertex 72.079 125.814 4
      vertex 71.9744 124.819 4
      vertex 78.7226 123.385 4
    endloop
  endfacet
  facet normal 0 0 1
    outer loop
      vertex 72.079 125.814 4
      vertex 65.0756 124.819 4
      vertex 71.9744 124.819 4
    endloop
  endfacet
  facet normal -0 0 1
    outer loop
      vertex 64.971 125.814 4
      vertex 65.0756 124.819 4
      vertex 72.079 125.814 4
    endloop
  endfacet
  facet normal 0 0 1
    outer loop
      vertex 64.971 125.814 4
      vertex 58.3274 123.385 4
      vertex 65.0756 124.819 4
    endloop
  endfacet
  facet normal -0 0 1
    outer loop
      vertex 58.0184 124.336 4
      vertex 58.3274 123.385 4
      vertex 64.971 125.814 4
    endloop
  endfacet
  facet normal 0 0 1
    outer loop
      vertex 58.0184 124.336 4
      vertex 52.9709 121 4
      vertex 58.3274 123.385 4
    endloop
  endfacet
  facet normal -0 0 1
    outer loop
      vertex 51.525 121.445 4
      vertex 52.9709 121 4
      vertex 58.0184 124.336 4
    endloop
  endfacet
  facet normal 0 0 1
    outer loop
      vertex 52.9709 121 4
      vertex 51.525 121.445 4
      vertex 50.9127 121 4
    endloop
  endfacet
  facet normal 0 0 1
    outer loop
      vertex 134.55 140 4
      vertex 86.1373 121 4
      vertex 134.55 121 4
    endloop
  endfacet
  facet normal 0 0 1
    outer loop
      vertex 134.55 140 4
      vertex 85.525 121.445 4
      vertex 86.1373 121 4
    endloop
  endfacet
  facet normal 0 0 1
    outer loop
      vertex 134.55 140 4
      vertex 79.0316 124.336 4
      vertex 85.525 121.445 4
    endloop
  endfacet
  facet normal 0 0 1
    outer loop
      vertex 134.55 140 4
      vertex 72.079 125.814 4
      vertex 79.0316 124.336 4
    endloop
  endfacet
  facet normal 0 0 1
    outer loop
      vertex 134.55 140 4
      vertex 64.971 125.814 4
      vertex 72.079 125.814 4
    endloop
  endfacet
  facet normal -0 0 1
    outer loop
      vertex 2.5 140 4
      vertex 64.971 125.814 4
      vertex 134.55 140 4
    endloop
  endfacet
  facet normal 0 0 1
    outer loop
      vertex 2.5 140 4
      vertex 58.0184 124.336 4
      vertex 64.971 125.814 4
    endloop
  endfacet
  facet normal 0 0 1
    outer loop
      vertex 2.5 140 4
      vertex 51.525 121.445 4
      vertex 58.0184 124.336 4
    endloop
  endfacet
  facet normal 0 0 1
    outer loop
      vertex 2.5 140 4
      vertex 50.9127 121 4
      vertex 51.525 121.445 4
    endloop
  endfacet
  facet normal 0 0 1
    outer loop
      vertex 50.9127 121 4
      vertex 2.5 140 4
      vertex 2.5 121 4
    endloop
  endfacet
  facet normal -0 0 1
    outer loop
      vertex 49.5363 120 4
      vertex 46.4437 116.524 4
      vertex 51.2283 120 4
    endloop
  endfacet
  facet normal -0 0 1
    outer loop
      vertex 45.7746 117.267 4
      vertex 46.4437 116.524 4
      vertex 49.5363 120 4
    endloop
  endfacet
  facet normal 0 0 1
    outer loop
      vertex 45.7746 117.267 4
      vertex 41.8274 111.397 4
      vertex 46.4437 116.524 4
    endloop
  endfacet
  facet normal -0 0 1
    outer loop
      vertex 41.0184 111.985 4
      vertex 41.8274 111.397 4
      vertex 45.7746 117.267 4
    endloop
  endfacet
  facet normal 0 0 1
    outer loop
      vertex 41.0184 111.985 4
      vertex 38.378 105.422 4
      vertex 41.8274 111.397 4
    endloop
  endfacet
  facet normal -0 0 1
    outer loop
      vertex 37.4645 105.829 4
      vertex 38.378 105.422 4
      vertex 41.0184 111.985 4
    endloop
  endfacet
  facet normal 0 0 1
    outer loop
      vertex 37.4645 105.829 4
      vertex 36.9411 101 4
      vertex 38.378 105.422 4
    endloop
  endfacet
  facet normal 0 -0 1
    outer loop
      vertex 36.9411 101 4
      vertex 37.4645 105.829 4
      vertex 35.8954 101 4
    endloop
  endfacet
  facet normal -0 0 1
    outer loop
      vertex 2.5 120 4
      vertex 45.7746 117.267 4
      vertex 49.5363 120 4
    endloop
  endfacet
  facet normal 0 0 1
    outer loop
      vertex 2.5 120 4
      vertex 41.0184 111.985 4
      vertex 45.7746 117.267 4
    endloop
  endfacet
  facet normal 0 0 1
    outer loop
      vertex 2.5 120 4
      vertex 37.4645 105.829 4
      vertex 41.0184 111.985 4
    endloop
  endfacet
  facet normal 0 0 1
    outer loop
      vertex 2.5 101 4
      vertex 37.4645 105.829 4
      vertex 2.5 120 4
    endloop
  endfacet
  facet normal 0 0 1
    outer loop
      vertex 37.4645 105.829 4
      vertex 2.5 101 4
      vertex 35.8954 101 4
    endloop
  endfacet
  facet normal 0 0 1
    outer loop
      vertex 99.5855 78.171 4
      vertex 134.55 80 4
      vertex 100.18 80 4
    endloop
  endfacet
  facet normal 0 0 1
    outer loop
      vertex 134.55 80 4
      vertex 99.5855 78.171 4
      vertex 134.55 61 4
    endloop
  endfacet
  facet normal -0 0 1
    outer loop
      vertex 96.0316 72.0153 4
      vertex 134.55 61 4
      vertex 99.5855 78.171 4
    endloop
  endfacet
  facet normal -0 0 1
    outer loop
      vertex 91.2754 66.7331 4
      vertex 134.55 61 4
      vertex 96.0316 72.0153 4
    endloop
  endfacet
  facet normal -0 0 1
    outer loop
      vertex 85.525 62.5551 4
      vertex 134.55 61 4
      vertex 91.2754 66.7331 4
    endloop
  endfacet
  facet normal 0 0 1
    outer loop
      vertex 134.55 61 4
      vertex 85.525 62.5551 4
      vertex 82.0321 61 4
    endloop
  endfacet
  facet normal -0 0 1
    outer loop
      vertex 99.1341 80 4
      vertex 99.5855 78.171 4
      vertex 100.18 80 4
    endloop
  endfacet
  facet normal -0 0 1
    outer loop
      vertex 98.672 78.5777 4
      vertex 99.5855 78.171 4
      vertex 99.1341 80 4
    endloop
  endfacet
  facet normal 0 0 1
    outer loop
      vertex 98.672 78.5777 4
      vertex 96.0316 72.0153 4
      vertex 99.5855 78.171 4
    endloop
  endfacet
  facet normal -0 0 1
    outer loop
      vertex 95.2226 72.6031 4
      vertex 96.0316 72.0153 4
      vertex 98.672 78.5777 4
    endloop
  endfacet
  facet normal 0 0 1
    outer loop
      vertex 95.2226 72.6031 4
      vertex 91.2754 66.7331 4
      vertex 96.0316 72.0153 4
    endloop
  endfacet
  facet normal -0 0 1
    outer loop
      vertex 90.6063 67.4762 4
      vertex 91.2754 66.7331 4
      vertex 95.2226 72.6031 4
    endloop
  endfacet
  facet normal 0 0 1
    outer loop
      vertex 90.6063 67.4762 4
      vertex 85.525 62.5551 4
      vertex 91.2754 66.7331 4
    endloop
  endfacet
  facet normal -0 0 1
    outer loop
      vertex 85.025 63.4212 4
      vertex 85.525 62.5551 4
      vertex 90.6063 67.4762 4
    endloop
  endfacet
  facet normal 0 0 1
    outer loop
      vertex 85.025 63.4212 4
      vertex 82.0321 61 4
      vertex 85.525 62.5551 4
    endloop
  endfacet
  facet normal 0 -0 1
    outer loop
      vertex 82.0321 61 4
      vertex 85.025 63.4212 4
      vertex 79.587 61 4
    endloop
  endfacet
  facet normal -0 0 1
    outer loop
      vertex 2.5 80 4
      vertex 37.4645 78.171 4
      vertex 36.8702 80 4
    endloop
  endfacet
  facet normal 0 0 1
    outer loop
      vertex 2.5 61 4
      vertex 37.4645 78.171 4
      vertex 2.5 80 4
    endloop
  endfacet
  facet normal 0 0 1
    outer loop
      vertex 37.4645 78.171 4
      vertex 2.5 61 4
      vertex 41.0184 72.0153 4
    endloop
  endfacet
  facet normal 0 0 1
    outer loop
      vertex 41.0184 72.0153 4
      vertex 2.5 61 4
      vertex 45.7746 66.7331 4
    endloop
  endfacet
  facet normal 0 0 1
    outer loop
      vertex 45.7746 66.7331 4
      vertex 2.5 61 4
      vertex 51.525 62.5551 4
    endloop
  endfacet
  facet normal 0 0 1
    outer loop
      vertex 51.525 62.5551 4
      vertex 2.5 61 4
      vertex 55.0179 61 4
    endloop
  endfacet
  facet normal 0 0 1
    outer loop
      vertex 52.025 63.4212 4
      vertex 55.0179 61 4
      vertex 57.463 61 4
    endloop
  endfacet
  facet normal 0 0 1
    outer loop
      vertex 52.025 63.4212 4
      vertex 51.525 62.5551 4
      vertex 55.0179 61 4
    endloop
  endfacet
  facet normal 0 0 1
    outer loop
      vertex 46.4437 67.4762 4
      vertex 51.525 62.5551 4
      vertex 52.025 63.4212 4
    endloop
  endfacet
  facet normal 0 0 1
    outer loop
      vertex 46.4437 67.4762 4
      vertex 45.7746 66.7331 4
      vertex 51.525 62.5551 4
    endloop
  endfacet
  facet normal 0 0 1
    outer loop
      vertex 41.8274 72.6031 4
      vertex 45.7746 66.7331 4
      vertex 46.4437 67.4762 4
    endloop
  endfacet
  facet normal 0 0 1
    outer loop
      vertex 41.8274 72.6031 4
      vertex 41.0184 72.0153 4
      vertex 45.7746 66.7331 4
    endloop
  endfacet
  facet normal 0 0 1
    outer loop
      vertex 38.378 78.5777 4
      vertex 41.0184 72.0153 4
      vertex 41.8274 72.6031 4
    endloop
  endfacet
  facet normal 0 0 1
    outer loop
      vertex 38.378 78.5777 4
      vertex 37.4645 78.171 4
      vertex 41.0184 72.0153 4
    endloop
  endfacet
  facet normal 0 0 1
    outer loop
      vertex 37.9159 80 4
      vertex 37.4645 78.171 4
      vertex 38.378 78.5777 4
    endloop
  endfacet
  facet normal 0 -0 1
    outer loop
      vertex 37.4645 78.171 4
      vertex 37.9159 80 4
      vertex 36.8702 80 4
    endloop
  endfacet
  facet normal -0 0 1
    outer loop
      vertex 2.5 183.5 4
      vertex 134.55 161 4
      vertex 134.55 183.5 4
    endloop
  endfacet
  facet normal 0 0 1
    outer loop
      vertex 134.55 161 4
      vertex 2.5 183.5 4
      vertex 2.5 161 4
    endloop
  endfacet
  facet normal -0 0 1
    outer loop
      vertex 2.5 20 4
      vertex 134.55 2.5 4
      vertex 134.55 20 4
    endloop
  endfacet
  facet normal 0 0 1
    outer loop
      vertex 134.55 2.5 4
      vertex 2.5 20 4
      vertex 2.5 2.5 4
    endloop
  endfacet
  facet normal -0 0 1
    outer loop
      vertex 2.5 160 4
      vertex 134.55 141 4
      vertex 134.55 160 4
    endloop
  endfacet
  facet normal 0 0 1
    outer loop
      vertex 134.55 141 4
      vertex 2.5 160 4
      vertex 2.5 141 4
    endloop
  endfacet
  facet normal -0 0 1
    outer loop
      vertex 2.5 40 4
      vertex 134.55 21 4
      vertex 134.55 40 4
    endloop
  endfacet
  facet normal 0 0 1
    outer loop
      vertex 134.55 21 4
      vertex 2.5 40 4
      vertex 2.5 21 4
    endloop
  endfacet
  facet normal 0 1 -0
    outer loop
      vertex 134.55 2.5 4
      vertex 2.5 2.5 8
      vertex 134.55 2.5 8
    endloop
  endfacet
  facet normal 0 1 0
    outer loop
      vertex 2.5 2.5 8
      vertex 134.55 2.5 4
      vertex 2.5 2.5 4
    endloop
  endfacet
  facet normal -0 0 1
    outer loop
      vertex 2.5 21 5
      vertex 134.55 20 5
      vertex 134.55 21 5
    endloop
  endfacet
  facet normal 0 0 1
    outer loop
      vertex 134.55 20 5
      vertex 2.5 21 5
      vertex 2.5 20 5
    endloop
  endfacet
  facet normal 0 -1 0
    outer loop
      vertex 2.5 20 4
      vertex 134.55 20 5
      vertex 2.5 20 5
    endloop
  endfacet
  facet normal 0 -1 -0
    outer loop
      vertex 134.55 20 5
      vertex 2.5 20 4
      vertex 134.55 20 4
    endloop
  endfacet
  facet normal 0 1 -0
    outer loop
      vertex 134.55 21 4
      vertex 2.5 21 5
      vertex 134.55 21 5
    endloop
  endfacet
  facet normal 0 1 0
    outer loop
      vertex 2.5 21 5
      vertex 134.55 21 4
      vertex 2.5 21 4
    endloop
  endfacet
  facet normal -0 0 1
    outer loop
      vertex 2.5 41 5
      vertex 134.55 40 5
      vertex 134.55 41 5
    endloop
  endfacet
  facet normal 0 0 1
    outer loop
      vertex 134.55 40 5
      vertex 2.5 41 5
      vertex 2.5 40 5
    endloop
  endfacet
  facet normal 0 1 -0
    outer loop
      vertex 134.55 41 4
      vertex 2.5 41 5
      vertex 134.55 41 5
    endloop
  endfacet
  facet normal 0 1 0
    outer loop
      vertex 2.5 41 5
      vertex 134.55 41 4
      vertex 2.5 41 4
    endloop
  endfacet
  facet normal 0 -1 0
    outer loop
      vertex 2.5 40 4
      vertex 134.55 40 5
      vertex 2.5 40 5
    endloop
  endfacet
  facet normal 0 -1 -0
    outer loop
      vertex 134.55 40 5
      vertex 2.5 40 4
      vertex 134.55 40 4
    endloop
  endfacet
  facet normal -0 0 1
    outer loop
      vertex 2.5 121 5
      vertex 52.025 120.579 5
      vertex 52.9709 121 5
    endloop
  endfacet
  facet normal 0 0 1
    outer loop
      vertex 2.5 121 5
      vertex 51.2283 120 5
      vertex 52.025 120.579 5
    endloop
  endfacet
  facet normal 0 0 1
    outer loop
      vertex 51.2283 120 5
      vertex 2.5 121 5
      vertex 2.5 120 5
    endloop
  endfacet
  facet normal 0 0 1
    outer loop
      vertex 134.55 121 5
      vertex 85.8217 120 5
      vertex 134.55 120 5
    endloop
  endfacet
  facet normal 0 0 1
    outer loop
      vertex 134.55 121 5
      vertex 85.025 120.579 5
      vertex 85.8217 120 5
    endloop
  endfacet
  facet normal 0 -0 1
    outer loop
      vertex 85.025 120.579 5
      vertex 134.55 121 5
      vertex 84.0791 121 5
    endloop
  endfacet
  facet normal -0 0 1
    outer loop
      vertex 2.5 101 5
      vertex 36.6162 100 5
      vertex 36.9411 101 5
    endloop
  endfacet
  facet normal 0 0 1
    outer loop
      vertex 36.6162 100 5
      vertex 2.5 101 5
      vertex 2.5 100 5
    endloop
  endfacet
  facet normal 0 0 1
    outer loop
      vertex 134.55 101 5
      vertex 100.434 100 5
      vertex 134.55 100 5
    endloop
  endfacet
  facet normal 0 -0 1
    outer loop
      vertex 100.434 100 5
      vertex 134.55 101 5
      vertex 100.109 101 5
    endloop
  endfacet
  facet normal 0 0 1
    outer loop
      vertex 2.5 80 5
      vertex 37.5909 81 5
      vertex 2.5 81 5
    endloop
  endfacet
  facet normal 0 0 1
    outer loop
      vertex 37.5909 81 5
      vertex 2.5 80 5
      vertex 37.9159 80 5
    endloop
  endfacet
  facet normal -0 0 1
    outer loop
      vertex 99.4591 81 5
      vertex 134.55 80 5
      vertex 134.55 81 5
    endloop
  endfacet
  facet normal 0 0 1
    outer loop
      vertex 134.55 80 5
      vertex 99.4591 81 5
      vertex 99.1341 80 5
    endloop
  endfacet
  facet normal 0 0 1
    outer loop
      vertex 2.5 60 5
      vertex 57.463 61 5
      vertex 2.5 61 5
    endloop
  endfacet
  facet normal 0 0 1
    outer loop
      vertex 57.463 61 5
      vertex 2.5 60 5
      vertex 58.3274 60.6151 5
    endloop
  endfacet
  facet normal 0 0 1
    outer loop
      vertex 58.3274 60.6151 5
      vertex 2.5 60 5
      vertex 61.2214 60 5
    endloop
  endfacet
  facet normal -0 0 1
    outer loop
      vertex 79.587 61 5
      vertex 134.55 60 5
      vertex 134.55 61 5
    endloop
  endfacet
  facet normal -0 0 1
    outer loop
      vertex 78.7226 60.6151 5
      vertex 134.55 60 5
      vertex 79.587 61 5
    endloop
  endfacet
  facet normal 0 0 1
    outer loop
      vertex 134.55 60 5
      vertex 78.7226 60.6151 5
      vertex 75.8286 60 5
    endloop
  endfacet
  facet normal 0 -1 0
    outer loop
      vertex 57.2639 60 4
      vertex 2.5 60 5
      vertex 2.5 60 4
    endloop
  endfacet
  facet normal 0 -1 0
    outer loop
      vertex 2.5 60 5
      vertex 57.2639 60 4
      vertex 61.2214 60 5
    endloop
  endfacet
  facet normal 0 -1 -0
    outer loop
      vertex 61.2214 60 5
      vertex 57.2639 60 4
      vertex 61.2214 60 4
    endloop
  endfacet
  facet normal 0 -1 0
    outer loop
      vertex 79.7861 60 4
      vertex 75.8286 60 5
      vertex 75.8286 60 4
    endloop
  endfacet
  facet normal 0 -1 0
    outer loop
      vertex 75.8286 60 5
      vertex 79.7861 60 4
      vertex 134.55 60 5
    endloop
  endfacet
  facet normal 0 -1 -0
    outer loop
      vertex 134.55 60 5
      vertex 79.7861 60 4
      vertex 134.55 60 4
    endloop
  endfacet
  facet normal 0 1 0
    outer loop
      vertex 55.0179 61 4
      vertex 57.463 61 5
      vertex 57.463 61 4
    endloop
  endfacet
  facet normal 0 1 0
    outer loop
      vertex 57.463 61 5
      vertex 55.0179 61 4
      vertex 2.5 61 5
    endloop
  endfacet
  facet normal 0 1 0
    outer loop
      vertex 2.5 61 5
      vertex 55.0179 61 4
      vertex 2.5 61 4
    endloop
  endfacet
  facet normal 0 1 0
    outer loop
      vertex 82.0321 61 4
      vertex 134.55 61 5
      vertex 134.55 61 4
    endloop
  endfacet
  facet normal 0 1 0
    outer loop
      vertex 134.55 61 5
      vertex 82.0321 61 4
      vertex 79.587 61 5
    endloop
  endfacet
  facet normal 0 1 0
    outer loop
      vertex 79.587 61 5
      vertex 82.0321 61 4
      vertex 79.587 61 4
    endloop
  endfacet
  facet normal 0 1 0
    outer loop
      vertex 36.5452 81 4
      vertex 37.5909 81 5
      vertex 37.5909 81 4
    endloop
  endfacet
  facet normal 0 1 0
    outer loop
      vertex 37.5909 81 5
      vertex 36.5452 81 4
      vertex 2.5 81 5
    endloop
  endfacet
  facet normal 0 1 0
    outer loop
      vertex 2.5 81 5
      vertex 36.5452 81 4
      vertex 2.5 81 4
    endloop
  endfacet
  facet normal 0 1 0
    outer loop
      vertex 100.505 81 4
      vertex 134.55 81 5
      vertex 134.55 81 4
    endloop
  endfacet
  facet normal 0 1 0
    outer loop
      vertex 134.55 81 5
      vertex 100.505 81 4
      vertex 99.4591 81 5
    endloop
  endfacet
  facet normal 0 1 0
    outer loop
      vertex 99.4591 81 5
      vertex 100.505 81 4
      vertex 99.4591 81 4
    endloop
  endfacet
  facet normal 0 -1 0
    outer loop
      vertex 36.8702 80 4
      vertex 2.5 80 5
      vertex 2.5 80 4
    endloop
  endfacet
  facet normal 0 -1 0
    outer loop
      vertex 2.5 80 5
      vertex 36.8702 80 4
      vertex 37.9159 80 5
    endloop
  endfacet
  facet normal 0 -1 -0
    outer loop
      vertex 37.9159 80 5
      vertex 36.8702 80 4
      vertex 37.9159 80 4
    endloop
  endfacet
  facet normal 0 -1 0
    outer loop
      vertex 100.18 80 4
      vertex 99.1341 80 5
      vertex 99.1341 80 4
    endloop
  endfacet
  facet normal 0 -1 0
    outer loop
      vertex 99.1341 80 5
      vertex 100.18 80 4
      vertex 134.55 80 5
    endloop
  endfacet
  facet normal 0 -1 -0
    outer loop
      vertex 134.55 80 5
      vertex 100.18 80 4
      vertex 134.55 80 4
    endloop
  endfacet
  facet normal 0 -1 0
    outer loop
      vertex 35.5705 100 4
      vertex 2.5 100 5
      vertex 2.5 100 4
    endloop
  endfacet
  facet normal 0 -1 0
    outer loop
      vertex 2.5 100 5
      vertex 35.5705 100 4
      vertex 36.6162 100 5
    endloop
  endfacet
  facet normal 0 -1 -0
    outer loop
      vertex 36.6162 100 5
      vertex 35.5705 100 4
      vertex 36.6162 100 4
    endloop
  endfacet
  facet normal 0 -1 0
    outer loop
      vertex 101.48 100 4
      vertex 100.434 100 5
      vertex 100.434 100 4
    endloop
  endfacet
  facet normal 0 -1 0
    outer loop
      vertex 100.434 100 5
      vertex 101.48 100 4
      vertex 134.55 100 5
    endloop
  endfacet
  facet normal 0 -1 -0
    outer loop
      vertex 134.55 100 5
      vertex 101.48 100 4
      vertex 134.55 100 4
    endloop
  endfacet
  facet normal 0 1 0
    outer loop
      vertex 35.8954 101 4
      vertex 36.9411 101 5
      vertex 36.9411 101 4
    endloop
  endfacet
  facet normal 0 1 0
    outer loop
      vertex 36.9411 101 5
      vertex 35.8954 101 4
      vertex 2.5 101 5
    endloop
  endfacet
  facet normal 0 1 0
    outer loop
      vertex 2.5 101 5
      vertex 35.8954 101 4
      vertex 2.5 101 4
    endloop
  endfacet
  facet normal 0 1 0
    outer loop
      vertex 101.155 101 4
      vertex 134.55 101 5
      vertex 134.55 101 4
    endloop
  endfacet
  facet normal 0 1 0
    outer loop
      vertex 134.55 101 5
      vertex 101.155 101 4
      vertex 100.109 101 5
    endloop
  endfacet
  facet normal 0 1 0
    outer loop
      vertex 100.109 101 5
      vertex 101.155 101 4
      vertex 100.109 101 4
    endloop
  endfacet
  facet normal 0 -1 0
    outer loop
      vertex 49.5363 120 4
      vertex 2.5 120 5
      vertex 2.5 120 4
    endloop
  endfacet
  facet normal 0 -1 0
    outer loop
      vertex 2.5 120 5
      vertex 49.5363 120 4
      vertex 51.2283 120 5
    endloop
  endfacet
  facet normal 0 -1 -0
    outer loop
      vertex 51.2283 120 5
      vertex 49.5363 120 4
      vertex 51.2283 120 4
    endloop
  endfacet
  facet normal 0 -1 0
    outer loop
      vertex 87.5137 120 4
      vertex 85.8217 120 5
      vertex 85.8217 120 4
    endloop
  endfacet
  facet normal 0 -1 0
    outer loop
      vertex 85.8217 120 5
      vertex 87.5137 120 4
      vertex 134.55 120 5
    endloop
  endfacet
  facet normal 0 -1 -0
    outer loop
      vertex 134.55 120 5
      vertex 87.5137 120 4
      vertex 134.55 120 4
    endloop
  endfacet
  facet normal 0 1 0
    outer loop
      vertex 50.9127 121 4
      vertex 52.9709 121 5
      vertex 52.9709 121 4
    endloop
  endfacet
  facet normal 0 1 0
    outer loop
      vertex 52.9709 121 5
      vertex 50.9127 121 4
      vertex 2.5 121 5
    endloop
  endfacet
  facet normal 0 1 0
    outer loop
      vertex 2.5 121 5
      vertex 50.9127 121 4
      vertex 2.5 121 4
    endloop
  endfacet
  facet normal 0 1 0
    outer loop
      vertex 86.1373 121 4
      vertex 134.55 121 5
      vertex 134.55 121 4
    endloop
  endfacet
  facet normal 0 1 0
    outer loop
      vertex 134.55 121 5
      vertex 86.1373 121 4
      vertex 84.0791 121 5
    endloop
  endfacet
  facet normal 0 1 0
    outer loop
      vertex 84.0791 121 5
      vertex 86.1373 121 4
      vertex 84.0791 121 4
    endloop
  endfacet
  facet normal -0 0 1
    outer loop
      vertex 2.5 141 5
      vertex 134.55 140 5
      vertex 134.55 141 5
    endloop
  endfacet
  facet normal 0 0 1
    outer loop
      vertex 134.55 140 5
      vertex 2.5 141 5
      vertex 2.5 140 5
    endloop
  endfacet
  facet normal 0 1 -0
    outer loop
      vertex 134.55 141 4
      vertex 2.5 141 5
      vertex 134.55 141 5
    endloop
  endfacet
  facet normal 0 1 0
    outer loop
      vertex 2.5 141 5
      vertex 134.55 141 4
      vertex 2.5 141 4
    endloop
  endfacet
  facet normal 0 -1 0
    outer loop
      vertex 2.5 140 4
      vertex 134.55 140 5
      vertex 2.5 140 5
    endloop
  endfacet
  facet normal 0 -1 -0
    outer loop
      vertex 134.55 140 5
      vertex 2.5 140 4
      vertex 134.55 140 4
    endloop
  endfacet
  facet normal -0 0 1
    outer loop
      vertex 2.5 161 5
      vertex 134.55 160 5
      vertex 134.55 161 5
    endloop
  endfacet
  facet normal 0 0 1
    outer loop
      vertex 134.55 160 5
      vertex 2.5 161 5
      vertex 2.5 160 5
    endloop
  endfacet
  facet normal 0 1 -0
    outer loop
      vertex 134.55 161 4
      vertex 2.5 161 5
      vertex 134.55 161 5
    endloop
  endfacet
  facet normal 0 1 0
    outer loop
      vertex 2.5 161 5
      vertex 134.55 161 4
      vertex 2.5 161 4
    endloop
  endfacet
  facet normal 0 -1 0
    outer loop
      vertex 2.5 160 4
      vertex 134.55 160 5
      vertex 2.5 160 5
    endloop
  endfacet
  facet normal 0 -1 -0
    outer loop
      vertex 134.55 160 5
      vertex 2.5 160 4
      vertex 134.55 160 4
    endloop
  endfacet
  facet normal -0.994522 -0.104529 0
    outer loop
      vertex 101.525 92 0
      vertex 100.804 98.8611 4
      vertex 100.804 98.8611 0
    endloop
  endfacet
  facet normal -0.994522 -0.104529 0
    outer loop
      vertex 100.804 98.8611 4
      vertex 101.525 92 0
      vertex 101.525 92 4
    endloop
  endfacet
  facet normal 0.994522 0.104528 0
    outer loop
      vertex 36.2461 85.1389 4
      vertex 35.525 92 0
      vertex 35.525 92 4
    endloop
  endfacet
  facet normal 0.994522 0.104528 0
    outer loop
      vertex 35.525 92 0
      vertex 36.2461 85.1389 4
      vertex 36.2461 85.1389 0
    endloop
  endfacet
  facet normal 0 -1 0
    outer loop
      vertex 65.0756 124.819 0
      vertex 71.9744 124.819 4
      vertex 65.0756 124.819 4
    endloop
  endfacet
  facet normal 0 -1 -0
    outer loop
      vertex 71.9744 124.819 4
      vertex 65.0756 124.819 0
      vertex 71.9744 124.819 0
    endloop
  endfacet
  facet normal 0 1 -0
    outer loop
      vertex 71.9744 59.1808 0
      vertex 65.0756 59.1808 4
      vertex 71.9744 59.1808 4
    endloop
  endfacet
  facet normal 0 1 0
    outer loop
      vertex 65.0756 59.1808 4
      vertex 71.9744 59.1808 0
      vertex 65.0756 59.1808 0
    endloop
  endfacet
  facet normal 0.743145 0.66913 0
    outer loop
      vertex 46.4437 67.4762 4
      vertex 41.8274 72.6031 0
      vertex 41.8274 72.6031 4
    endloop
  endfacet
  facet normal 0.743145 0.66913 0
    outer loop
      vertex 41.8274 72.6031 0
      vertex 46.4437 67.4762 4
      vertex 46.4437 67.4762 0
    endloop
  endfacet
  facet normal -0.743145 -0.66913 0
    outer loop
      vertex 95.2226 111.397 0
      vertex 90.6063 116.524 4
      vertex 90.6063 116.524 0
    endloop
  endfacet
  facet normal -0.743145 -0.66913 0
    outer loop
      vertex 90.6063 116.524 4
      vertex 95.2226 111.397 0
      vertex 95.2226 111.397 4
    endloop
  endfacet
  facet normal -0.951056 -0.309017 0
    outer loop
      vertex 98.672 105.422 0
      vertex 100.109 101 4
      vertex 98.672 105.422 4
    endloop
  endfacet
  facet normal -0.951056 -0.309018 0
    outer loop
      vertex 100.109 101 4
      vertex 100.434 100 4
      vertex 100.109 101 5
    endloop
  endfacet
  facet normal -0.951056 -0.309017 -7.06199e-09
    outer loop
      vertex 100.804 98.8611 0
      vertex 100.109 101 4
      vertex 98.672 105.422 0
    endloop
  endfacet
  facet normal -0.951056 -0.309018 2.81665e-07
    outer loop
      vertex 100.109 101 4
      vertex 100.804 98.8611 0
      vertex 100.434 100 4
    endloop
  endfacet
  facet normal -0.951057 -0.309017 0
    outer loop
      vertex 100.434 100 4
      vertex 100.804 98.8611 0
      vertex 100.804 98.8611 4
    endloop
  endfacet
  facet normal -0.951056 -0.309018 0
    outer loop
      vertex 100.109 101 5
      vertex 100.434 100 4
      vertex 100.434 100 5
    endloop
  endfacet
  facet normal 0.743145 -0.66913 0
    outer loop
      vertex 41.8274 111.397 4
      vertex 46.4437 116.524 0
      vertex 46.4437 116.524 4
    endloop
  endfacet
  facet normal 0.743145 -0.66913 0
    outer loop
      vertex 46.4437 116.524 0
      vertex 41.8274 111.397 4
      vertex 41.8274 111.397 0
    endloop
  endfacet
  facet normal 0.406739 -0.913544 0
    outer loop
      vertex 52.025 120.579 5
      vertex 52.9709 121 4
      vertex 52.9709 121 5
    endloop
  endfacet
  facet normal 0.406739 -0.913544 0
    outer loop
      vertex 52.025 120.579 0
      vertex 52.9709 121 4
      vertex 52.025 120.579 5
    endloop
  endfacet
  facet normal 0.406737 -0.913545 5.9296e-07
    outer loop
      vertex 58.3274 123.385 0
      vertex 52.9709 121 4
      vertex 52.025 120.579 0
    endloop
  endfacet
  facet normal 0.406737 -0.913545 0
    outer loop
      vertex 52.9709 121 4
      vertex 58.3274 123.385 0
      vertex 58.3274 123.385 4
    endloop
  endfacet
  facet normal -0.743145 0.66913 0
    outer loop
      vertex 90.6063 67.4762 0
      vertex 95.2226 72.6031 4
      vertex 95.2226 72.6031 0
    endloop
  endfacet
  facet normal -0.743145 0.66913 0
    outer loop
      vertex 95.2226 72.6031 4
      vertex 90.6063 67.4762 0
      vertex 90.6063 67.4762 4
    endloop
  endfacet
  facet normal -0.866025 0.5 0
    outer loop
      vertex 95.2226 72.6031 0
      vertex 98.672 78.5777 4
      vertex 98.672 78.5777 0
    endloop
  endfacet
  facet normal -0.866025 0.5 0
    outer loop
      vertex 98.672 78.5777 4
      vertex 95.2226 72.6031 0
      vertex 95.2226 72.6031 4
    endloop
  endfacet
  facet normal 0.951056 0.309018 0
    outer loop
      vertex 37.5909 81 5
      vertex 37.9159 80 5
      vertex 37.5909 81 4
    endloop
  endfacet
  facet normal 0.951057 0.309017 0
    outer loop
      vertex 37.5909 81 4
      vertex 36.2461 85.1389 0
      vertex 36.2461 85.1389 4
    endloop
  endfacet
  facet normal 0.951056 0.309018 -0
    outer loop
      vertex 37.9159 80 4
      vertex 37.5909 81 4
      vertex 37.9159 80 5
    endloop
  endfacet
  facet normal 0.951056 0.309018 -6.04019e-07
    outer loop
      vertex 38.378 78.5777 0
      vertex 37.5909 81 4
      vertex 37.9159 80 4
    endloop
  endfacet
  facet normal 0.951057 0.309016 -0
    outer loop
      vertex 38.378 78.5777 0
      vertex 37.9159 80 4
      vertex 38.378 78.5777 4
    endloop
  endfacet
  facet normal 0.951057 0.309017 5.78132e-08
    outer loop
      vertex 37.5909 81 4
      vertex 38.378 78.5777 0
      vertex 36.2461 85.1389 0
    endloop
  endfacet
  facet normal -0.866025 -0.5 0
    outer loop
      vertex 98.672 105.422 0
      vertex 95.2226 111.397 4
      vertex 95.2226 111.397 0
    endloop
  endfacet
  facet normal -0.866025 -0.5 0
    outer loop
      vertex 95.2226 111.397 4
      vertex 98.672 105.422 0
      vertex 98.672 105.422 4
    endloop
  endfacet
  facet normal -0.406736 -0.913546 -0
    outer loop
      vertex 78.7226 123.385 4
      vertex 78.7226 123.385 0
      vertex 84.0791 121 4
    endloop
  endfacet
  facet normal -0.406739 -0.913544 0
    outer loop
      vertex 84.0791 121 4
      vertex 85.025 120.579 5
      vertex 84.0791 121 5
    endloop
  endfacet
  facet normal -0.406739 -0.913544 0
    outer loop
      vertex 84.0791 121 4
      vertex 85.025 120.579 0
      vertex 85.025 120.579 5
    endloop
  endfacet
  facet normal -0.406737 -0.913545 7.094e-07
    outer loop
      vertex 85.025 120.579 0
      vertex 84.0791 121 4
      vertex 78.7226 123.385 0
    endloop
  endfacet
  facet normal -0.207912 -0.978148 0
    outer loop
      vertex 71.9744 124.819 0
      vertex 78.7226 123.385 4
      vertex 71.9744 124.819 4
    endloop
  endfacet
  facet normal -0.207912 -0.978148 -0
    outer loop
      vertex 78.7226 123.385 4
      vertex 71.9744 124.819 0
      vertex 78.7226 123.385 0
    endloop
  endfacet
  facet normal -0.587784 -0.809018 0
    outer loop
      vertex 85.025 120.579 5
      vertex 85.8217 120 4
      vertex 85.8217 120 5
    endloop
  endfacet
  facet normal -0.587784 -0.809018 0
    outer loop
      vertex 85.025 120.579 0
      vertex 85.8217 120 4
      vertex 85.025 120.579 5
    endloop
  endfacet
  facet normal -0.587785 -0.809017 2.33381e-07
    outer loop
      vertex 90.6063 116.524 0
      vertex 85.8217 120 4
      vertex 85.025 120.579 0
    endloop
  endfacet
  facet normal -0.587785 -0.809017 0
    outer loop
      vertex 85.8217 120 4
      vertex 90.6063 116.524 0
      vertex 90.6063 116.524 4
    endloop
  endfacet
  facet normal 0.951056 -0.309018 0
    outer loop
      vertex 36.9411 101 5
      vertex 36.6162 100 5
      vertex 36.9411 101 4
    endloop
  endfacet
  facet normal 0.951057 -0.309017 0
    outer loop
      vertex 36.9411 101 4
      vertex 38.378 105.422 0
      vertex 38.378 105.422 4
    endloop
  endfacet
  facet normal 0.951056 -0.309018 0
    outer loop
      vertex 36.6162 100 4
      vertex 36.9411 101 4
      vertex 36.6162 100 5
    endloop
  endfacet
  facet normal 0.951056 -0.309018 2.81665e-07
    outer loop
      vertex 36.2461 98.8611 0
      vertex 36.9411 101 4
      vertex 36.6162 100 4
    endloop
  endfacet
  facet normal 0.951057 -0.309017 0
    outer loop
      vertex 36.2461 98.8611 0
      vertex 36.6162 100 4
      vertex 36.2461 98.8611 4
    endloop
  endfacet
  facet normal 0.951057 -0.309017 -3.02737e-07
    outer loop
      vertex 36.9411 101 4
      vertex 36.2461 98.8611 0
      vertex 38.378 105.422 0
    endloop
  endfacet
  facet normal 0.866025 -0.5 0
    outer loop
      vertex 38.378 105.422 4
      vertex 41.8274 111.397 0
      vertex 41.8274 111.397 4
    endloop
  endfacet
  facet normal 0.866025 -0.5 0
    outer loop
      vertex 41.8274 111.397 0
      vertex 38.378 105.422 4
      vertex 38.378 105.422 0
    endloop
  endfacet
  facet normal 0.994522 -0.104528 0
    outer loop
      vertex 35.525 92 4
      vertex 36.2461 98.8611 0
      vertex 36.2461 98.8611 4
    endloop
  endfacet
  facet normal 0.994522 -0.104528 0
    outer loop
      vertex 36.2461 98.8611 0
      vertex 35.525 92 4
      vertex 35.525 92 0
    endloop
  endfacet
  facet normal 0.587785 -0.809017 0
    outer loop
      vertex 46.4437 116.524 4
      vertex 46.4437 116.524 0
      vertex 51.2283 120 4
    endloop
  endfacet
  facet normal 0.587782 -0.809019 0
    outer loop
      vertex 51.2283 120 4
      vertex 52.025 120.579 5
      vertex 51.2283 120 5
    endloop
  endfacet
  facet normal 0.587782 -0.809019 0
    outer loop
      vertex 51.2283 120 4
      vertex 52.025 120.579 0
      vertex 52.025 120.579 5
    endloop
  endfacet
  facet normal 0.587784 -0.809018 6.33904e-07
    outer loop
      vertex 52.025 120.579 0
      vertex 51.2283 120 4
      vertex 46.4437 116.524 0
    endloop
  endfacet
  facet normal 0.207912 -0.978148 0
    outer loop
      vertex 58.3274 123.385 0
      vertex 65.0756 124.819 4
      vertex 58.3274 123.385 4
    endloop
  endfacet
  facet normal 0.207912 -0.978148 0
    outer loop
      vertex 65.0756 124.819 4
      vertex 58.3274 123.385 0
      vertex 65.0756 124.819 0
    endloop
  endfacet
  facet normal -0.994522 0.104529 0
    outer loop
      vertex 100.804 85.1389 0
      vertex 101.525 92 4
      vertex 101.525 92 0
    endloop
  endfacet
  facet normal -0.994522 0.104529 0
    outer loop
      vertex 101.525 92 4
      vertex 100.804 85.1389 0
      vertex 100.804 85.1389 4
    endloop
  endfacet
  facet normal -0.207912 0.978147 0
    outer loop
      vertex 78.7226 60.6151 5
      vertex 75.8286 60 4
      vertex 75.8286 60 5
    endloop
  endfacet
  facet normal -0.207912 0.978147 0
    outer loop
      vertex 78.7226 60.6151 0
      vertex 75.8286 60 4
      vertex 78.7226 60.6151 5
    endloop
  endfacet
  facet normal -0.207912 0.978148 4.331e-07
    outer loop
      vertex 71.9744 59.1808 0
      vertex 75.8286 60 4
      vertex 78.7226 60.6151 0
    endloop
  endfacet
  facet normal -0.207911 0.978148 0
    outer loop
      vertex 75.8286 60 4
      vertex 71.9744 59.1808 0
      vertex 71.9744 59.1808 4
    endloop
  endfacet
  facet normal -0.587785 0.809017 0
    outer loop
      vertex 90.6063 67.4762 0
      vertex 85.025 63.4212 4
      vertex 90.6063 67.4762 4
    endloop
  endfacet
  facet normal -0.587785 0.809017 0
    outer loop
      vertex 85.025 63.4212 4
      vertex 90.6063 67.4762 0
      vertex 85.025 63.4212 0
    endloop
  endfacet
  facet normal 0.587785 0.809017 -0
    outer loop
      vertex 52.025 63.4212 0
      vertex 46.4437 67.4762 4
      vertex 52.025 63.4212 4
    endloop
  endfacet
  facet normal 0.587785 0.809017 0
    outer loop
      vertex 46.4437 67.4762 4
      vertex 52.025 63.4212 0
      vertex 46.4437 67.4762 0
    endloop
  endfacet
  facet normal 0.207911 0.978148 0
    outer loop
      vertex 65.0756 59.1808 4
      vertex 65.0756 59.1808 0
      vertex 61.2214 60 4
    endloop
  endfacet
  facet normal 0.207912 0.978148 -0
    outer loop
      vertex 61.2214 60 4
      vertex 58.3274 60.6151 5
      vertex 61.2214 60 5
    endloop
  endfacet
  facet normal 0.207912 0.978148 4.04887e-07
    outer loop
      vertex 58.3274 60.6151 0
      vertex 61.2214 60 4
      vertex 65.0756 59.1808 0
    endloop
  endfacet
  facet normal 0.207912 0.978148 0
    outer loop
      vertex 61.2214 60 4
      vertex 58.3274 60.6151 0
      vertex 58.3274 60.6151 5
    endloop
  endfacet
  facet normal 0.866025 0.5 0
    outer loop
      vertex 41.8274 72.6031 4
      vertex 38.378 78.5777 0
      vertex 38.378 78.5777 4
    endloop
  endfacet
  facet normal 0.866025 0.5 0
    outer loop
      vertex 38.378 78.5777 0
      vertex 41.8274 72.6031 4
      vertex 41.8274 72.6031 0
    endloop
  endfacet
  facet normal -0.406737 0.913545 0
    outer loop
      vertex 85.025 63.4212 4
      vertex 85.025 63.4212 0
      vertex 79.587 61 4
    endloop
  endfacet
  facet normal -0.406735 0.913546 0
    outer loop
      vertex 79.587 61 4
      vertex 78.7226 60.6151 5
      vertex 79.587 61 5
    endloop
  endfacet
  facet normal -0.406735 0.913546 0
    outer loop
      vertex 79.587 61 4
      vertex 78.7226 60.6151 0
      vertex 78.7226 60.6151 5
    endloop
  endfacet
  facet normal -0.406736 0.913546 4.42119e-07
    outer loop
      vertex 78.7226 60.6151 0
      vertex 79.587 61 4
      vertex 85.025 63.4212 0
    endloop
  endfacet
  facet normal -0.951056 0.309018 0
    outer loop
      vertex 100.804 85.1389 0
      vertex 99.4591 81 4
      vertex 100.804 85.1389 4
    endloop
  endfacet
  facet normal -0.951058 0.309011 0
    outer loop
      vertex 99.4591 81 4
      vertex 99.1341 80 4
      vertex 99.4591 81 5
    endloop
  endfacet
  facet normal -0.951056 0.309017 -2.77037e-07
    outer loop
      vertex 98.672 78.5777 0
      vertex 99.4591 81 4
      vertex 100.804 85.1389 0
    endloop
  endfacet
  facet normal -0.951058 0.309011 3.79005e-06
    outer loop
      vertex 99.4591 81 4
      vertex 98.672 78.5777 0
      vertex 99.1341 80 4
    endloop
  endfacet
  facet normal -0.951055 0.309021 0
    outer loop
      vertex 99.1341 80 4
      vertex 98.672 78.5777 0
      vertex 98.672 78.5777 4
    endloop
  endfacet
  facet normal -0.951058 0.309011 0
    outer loop
      vertex 99.4591 81 5
      vertex 99.1341 80 4
      vertex 99.1341 80 5
    endloop
  endfacet
  facet normal 0.406736 0.913546 0
    outer loop
      vertex 58.3274 60.6151 5
      vertex 57.463 61 4
      vertex 57.463 61 5
    endloop
  endfacet
  facet normal 0.406736 0.913546 -0
    outer loop
      vertex 58.3274 60.6151 0
      vertex 57.463 61 4
      vertex 58.3274 60.6151 5
    endloop
  endfacet
  facet normal 0.406737 0.913545 1.60629e-07
    outer loop
      vertex 52.025 63.4212 0
      vertex 57.463 61 4
      vertex 58.3274 60.6151 0
    endloop
  endfacet
  facet normal 0.406737 0.913545 0
    outer loop
      vertex 57.463 61 4
      vertex 52.025 63.4212 0
      vertex 52.025 63.4212 4
    endloop
  endfacet
endsolid OpenSCAD_Model
