solid OpenSCAD_Model
  facet normal -1 0 0
    outer loop
      vertex 0 0 0
      vertex 0 186 8
      vertex 0 186 0
    endloop
  endfacet
  facet normal -1 -0 0
    outer loop
      vertex 0 186 8
      vertex 0 0 0
      vertex 0 0 8
    endloop
  endfacet
  facet normal 0 0 1
    outer loop
      vertex 173.575 186 8
      vertex 171.075 183.5 8
      vertex 173.575 0 8
    endloop
  endfacet
  facet normal 0 0 1
    outer loop
      vertex 173.575 186 8
      vertex 2.5 183.5 8
      vertex 171.075 183.5 8
    endloop
  endfacet
  facet normal 0 0 1
    outer loop
      vertex 2.5 183.5 8
      vertex 0 186 8
      vertex 2.5 2.5 8
    endloop
  endfacet
  facet normal -0 0 1
    outer loop
      vertex 0 186 8
      vertex 2.5 183.5 8
      vertex 173.575 186 8
    endloop
  endfacet
  facet normal -0 0 1
    outer loop
      vertex 171.075 2.5 8
      vertex 173.575 0 8
      vertex 171.075 183.5 8
    endloop
  endfacet
  facet normal -0 0 1
    outer loop
      vertex 2.5 2.5 8
      vertex 173.575 0 8
      vertex 171.075 2.5 8
    endloop
  endfacet
  facet normal 0 0 1
    outer loop
      vertex 2.5 2.5 8
      vertex 0 0 8
      vertex 173.575 0 8
    endloop
  endfacet
  facet normal 0 0 1
    outer loop
      vertex 0 0 8
      vertex 2.5 2.5 8
      vertex 0 186 8
    endloop
  endfacet
  facet normal 1 -0 0
    outer loop
      vertex 173.575 0 8
      vertex 173.575 186 0
      vertex 173.575 186 8
    endloop
  endfacet
  facet normal 1 0 0
    outer loop
      vertex 173.575 186 0
      vertex 173.575 0 8
      vertex 173.575 0 0
    endloop
  endfacet
  facet normal 0 0 -1
    outer loop
      vertex 173.575 0 0
      vertex 119.787 92 0
      vertex 173.575 186 0
    endloop
  endfacet
  facet normal 0 0 -1
    outer loop
      vertex 173.575 0 0
      vertex 119.066 85.1389 0
      vertex 119.787 92 0
    endloop
  endfacet
  facet normal 0 0 -1
    outer loop
      vertex 173.575 0 0
      vertex 116.935 78.5777 0
      vertex 119.066 85.1389 0
    endloop
  endfacet
  facet normal 0 0 -1
    outer loop
      vertex 173.575 0 0
      vertex 113.485 72.6031 0
      vertex 116.935 78.5777 0
    endloop
  endfacet
  facet normal 0 0 -1
    outer loop
      vertex 173.575 0 0
      vertex 108.869 67.4762 0
      vertex 113.485 72.6031 0
    endloop
  endfacet
  facet normal 0 0 -1
    outer loop
      vertex 173.575 0 0
      vertex 103.287 63.4212 0
      vertex 108.869 67.4762 0
    endloop
  endfacet
  facet normal 0 0 -1
    outer loop
      vertex 173.575 0 0
      vertex 96.9851 60.6151 0
      vertex 103.287 63.4212 0
    endloop
  endfacet
  facet normal 0 0 -1
    outer loop
      vertex 173.575 0 0
      vertex 90.2369 59.1808 0
      vertex 96.9851 60.6151 0
    endloop
  endfacet
  facet normal 0 0 -1
    outer loop
      vertex 173.575 0 0
      vertex 83.3381 59.1808 0
      vertex 90.2369 59.1808 0
    endloop
  endfacet
  facet normal 0 0 -1
    outer loop
      vertex 0 0 0
      vertex 83.3381 59.1808 0
      vertex 173.575 0 0
    endloop
  endfacet
  facet normal -0 0 -1
    outer loop
      vertex 83.3381 59.1808 0
      vertex 0 0 0
      vertex 76.5899 60.6151 0
    endloop
  endfacet
  facet normal -0 0 -1
    outer loop
      vertex 54.5086 85.1389 0
      vertex 0 0 0
      vertex 53.7875 92 0
    endloop
  endfacet
  facet normal -0 0 -1
    outer loop
      vertex 56.6405 78.5777 0
      vertex 0 0 0
      vertex 54.5086 85.1389 0
    endloop
  endfacet
  facet normal -0 0 -1
    outer loop
      vertex 60.0899 72.6031 0
      vertex 0 0 0
      vertex 56.6405 78.5777 0
    endloop
  endfacet
  facet normal -0 0 -1
    outer loop
      vertex 64.7062 67.4762 0
      vertex 0 0 0
      vertex 60.0899 72.6031 0
    endloop
  endfacet
  facet normal -0 0 -1
    outer loop
      vertex 70.2875 63.4212 0
      vertex 0 0 0
      vertex 64.7062 67.4762 0
    endloop
  endfacet
  facet normal -0 0 -1
    outer loop
      vertex 76.5899 60.6151 0
      vertex 0 0 0
      vertex 70.2875 63.4212 0
    endloop
  endfacet
  facet normal 0 0 -1
    outer loop
      vertex 119.066 98.8611 0
      vertex 173.575 186 0
      vertex 119.787 92 0
    endloop
  endfacet
  facet normal 0 0 -1
    outer loop
      vertex 116.935 105.422 0
      vertex 173.575 186 0
      vertex 119.066 98.8611 0
    endloop
  endfacet
  facet normal 0 0 -1
    outer loop
      vertex 113.485 111.397 0
      vertex 173.575 186 0
      vertex 116.935 105.422 0
    endloop
  endfacet
  facet normal 0 0 -1
    outer loop
      vertex 108.869 116.524 0
      vertex 173.575 186 0
      vertex 113.485 111.397 0
    endloop
  endfacet
  facet normal 0 0 -1
    outer loop
      vertex 103.287 120.579 0
      vertex 173.575 186 0
      vertex 108.869 116.524 0
    endloop
  endfacet
  facet normal 0 0 -1
    outer loop
      vertex 96.9851 123.385 0
      vertex 173.575 186 0
      vertex 103.287 120.579 0
    endloop
  endfacet
  facet normal 0 0 -1
    outer loop
      vertex 90.2369 124.819 0
      vertex 173.575 186 0
      vertex 96.9851 123.385 0
    endloop
  endfacet
  facet normal 0 0 -1
    outer loop
      vertex 83.3381 124.819 0
      vertex 173.575 186 0
      vertex 90.2369 124.819 0
    endloop
  endfacet
  facet normal 0 0 -1
    outer loop
      vertex 0 186 0
      vertex 83.3381 124.819 0
      vertex 76.5899 123.385 0
    endloop
  endfacet
  facet normal 0 0 -1
    outer loop
      vertex 0 186 0
      vertex 76.5899 123.385 0
      vertex 70.2875 120.579 0
    endloop
  endfacet
  facet normal 0 0 -1
    outer loop
      vertex 0 186 0
      vertex 53.7875 92 0
      vertex 0 0 0
    endloop
  endfacet
  facet normal 0 0 -1
    outer loop
      vertex 53.7875 92 0
      vertex 0 186 0
      vertex 54.5086 98.8611 0
    endloop
  endfacet
  facet normal 0 0 -1
    outer loop
      vertex 83.3381 124.819 0
      vertex 0 186 0
      vertex 173.575 186 0
    endloop
  endfacet
  facet normal 0 0 -1
    outer loop
      vertex 64.7062 116.524 0
      vertex 0 186 0
      vertex 70.2875 120.579 0
    endloop
  endfacet
  facet normal 0 0 -1
    outer loop
      vertex 60.0899 111.397 0
      vertex 0 186 0
      vertex 64.7062 116.524 0
    endloop
  endfacet
  facet normal 0 0 -1
    outer loop
      vertex 56.6405 105.422 0
      vertex 0 186 0
      vertex 60.0899 111.397 0
    endloop
  endfacet
  facet normal 0 0 -1
    outer loop
      vertex 54.5086 98.8611 0
      vertex 0 186 0
      vertex 56.6405 105.422 0
    endloop
  endfacet
  facet normal 0 -1 0
    outer loop
      vertex 0 0 0
      vertex 173.575 0 8
      vertex 0 0 8
    endloop
  endfacet
  facet normal 0 -1 -0
    outer loop
      vertex 173.575 0 8
      vertex 0 0 0
      vertex 173.575 0 0
    endloop
  endfacet
  facet normal 0 1 -0
    outer loop
      vertex 173.575 186 0
      vertex 0 186 8
      vertex 173.575 186 8
    endloop
  endfacet
  facet normal 0 1 0
    outer loop
      vertex 0 186 8
      vertex 173.575 186 0
      vertex 0 186 0
    endloop
  endfacet
  facet normal 1 0 0
    outer loop
      vertex 2.5 183.5 8
      vertex 2.5 161 5
      vertex 2.5 183.5 4
    endloop
  endfacet
  facet normal 1 0 0
    outer loop
      vertex 2.5 183.5 8
      vertex 2.5 160 5
      vertex 2.5 161 5
    endloop
  endfacet
  facet normal 1 0 0
    outer loop
      vertex 2.5 160 5
      vertex 2.5 141 5
      vertex 2.5 160 4
    endloop
  endfacet
  facet normal 1 0 0
    outer loop
      vertex 2.5 183.5 8
      vertex 2.5 141 5
      vertex 2.5 160 5
    endloop
  endfacet
  facet normal 1 0 0
    outer loop
      vertex 2.5 183.5 8
      vertex 2.5 140 5
      vertex 2.5 141 5
    endloop
  endfacet
  facet normal 1 0 0
    outer loop
      vertex 2.5 140 5
      vertex 2.5 121 5
      vertex 2.5 140 4
    endloop
  endfacet
  facet normal 1 0 0
    outer loop
      vertex 2.5 183.5 8
      vertex 2.5 121 5
      vertex 2.5 140 5
    endloop
  endfacet
  facet normal 1 0 0
    outer loop
      vertex 2.5 183.5 8
      vertex 2.5 120 5
      vertex 2.5 121 5
    endloop
  endfacet
  facet normal 1 0 0
    outer loop
      vertex 2.5 120 5
      vertex 2.5 101 5
      vertex 2.5 120 4
    endloop
  endfacet
  facet normal 1 0 0
    outer loop
      vertex 2.5 183.5 8
      vertex 2.5 101 5
      vertex 2.5 120 5
    endloop
  endfacet
  facet normal 1 0 0
    outer loop
      vertex 2.5 183.5 8
      vertex 2.5 100 5
      vertex 2.5 101 5
    endloop
  endfacet
  facet normal 1 0 0
    outer loop
      vertex 2.5 100 5
      vertex 2.5 81 5
      vertex 2.5 100 4
    endloop
  endfacet
  facet normal 1 0 0
    outer loop
      vertex 2.5 183.5 8
      vertex 2.5 81 5
      vertex 2.5 100 5
    endloop
  endfacet
  facet normal 1 0 0
    outer loop
      vertex 2.5 183.5 8
      vertex 2.5 80 5
      vertex 2.5 81 5
    endloop
  endfacet
  facet normal 1 0 0
    outer loop
      vertex 2.5 80 5
      vertex 2.5 61 5
      vertex 2.5 80 4
    endloop
  endfacet
  facet normal 1 -0 0
    outer loop
      vertex 2.5 2.5 8
      vertex 2.5 80 5
      vertex 2.5 183.5 8
    endloop
  endfacet
  facet normal 1 0 0
    outer loop
      vertex 2.5 80 5
      vertex 2.5 2.5 8
      vertex 2.5 61 5
    endloop
  endfacet
  facet normal 1 0 0
    outer loop
      vertex 2.5 60 5
      vertex 2.5 41 5
      vertex 2.5 60 4
    endloop
  endfacet
  facet normal 1 0 0
    outer loop
      vertex 2.5 61 5
      vertex 2.5 2.5 8
      vertex 2.5 60 5
    endloop
  endfacet
  facet normal 1 0 0
    outer loop
      vertex 2.5 60 5
      vertex 2.5 2.5 8
      vertex 2.5 41 5
    endloop
  endfacet
  facet normal 1 0 0
    outer loop
      vertex 2.5 40 5
      vertex 2.5 21 5
      vertex 2.5 40 4
    endloop
  endfacet
  facet normal 1 0 0
    outer loop
      vertex 2.5 41 5
      vertex 2.5 2.5 8
      vertex 2.5 40 5
    endloop
  endfacet
  facet normal 1 0 0
    outer loop
      vertex 2.5 40 5
      vertex 2.5 2.5 8
      vertex 2.5 21 5
    endloop
  endfacet
  facet normal 1 0 0
    outer loop
      vertex 2.5 21 5
      vertex 2.5 2.5 8
      vertex 2.5 20 5
    endloop
  endfacet
  facet normal 1 0 0
    outer loop
      vertex 2.5 2.5 4
      vertex 2.5 20 5
      vertex 2.5 2.5 8
    endloop
  endfacet
  facet normal 1 0 0
    outer loop
      vertex 2.5 20 5
      vertex 2.5 2.5 4
      vertex 2.5 20 4
    endloop
  endfacet
  facet normal 1 0 0
    outer loop
      vertex 2.5 183.5 4
      vertex 2.5 161 5
      vertex 2.5 161 4
    endloop
  endfacet
  facet normal 1 0 0
    outer loop
      vertex 2.5 160 4
      vertex 2.5 141 5
      vertex 2.5 141 4
    endloop
  endfacet
  facet normal 1 0 0
    outer loop
      vertex 2.5 140 4
      vertex 2.5 121 5
      vertex 2.5 121 4
    endloop
  endfacet
  facet normal 1 0 0
    outer loop
      vertex 2.5 120 4
      vertex 2.5 101 5
      vertex 2.5 101 4
    endloop
  endfacet
  facet normal 1 0 0
    outer loop
      vertex 2.5 100 4
      vertex 2.5 81 5
      vertex 2.5 81 4
    endloop
  endfacet
  facet normal 1 0 0
    outer loop
      vertex 2.5 80 4
      vertex 2.5 61 5
      vertex 2.5 61 4
    endloop
  endfacet
  facet normal 1 0 0
    outer loop
      vertex 2.5 60 4
      vertex 2.5 41 5
      vertex 2.5 41 4
    endloop
  endfacet
  facet normal 1 0 0
    outer loop
      vertex 2.5 40 4
      vertex 2.5 21 5
      vertex 2.5 21 4
    endloop
  endfacet
  facet normal -1 0 0
    outer loop
      vertex 171.075 20 4
      vertex 171.075 2.5 4
      vertex 171.075 20 5
    endloop
  endfacet
  facet normal -1 0 0
    outer loop
      vertex 171.075 40 4
      vertex 171.075 21 4
      vertex 171.075 40 5
    endloop
  endfacet
  facet normal -1 0 0
    outer loop
      vertex 171.075 60 4
      vertex 171.075 41 4
      vertex 171.075 60 5
    endloop
  endfacet
  facet normal -1 0 0
    outer loop
      vertex 171.075 80 4
      vertex 171.075 61 4
      vertex 171.075 80 5
    endloop
  endfacet
  facet normal -1 0 0
    outer loop
      vertex 171.075 100 4
      vertex 171.075 81 4
      vertex 171.075 100 5
    endloop
  endfacet
  facet normal -1 0 0
    outer loop
      vertex 171.075 120 4
      vertex 171.075 101 4
      vertex 171.075 120 5
    endloop
  endfacet
  facet normal -1 0 0
    outer loop
      vertex 171.075 140 4
      vertex 171.075 121 4
      vertex 171.075 140 5
    endloop
  endfacet
  facet normal -1 0 0
    outer loop
      vertex 171.075 160 4
      vertex 171.075 141 4
      vertex 171.075 160 5
    endloop
  endfacet
  facet normal -1 0 0
    outer loop
      vertex 171.075 161 5
      vertex 171.075 183.5 4
      vertex 171.075 161 4
    endloop
  endfacet
  facet normal -1 0 0
    outer loop
      vertex 171.075 183.5 4
      vertex 171.075 161 5
      vertex 171.075 183.5 8
    endloop
  endfacet
  facet normal -1 0 0
    outer loop
      vertex 171.075 160 5
      vertex 171.075 183.5 8
      vertex 171.075 161 5
    endloop
  endfacet
  facet normal -1 0 0
    outer loop
      vertex 171.075 141 5
      vertex 171.075 160 5
      vertex 171.075 141 4
    endloop
  endfacet
  facet normal -1 0 0
    outer loop
      vertex 171.075 160 5
      vertex 171.075 141 5
      vertex 171.075 183.5 8
    endloop
  endfacet
  facet normal -1 0 0
    outer loop
      vertex 171.075 140 5
      vertex 171.075 183.5 8
      vertex 171.075 141 5
    endloop
  endfacet
  facet normal -1 0 0
    outer loop
      vertex 171.075 121 5
      vertex 171.075 140 5
      vertex 171.075 121 4
    endloop
  endfacet
  facet normal -1 0 0
    outer loop
      vertex 171.075 140 5
      vertex 171.075 121 5
      vertex 171.075 183.5 8
    endloop
  endfacet
  facet normal -1 0 0
    outer loop
      vertex 171.075 120 5
      vertex 171.075 183.5 8
      vertex 171.075 121 5
    endloop
  endfacet
  facet normal -1 0 0
    outer loop
      vertex 171.075 101 5
      vertex 171.075 120 5
      vertex 171.075 101 4
    endloop
  endfacet
  facet normal -1 0 0
    outer loop
      vertex 171.075 101 5
      vertex 171.075 183.5 8
      vertex 171.075 120 5
    endloop
  endfacet
  facet normal -1 0 0
    outer loop
      vertex 171.075 100 5
      vertex 171.075 183.5 8
      vertex 171.075 101 5
    endloop
  endfacet
  facet normal -1 0 0
    outer loop
      vertex 171.075 81 5
      vertex 171.075 100 5
      vertex 171.075 81 4
    endloop
  endfacet
  facet normal -1 0 0
    outer loop
      vertex 171.075 81 5
      vertex 171.075 183.5 8
      vertex 171.075 100 5
    endloop
  endfacet
  facet normal -1 0 0
    outer loop
      vertex 171.075 80 5
      vertex 171.075 183.5 8
      vertex 171.075 81 5
    endloop
  endfacet
  facet normal -1 0 0
    outer loop
      vertex 171.075 61 5
      vertex 171.075 80 5
      vertex 171.075 61 4
    endloop
  endfacet
  facet normal -1 0 0
    outer loop
      vertex 171.075 2.5 8
      vertex 171.075 80 5
      vertex 171.075 61 5
    endloop
  endfacet
  facet normal -1 0 0
    outer loop
      vertex 171.075 2.5 8
      vertex 171.075 61 5
      vertex 171.075 60 5
    endloop
  endfacet
  facet normal -1 0 0
    outer loop
      vertex 171.075 41 5
      vertex 171.075 60 5
      vertex 171.075 41 4
    endloop
  endfacet
  facet normal -1 0 0
    outer loop
      vertex 171.075 2.5 8
      vertex 171.075 60 5
      vertex 171.075 41 5
    endloop
  endfacet
  facet normal -1 0 0
    outer loop
      vertex 171.075 2.5 8
      vertex 171.075 41 5
      vertex 171.075 40 5
    endloop
  endfacet
  facet normal -1 0 0
    outer loop
      vertex 171.075 21 5
      vertex 171.075 40 5
      vertex 171.075 21 4
    endloop
  endfacet
  facet normal -1 0 0
    outer loop
      vertex 171.075 2.5 8
      vertex 171.075 40 5
      vertex 171.075 21 5
    endloop
  endfacet
  facet normal -1 0 0
    outer loop
      vertex 171.075 2.5 8
      vertex 171.075 21 5
      vertex 171.075 20 5
    endloop
  endfacet
  facet normal -1 0 0
    outer loop
      vertex 171.075 80 5
      vertex 171.075 2.5 8
      vertex 171.075 183.5 8
    endloop
  endfacet
  facet normal -1 0 0
    outer loop
      vertex 171.075 2.5 8
      vertex 171.075 20 5
      vertex 171.075 2.5 4
    endloop
  endfacet
  facet normal 0 -1 0
    outer loop
      vertex 2.5 183.5 4
      vertex 171.075 183.5 8
      vertex 2.5 183.5 8
    endloop
  endfacet
  facet normal 0 -1 -0
    outer loop
      vertex 171.075 183.5 8
      vertex 2.5 183.5 4
      vertex 171.075 183.5 4
    endloop
  endfacet
  facet normal 0 0 1
    outer loop
      vertex 119.787 92 4
      vertex 120.787 92 4
      vertex 120.045 99.069 4
    endloop
  endfacet
  facet normal 0 0 1
    outer loop
      vertex 120.787 92 4
      vertex 119.787 92 4
      vertex 120.045 84.931 4
    endloop
  endfacet
  facet normal 0 0 1
    outer loop
      vertex 119.066 98.8611 4
      vertex 120.045 99.069 4
      vertex 119.742 100 4
    endloop
  endfacet
  facet normal 0 0 1
    outer loop
      vertex 120.045 99.069 4
      vertex 119.066 98.8611 4
      vertex 119.787 92 4
    endloop
  endfacet
  facet normal 0 -0 1
    outer loop
      vertex 119.066 98.8611 4
      vertex 119.742 100 4
      vertex 118.696 100 4
    endloop
  endfacet
  facet normal -0 0 1
    outer loop
      vertex 119.066 85.1389 4
      vertex 120.045 84.931 4
      vertex 119.787 92 4
    endloop
  endfacet
  facet normal 0 0 1
    outer loop
      vertex 119.066 85.1389 4
      vertex 118.767 81 4
      vertex 120.045 84.931 4
    endloop
  endfacet
  facet normal 0 -0 1
    outer loop
      vertex 118.767 81 4
      vertex 119.066 85.1389 4
      vertex 117.722 81 4
    endloop
  endfacet
  facet normal 0 0 1
    outer loop
      vertex 171.075 100 4
      vertex 120.787 92 4
      vertex 171.075 81 4
    endloop
  endfacet
  facet normal 0 0 1
    outer loop
      vertex 171.075 100 4
      vertex 120.045 99.069 4
      vertex 120.787 92 4
    endloop
  endfacet
  facet normal 0 -0 1
    outer loop
      vertex 120.045 99.069 4
      vertex 171.075 100 4
      vertex 119.742 100 4
    endloop
  endfacet
  facet normal -0 0 1
    outer loop
      vertex 120.045 84.931 4
      vertex 171.075 81 4
      vertex 120.787 92 4
    endloop
  endfacet
  facet normal 0 0 1
    outer loop
      vertex 171.075 81 4
      vertex 120.045 84.931 4
      vertex 118.767 81 4
    endloop
  endfacet
  facet normal 0 0 1
    outer loop
      vertex 117.848 105.829 4
      vertex 118.371 101 4
      vertex 119.417 101 4
    endloop
  endfacet
  facet normal 0 0 1
    outer loop
      vertex 117.848 105.829 4
      vertex 116.935 105.422 4
      vertex 118.371 101 4
    endloop
  endfacet
  facet normal 0 0 1
    outer loop
      vertex 114.294 111.985 4
      vertex 116.935 105.422 4
      vertex 117.848 105.829 4
    endloop
  endfacet
  facet normal 0 0 1
    outer loop
      vertex 114.294 111.985 4
      vertex 113.485 111.397 4
      vertex 116.935 105.422 4
    endloop
  endfacet
  facet normal 0 0 1
    outer loop
      vertex 109.538 117.267 4
      vertex 113.485 111.397 4
      vertex 114.294 111.985 4
    endloop
  endfacet
  facet normal 0 0 1
    outer loop
      vertex 109.538 117.267 4
      vertex 108.869 116.524 4
      vertex 113.485 111.397 4
    endloop
  endfacet
  facet normal 0 0 1
    outer loop
      vertex 105.776 120 4
      vertex 108.869 116.524 4
      vertex 109.538 117.267 4
    endloop
  endfacet
  facet normal 0 0 1
    outer loop
      vertex 108.869 116.524 4
      vertex 105.776 120 4
      vertex 104.084 120 4
    endloop
  endfacet
  facet normal 0 0 1
    outer loop
      vertex 171.075 120 4
      vertex 119.417 101 4
      vertex 171.075 101 4
    endloop
  endfacet
  facet normal 0 0 1
    outer loop
      vertex 171.075 120 4
      vertex 117.848 105.829 4
      vertex 119.417 101 4
    endloop
  endfacet
  facet normal 0 0 1
    outer loop
      vertex 171.075 120 4
      vertex 114.294 111.985 4
      vertex 117.848 105.829 4
    endloop
  endfacet
  facet normal 0 0 1
    outer loop
      vertex 171.075 120 4
      vertex 109.538 117.267 4
      vertex 114.294 111.985 4
    endloop
  endfacet
  facet normal 0 -0 1
    outer loop
      vertex 109.538 117.267 4
      vertex 171.075 120 4
      vertex 105.776 120 4
    endloop
  endfacet
  facet normal 0 0 1
    outer loop
      vertex 53.5305 99.069 4
      vertex 2.5 100 4
      vertex 52.7875 92 4
    endloop
  endfacet
  facet normal -0 0 1
    outer loop
      vertex 2.5 100 4
      vertex 53.5305 99.069 4
      vertex 53.833 100 4
    endloop
  endfacet
  facet normal 0 0 1
    outer loop
      vertex 2.5 81 4
      vertex 52.7875 92 4
      vertex 2.5 100 4
    endloop
  endfacet
  facet normal 0 0 1
    outer loop
      vertex 52.7875 92 4
      vertex 2.5 81 4
      vertex 53.5305 84.931 4
    endloop
  endfacet
  facet normal 0 0 1
    outer loop
      vertex 53.5305 84.931 4
      vertex 2.5 81 4
      vertex 54.8077 81 4
    endloop
  endfacet
  facet normal -0 0 1
    outer loop
      vertex 53.833 100 4
      vertex 54.5086 98.8611 4
      vertex 54.8787 100 4
    endloop
  endfacet
  facet normal -0 0 1
    outer loop
      vertex 53.5305 99.069 4
      vertex 54.5086 98.8611 4
      vertex 53.833 100 4
    endloop
  endfacet
  facet normal 0 0 1
    outer loop
      vertex 54.5086 98.8611 4
      vertex 53.5305 99.069 4
      vertex 53.7875 92 4
    endloop
  endfacet
  facet normal 0 0 1
    outer loop
      vertex 54.5086 85.1389 4
      vertex 54.8077 81 4
      vertex 55.8534 81 4
    endloop
  endfacet
  facet normal 0 0 1
    outer loop
      vertex 53.5305 84.931 4
      vertex 54.5086 85.1389 4
      vertex 53.7875 92 4
    endloop
  endfacet
  facet normal 0 0 1
    outer loop
      vertex 54.5086 85.1389 4
      vertex 53.5305 84.931 4
      vertex 54.8077 81 4
    endloop
  endfacet
  facet normal 0 0 1
    outer loop
      vertex 52.7875 92 4
      vertex 53.7875 92 4
      vertex 53.5305 99.069 4
    endloop
  endfacet
  facet normal 0 0 1
    outer loop
      vertex 53.7875 92 4
      vertex 52.7875 92 4
      vertex 53.5305 84.931 4
    endloop
  endfacet
  facet normal -0 0 1
    outer loop
      vertex 98.0486 60 4
      vertex 171.075 41 4
      vertex 171.075 60 4
    endloop
  endfacet
  facet normal -0 0 1
    outer loop
      vertex 97.2941 59.6641 4
      vertex 171.075 41 4
      vertex 98.0486 60 4
    endloop
  endfacet
  facet normal -0 0 1
    outer loop
      vertex 90.3415 58.1863 4
      vertex 171.075 41 4
      vertex 97.2941 59.6641 4
    endloop
  endfacet
  facet normal -0 0 1
    outer loop
      vertex 83.2335 58.1863 4
      vertex 171.075 41 4
      vertex 90.3415 58.1863 4
    endloop
  endfacet
  facet normal 0 0 1
    outer loop
      vertex 2.5 41 4
      vertex 75.5264 60 4
      vertex 2.5 60 4
    endloop
  endfacet
  facet normal 0 0 1
    outer loop
      vertex 75.5264 60 4
      vertex 2.5 41 4
      vertex 76.2809 59.6641 4
    endloop
  endfacet
  facet normal 0 0 1
    outer loop
      vertex 76.2809 59.6641 4
      vertex 2.5 41 4
      vertex 83.2335 58.1863 4
    endloop
  endfacet
  facet normal 0 0 1
    outer loop
      vertex 83.2335 58.1863 4
      vertex 2.5 41 4
      vertex 171.075 41 4
    endloop
  endfacet
  facet normal -0 0 1
    outer loop
      vertex 94.0911 60 4
      vertex 97.2941 59.6641 4
      vertex 98.0486 60 4
    endloop
  endfacet
  facet normal 0 0 1
    outer loop
      vertex 94.0911 60 4
      vertex 90.3415 58.1863 4
      vertex 97.2941 59.6641 4
    endloop
  endfacet
  facet normal -0 0 1
    outer loop
      vertex 90.2369 59.1808 4
      vertex 90.3415 58.1863 4
      vertex 94.0911 60 4
    endloop
  endfacet
  facet normal -0 0 1
    outer loop
      vertex 83.3381 59.1808 4
      vertex 90.3415 58.1863 4
      vertex 90.2369 59.1808 4
    endloop
  endfacet
  facet normal 0 0 1
    outer loop
      vertex 83.3381 59.1808 4
      vertex 83.2335 58.1863 4
      vertex 90.3415 58.1863 4
    endloop
  endfacet
  facet normal 0 0 1
    outer loop
      vertex 79.4839 60 4
      vertex 83.2335 58.1863 4
      vertex 83.3381 59.1808 4
    endloop
  endfacet
  facet normal 0 0 1
    outer loop
      vertex 79.4839 60 4
      vertex 76.2809 59.6641 4
      vertex 83.2335 58.1863 4
    endloop
  endfacet
  facet normal 0 -0 1
    outer loop
      vertex 76.2809 59.6641 4
      vertex 79.4839 60 4
      vertex 75.5264 60 4
    endloop
  endfacet
  facet normal 0 0 1
    outer loop
      vertex 103.787 121.445 4
      vertex 102.342 121 4
      vertex 104.4 121 4
    endloop
  endfacet
  facet normal 0 0 1
    outer loop
      vertex 97.2941 124.336 4
      vertex 102.342 121 4
      vertex 103.787 121.445 4
    endloop
  endfacet
  facet normal 0 0 1
    outer loop
      vertex 97.2941 124.336 4
      vertex 96.9851 123.385 4
      vertex 102.342 121 4
    endloop
  endfacet
  facet normal 0 0 1
    outer loop
      vertex 90.3415 125.814 4
      vertex 96.9851 123.385 4
      vertex 97.2941 124.336 4
    endloop
  endfacet
  facet normal 0 0 1
    outer loop
      vertex 90.3415 125.814 4
      vertex 90.2369 124.819 4
      vertex 96.9851 123.385 4
    endloop
  endfacet
  facet normal 0 0 1
    outer loop
      vertex 90.3415 125.814 4
      vertex 83.3381 124.819 4
      vertex 90.2369 124.819 4
    endloop
  endfacet
  facet normal -0 0 1
    outer loop
      vertex 83.2335 125.814 4
      vertex 83.3381 124.819 4
      vertex 90.3415 125.814 4
    endloop
  endfacet
  facet normal 0 0 1
    outer loop
      vertex 83.2335 125.814 4
      vertex 76.5899 123.385 4
      vertex 83.3381 124.819 4
    endloop
  endfacet
  facet normal -0 0 1
    outer loop
      vertex 76.2809 124.336 4
      vertex 76.5899 123.385 4
      vertex 83.2335 125.814 4
    endloop
  endfacet
  facet normal 0 0 1
    outer loop
      vertex 76.2809 124.336 4
      vertex 71.2334 121 4
      vertex 76.5899 123.385 4
    endloop
  endfacet
  facet normal -0 0 1
    outer loop
      vertex 69.7875 121.445 4
      vertex 71.2334 121 4
      vertex 76.2809 124.336 4
    endloop
  endfacet
  facet normal 0 0 1
    outer loop
      vertex 71.2334 121 4
      vertex 69.7875 121.445 4
      vertex 69.1752 121 4
    endloop
  endfacet
  facet normal 0 0 1
    outer loop
      vertex 171.075 140 4
      vertex 104.4 121 4
      vertex 171.075 121 4
    endloop
  endfacet
  facet normal 0 0 1
    outer loop
      vertex 171.075 140 4
      vertex 103.787 121.445 4
      vertex 104.4 121 4
    endloop
  endfacet
  facet normal 0 0 1
    outer loop
      vertex 171.075 140 4
      vertex 97.2941 124.336 4
      vertex 103.787 121.445 4
    endloop
  endfacet
  facet normal 0 0 1
    outer loop
      vertex 171.075 140 4
      vertex 90.3415 125.814 4
      vertex 97.2941 124.336 4
    endloop
  endfacet
  facet normal 0 0 1
    outer loop
      vertex 171.075 140 4
      vertex 83.2335 125.814 4
      vertex 90.3415 125.814 4
    endloop
  endfacet
  facet normal -0 0 1
    outer loop
      vertex 2.5 140 4
      vertex 83.2335 125.814 4
      vertex 171.075 140 4
    endloop
  endfacet
  facet normal 0 0 1
    outer loop
      vertex 2.5 140 4
      vertex 76.2809 124.336 4
      vertex 83.2335 125.814 4
    endloop
  endfacet
  facet normal 0 0 1
    outer loop
      vertex 2.5 140 4
      vertex 69.7875 121.445 4
      vertex 76.2809 124.336 4
    endloop
  endfacet
  facet normal 0 0 1
    outer loop
      vertex 2.5 140 4
      vertex 69.1752 121 4
      vertex 69.7875 121.445 4
    endloop
  endfacet
  facet normal 0 0 1
    outer loop
      vertex 69.1752 121 4
      vertex 2.5 140 4
      vertex 2.5 121 4
    endloop
  endfacet
  facet normal -0 0 1
    outer loop
      vertex 67.7988 120 4
      vertex 64.7062 116.524 4
      vertex 69.4908 120 4
    endloop
  endfacet
  facet normal -0 0 1
    outer loop
      vertex 64.0371 117.267 4
      vertex 64.7062 116.524 4
      vertex 67.7988 120 4
    endloop
  endfacet
  facet normal 0 0 1
    outer loop
      vertex 64.0371 117.267 4
      vertex 60.0899 111.397 4
      vertex 64.7062 116.524 4
    endloop
  endfacet
  facet normal -0 0 1
    outer loop
      vertex 59.2809 111.985 4
      vertex 60.0899 111.397 4
      vertex 64.0371 117.267 4
    endloop
  endfacet
  facet normal 0 0 1
    outer loop
      vertex 59.2809 111.985 4
      vertex 56.6405 105.422 4
      vertex 60.0899 111.397 4
    endloop
  endfacet
  facet normal -0 0 1
    outer loop
      vertex 55.727 105.829 4
      vertex 56.6405 105.422 4
      vertex 59.2809 111.985 4
    endloop
  endfacet
  facet normal 0 0 1
    outer loop
      vertex 55.727 105.829 4
      vertex 55.2036 101 4
      vertex 56.6405 105.422 4
    endloop
  endfacet
  facet normal 0 -0 1
    outer loop
      vertex 55.2036 101 4
      vertex 55.727 105.829 4
      vertex 54.1579 101 4
    endloop
  endfacet
  facet normal -0 0 1
    outer loop
      vertex 2.5 120 4
      vertex 64.0371 117.267 4
      vertex 67.7988 120 4
    endloop
  endfacet
  facet normal 0 0 1
    outer loop
      vertex 2.5 120 4
      vertex 59.2809 111.985 4
      vertex 64.0371 117.267 4
    endloop
  endfacet
  facet normal 0 0 1
    outer loop
      vertex 2.5 120 4
      vertex 55.727 105.829 4
      vertex 59.2809 111.985 4
    endloop
  endfacet
  facet normal 0 0 1
    outer loop
      vertex 2.5 120 4
      vertex 54.1579 101 4
      vertex 55.727 105.829 4
    endloop
  endfacet
  facet normal 0 0 1
    outer loop
      vertex 54.1579 101 4
      vertex 2.5 120 4
      vertex 2.5 101 4
    endloop
  endfacet
  facet normal -0 0 1
    outer loop
      vertex 118.442 80 4
      vertex 171.075 61 4
      vertex 171.075 80 4
    endloop
  endfacet
  facet normal -0 0 1
    outer loop
      vertex 117.848 78.171 4
      vertex 171.075 61 4
      vertex 118.442 80 4
    endloop
  endfacet
  facet normal -0 0 1
    outer loop
      vertex 114.294 72.0153 4
      vertex 171.075 61 4
      vertex 117.848 78.171 4
    endloop
  endfacet
  facet normal -0 0 1
    outer loop
      vertex 109.538 66.7331 4
      vertex 171.075 61 4
      vertex 114.294 72.0153 4
    endloop
  endfacet
  facet normal -0 0 1
    outer loop
      vertex 103.787 62.5551 4
      vertex 171.075 61 4
      vertex 109.538 66.7331 4
    endloop
  endfacet
  facet normal 0 0 1
    outer loop
      vertex 171.075 61 4
      vertex 103.787 62.5551 4
      vertex 100.295 61 4
    endloop
  endfacet
  facet normal -0 0 1
    outer loop
      vertex 117.397 80 4
      vertex 117.848 78.171 4
      vertex 118.442 80 4
    endloop
  endfacet
  facet normal -0 0 1
    outer loop
      vertex 116.935 78.5777 4
      vertex 117.848 78.171 4
      vertex 117.397 80 4
    endloop
  endfacet
  facet normal 0 0 1
    outer loop
      vertex 116.935 78.5777 4
      vertex 114.294 72.0153 4
      vertex 117.848 78.171 4
    endloop
  endfacet
  facet normal -0 0 1
    outer loop
      vertex 113.485 72.6031 4
      vertex 114.294 72.0153 4
      vertex 116.935 78.5777 4
    endloop
  endfacet
  facet normal 0 0 1
    outer loop
      vertex 113.485 72.6031 4
      vertex 109.538 66.7331 4
      vertex 114.294 72.0153 4
    endloop
  endfacet
  facet normal -0 0 1
    outer loop
      vertex 108.869 67.4762 4
      vertex 109.538 66.7331 4
      vertex 113.485 72.6031 4
    endloop
  endfacet
  facet normal 0 0 1
    outer loop
      vertex 108.869 67.4762 4
      vertex 103.787 62.5551 4
      vertex 109.538 66.7331 4
    endloop
  endfacet
  facet normal -0 0 1
    outer loop
      vertex 103.287 63.4212 4
      vertex 103.787 62.5551 4
      vertex 108.869 67.4762 4
    endloop
  endfacet
  facet normal 0 0 1
    outer loop
      vertex 103.287 63.4212 4
      vertex 100.295 61 4
      vertex 103.787 62.5551 4
    endloop
  endfacet
  facet normal 0 -0 1
    outer loop
      vertex 100.295 61 4
      vertex 103.287 63.4212 4
      vertex 97.8495 61 4
    endloop
  endfacet
  facet normal -0 0 1
    outer loop
      vertex 2.5 80 4
      vertex 55.727 78.171 4
      vertex 55.1327 80 4
    endloop
  endfacet
  facet normal 0 0 1
    outer loop
      vertex 2.5 61 4
      vertex 55.727 78.171 4
      vertex 2.5 80 4
    endloop
  endfacet
  facet normal 0 0 1
    outer loop
      vertex 55.727 78.171 4
      vertex 2.5 61 4
      vertex 59.2809 72.0153 4
    endloop
  endfacet
  facet normal 0 0 1
    outer loop
      vertex 59.2809 72.0153 4
      vertex 2.5 61 4
      vertex 64.0371 66.7331 4
    endloop
  endfacet
  facet normal 0 0 1
    outer loop
      vertex 64.0371 66.7331 4
      vertex 2.5 61 4
      vertex 69.7875 62.5551 4
    endloop
  endfacet
  facet normal 0 0 1
    outer loop
      vertex 69.7875 62.5551 4
      vertex 2.5 61 4
      vertex 73.2804 61 4
    endloop
  endfacet
  facet normal 0 0 1
    outer loop
      vertex 70.2875 63.4212 4
      vertex 73.2804 61 4
      vertex 75.7255 61 4
    endloop
  endfacet
  facet normal 0 0 1
    outer loop
      vertex 70.2875 63.4212 4
      vertex 69.7875 62.5551 4
      vertex 73.2804 61 4
    endloop
  endfacet
  facet normal 0 0 1
    outer loop
      vertex 64.7062 67.4762 4
      vertex 69.7875 62.5551 4
      vertex 70.2875 63.4212 4
    endloop
  endfacet
  facet normal 0 0 1
    outer loop
      vertex 64.7062 67.4762 4
      vertex 64.0371 66.7331 4
      vertex 69.7875 62.5551 4
    endloop
  endfacet
  facet normal 0 0 1
    outer loop
      vertex 60.0899 72.6031 4
      vertex 64.0371 66.7331 4
      vertex 64.7062 67.4762 4
    endloop
  endfacet
  facet normal 0 0 1
    outer loop
      vertex 60.0899 72.6031 4
      vertex 59.2809 72.0153 4
      vertex 64.0371 66.7331 4
    endloop
  endfacet
  facet normal 0 0 1
    outer loop
      vertex 56.6405 78.5777 4
      vertex 59.2809 72.0153 4
      vertex 60.0899 72.6031 4
    endloop
  endfacet
  facet normal 0 0 1
    outer loop
      vertex 56.6405 78.5777 4
      vertex 55.727 78.171 4
      vertex 59.2809 72.0153 4
    endloop
  endfacet
  facet normal 0 0 1
    outer loop
      vertex 56.1784 80 4
      vertex 55.727 78.171 4
      vertex 56.6405 78.5777 4
    endloop
  endfacet
  facet normal 0 -0 1
    outer loop
      vertex 55.727 78.171 4
      vertex 56.1784 80 4
      vertex 55.1327 80 4
    endloop
  endfacet
  facet normal -0 0 1
    outer loop
      vertex 2.5 183.5 4
      vertex 171.075 161 4
      vertex 171.075 183.5 4
    endloop
  endfacet
  facet normal 0 0 1
    outer loop
      vertex 171.075 161 4
      vertex 2.5 183.5 4
      vertex 2.5 161 4
    endloop
  endfacet
  facet normal -0 0 1
    outer loop
      vertex 2.5 20 4
      vertex 171.075 2.5 4
      vertex 171.075 20 4
    endloop
  endfacet
  facet normal 0 0 1
    outer loop
      vertex 171.075 2.5 4
      vertex 2.5 20 4
      vertex 2.5 2.5 4
    endloop
  endfacet
  facet normal -0 0 1
    outer loop
      vertex 2.5 160 4
      vertex 171.075 141 4
      vertex 171.075 160 4
    endloop
  endfacet
  facet normal 0 0 1
    outer loop
      vertex 171.075 141 4
      vertex 2.5 160 4
      vertex 2.5 141 4
    endloop
  endfacet
  facet normal -0 0 1
    outer loop
      vertex 2.5 40 4
      vertex 171.075 21 4
      vertex 171.075 40 4
    endloop
  endfacet
  facet normal 0 0 1
    outer loop
      vertex 171.075 21 4
      vertex 2.5 40 4
      vertex 2.5 21 4
    endloop
  endfacet
  facet normal 0 1 -0
    outer loop
      vertex 171.075 2.5 4
      vertex 2.5 2.5 8
      vertex 171.075 2.5 8
    endloop
  endfacet
  facet normal 0 1 0
    outer loop
      vertex 2.5 2.5 8
      vertex 171.075 2.5 4
      vertex 2.5 2.5 4
    endloop
  endfacet
  facet normal -0 0 1
    outer loop
      vertex 2.5 21 5
      vertex 171.075 20 5
      vertex 171.075 21 5
    endloop
  endfacet
  facet normal 0 0 1
    outer loop
      vertex 171.075 20 5
      vertex 2.5 21 5
      vertex 2.5 20 5
    endloop
  endfacet
  facet normal 0 -1 0
    outer loop
      vertex 2.5 20 4
      vertex 171.075 20 5
      vertex 2.5 20 5
    endloop
  endfacet
  facet normal 0 -1 -0
    outer loop
      vertex 171.075 20 5
      vertex 2.5 20 4
      vertex 171.075 20 4
    endloop
  endfacet
  facet normal 0 1 -0
    outer loop
      vertex 171.075 21 4
      vertex 2.5 21 5
      vertex 171.075 21 5
    endloop
  endfacet
  facet normal 0 1 0
    outer loop
      vertex 2.5 21 5
      vertex 171.075 21 4
      vertex 2.5 21 4
    endloop
  endfacet
  facet normal -0 0 1
    outer loop
      vertex 2.5 41 5
      vertex 171.075 40 5
      vertex 171.075 41 5
    endloop
  endfacet
  facet normal 0 0 1
    outer loop
      vertex 171.075 40 5
      vertex 2.5 41 5
      vertex 2.5 40 5
    endloop
  endfacet
  facet normal 0 1 -0
    outer loop
      vertex 171.075 41 4
      vertex 2.5 41 5
      vertex 171.075 41 5
    endloop
  endfacet
  facet normal 0 1 0
    outer loop
      vertex 2.5 41 5
      vertex 171.075 41 4
      vertex 2.5 41 4
    endloop
  endfacet
  facet normal 0 -1 0
    outer loop
      vertex 2.5 40 4
      vertex 171.075 40 5
      vertex 2.5 40 5
    endloop
  endfacet
  facet normal 0 -1 -0
    outer loop
      vertex 171.075 40 5
      vertex 2.5 40 4
      vertex 171.075 40 4
    endloop
  endfacet
  facet normal -0 0 1
    outer loop
      vertex 2.5 121 5
      vertex 70.2875 120.579 5
      vertex 71.2334 121 5
    endloop
  endfacet
  facet normal 0 0 1
    outer loop
      vertex 2.5 121 5
      vertex 69.4908 120 5
      vertex 70.2875 120.579 5
    endloop
  endfacet
  facet normal 0 0 1
    outer loop
      vertex 69.4908 120 5
      vertex 2.5 121 5
      vertex 2.5 120 5
    endloop
  endfacet
  facet normal 0 0 1
    outer loop
      vertex 171.075 121 5
      vertex 104.084 120 5
      vertex 171.075 120 5
    endloop
  endfacet
  facet normal 0 0 1
    outer loop
      vertex 171.075 121 5
      vertex 103.287 120.579 5
      vertex 104.084 120 5
    endloop
  endfacet
  facet normal 0 -0 1
    outer loop
      vertex 103.287 120.579 5
      vertex 171.075 121 5
      vertex 102.342 121 5
    endloop
  endfacet
  facet normal -0 0 1
    outer loop
      vertex 2.5 101 5
      vertex 54.8787 100 5
      vertex 55.2036 101 5
    endloop
  endfacet
  facet normal 0 0 1
    outer loop
      vertex 54.8787 100 5
      vertex 2.5 101 5
      vertex 2.5 100 5
    endloop
  endfacet
  facet normal 0 0 1
    outer loop
      vertex 171.075 101 5
      vertex 118.696 100 5
      vertex 171.075 100 5
    endloop
  endfacet
  facet normal 0 -0 1
    outer loop
      vertex 118.696 100 5
      vertex 171.075 101 5
      vertex 118.371 101 5
    endloop
  endfacet
  facet normal 0 0 1
    outer loop
      vertex 2.5 80 5
      vertex 55.8534 81 5
      vertex 2.5 81 5
    endloop
  endfacet
  facet normal 0 0 1
    outer loop
      vertex 55.8534 81 5
      vertex 2.5 80 5
      vertex 56.1784 80 5
    endloop
  endfacet
  facet normal -0 0 1
    outer loop
      vertex 117.722 81 5
      vertex 171.075 80 5
      vertex 171.075 81 5
    endloop
  endfacet
  facet normal 0 0 1
    outer loop
      vertex 171.075 80 5
      vertex 117.722 81 5
      vertex 117.397 80 5
    endloop
  endfacet
  facet normal 0 0 1
    outer loop
      vertex 2.5 60 5
      vertex 75.7255 61 5
      vertex 2.5 61 5
    endloop
  endfacet
  facet normal 0 0 1
    outer loop
      vertex 75.7255 61 5
      vertex 2.5 60 5
      vertex 76.5899 60.6151 5
    endloop
  endfacet
  facet normal 0 0 1
    outer loop
      vertex 76.5899 60.6151 5
      vertex 2.5 60 5
      vertex 79.4839 60 5
    endloop
  endfacet
  facet normal -0 0 1
    outer loop
      vertex 97.8495 61 5
      vertex 171.075 60 5
      vertex 171.075 61 5
    endloop
  endfacet
  facet normal -0 0 1
    outer loop
      vertex 96.9851 60.6151 5
      vertex 171.075 60 5
      vertex 97.8495 61 5
    endloop
  endfacet
  facet normal 0 0 1
    outer loop
      vertex 171.075 60 5
      vertex 96.9851 60.6151 5
      vertex 94.0911 60 5
    endloop
  endfacet
  facet normal 0 1 0
    outer loop
      vertex 73.2804 61 4
      vertex 75.7255 61 5
      vertex 75.7255 61 4
    endloop
  endfacet
  facet normal 0 1 0
    outer loop
      vertex 75.7255 61 5
      vertex 73.2804 61 4
      vertex 2.5 61 5
    endloop
  endfacet
  facet normal 0 1 0
    outer loop
      vertex 2.5 61 5
      vertex 73.2804 61 4
      vertex 2.5 61 4
    endloop
  endfacet
  facet normal 0 1 0
    outer loop
      vertex 100.295 61 4
      vertex 171.075 61 5
      vertex 171.075 61 4
    endloop
  endfacet
  facet normal 0 1 0
    outer loop
      vertex 171.075 61 5
      vertex 100.295 61 4
      vertex 97.8495 61 5
    endloop
  endfacet
  facet normal 0 1 0
    outer loop
      vertex 97.8495 61 5
      vertex 100.295 61 4
      vertex 97.8495 61 4
    endloop
  endfacet
  facet normal 0 -1 0
    outer loop
      vertex 75.5264 60 4
      vertex 2.5 60 5
      vertex 2.5 60 4
    endloop
  endfacet
  facet normal 0 -1 0
    outer loop
      vertex 2.5 60 5
      vertex 75.5264 60 4
      vertex 79.4839 60 5
    endloop
  endfacet
  facet normal 0 -1 -0
    outer loop
      vertex 79.4839 60 5
      vertex 75.5264 60 4
      vertex 79.4839 60 4
    endloop
  endfacet
  facet normal 0 -1 0
    outer loop
      vertex 98.0486 60 4
      vertex 94.0911 60 5
      vertex 94.0911 60 4
    endloop
  endfacet
  facet normal 0 -1 0
    outer loop
      vertex 94.0911 60 5
      vertex 98.0486 60 4
      vertex 171.075 60 5
    endloop
  endfacet
  facet normal 0 -1 -0
    outer loop
      vertex 171.075 60 5
      vertex 98.0486 60 4
      vertex 171.075 60 4
    endloop
  endfacet
  facet normal 0 1 0
    outer loop
      vertex 54.8077 81 4
      vertex 55.8534 81 5
      vertex 55.8534 81 4
    endloop
  endfacet
  facet normal 0 1 0
    outer loop
      vertex 55.8534 81 5
      vertex 54.8077 81 4
      vertex 2.5 81 5
    endloop
  endfacet
  facet normal 0 1 0
    outer loop
      vertex 2.5 81 5
      vertex 54.8077 81 4
      vertex 2.5 81 4
    endloop
  endfacet
  facet normal 0 1 0
    outer loop
      vertex 118.767 81 4
      vertex 171.075 81 5
      vertex 171.075 81 4
    endloop
  endfacet
  facet normal 0 1 0
    outer loop
      vertex 171.075 81 5
      vertex 118.767 81 4
      vertex 117.722 81 5
    endloop
  endfacet
  facet normal 0 1 0
    outer loop
      vertex 117.722 81 5
      vertex 118.767 81 4
      vertex 117.722 81 4
    endloop
  endfacet
  facet normal 0 -1 0
    outer loop
      vertex 55.1327 80 4
      vertex 2.5 80 5
      vertex 2.5 80 4
    endloop
  endfacet
  facet normal 0 -1 0
    outer loop
      vertex 2.5 80 5
      vertex 55.1327 80 4
      vertex 56.1784 80 5
    endloop
  endfacet
  facet normal 0 -1 -0
    outer loop
      vertex 56.1784 80 5
      vertex 55.1327 80 4
      vertex 56.1784 80 4
    endloop
  endfacet
  facet normal 0 -1 0
    outer loop
      vertex 118.442 80 4
      vertex 117.397 80 5
      vertex 117.397 80 4
    endloop
  endfacet
  facet normal 0 -1 0
    outer loop
      vertex 117.397 80 5
      vertex 118.442 80 4
      vertex 171.075 80 5
    endloop
  endfacet
  facet normal 0 -1 -0
    outer loop
      vertex 171.075 80 5
      vertex 118.442 80 4
      vertex 171.075 80 4
    endloop
  endfacet
  facet normal 0 -1 0
    outer loop
      vertex 53.833 100 4
      vertex 2.5 100 5
      vertex 2.5 100 4
    endloop
  endfacet
  facet normal 0 -1 0
    outer loop
      vertex 2.5 100 5
      vertex 53.833 100 4
      vertex 54.8787 100 5
    endloop
  endfacet
  facet normal 0 -1 -0
    outer loop
      vertex 54.8787 100 5
      vertex 53.833 100 4
      vertex 54.8787 100 4
    endloop
  endfacet
  facet normal 0 -1 0
    outer loop
      vertex 119.742 100 4
      vertex 118.696 100 5
      vertex 118.696 100 4
    endloop
  endfacet
  facet normal 0 -1 0
    outer loop
      vertex 118.696 100 5
      vertex 119.742 100 4
      vertex 171.075 100 5
    endloop
  endfacet
  facet normal 0 -1 -0
    outer loop
      vertex 171.075 100 5
      vertex 119.742 100 4
      vertex 171.075 100 4
    endloop
  endfacet
  facet normal 0 1 0
    outer loop
      vertex 54.1579 101 4
      vertex 55.2036 101 5
      vertex 55.2036 101 4
    endloop
  endfacet
  facet normal 0 1 0
    outer loop
      vertex 55.2036 101 5
      vertex 54.1579 101 4
      vertex 2.5 101 5
    endloop
  endfacet
  facet normal 0 1 0
    outer loop
      vertex 2.5 101 5
      vertex 54.1579 101 4
      vertex 2.5 101 4
    endloop
  endfacet
  facet normal 0 1 0
    outer loop
      vertex 119.417 101 4
      vertex 171.075 101 5
      vertex 171.075 101 4
    endloop
  endfacet
  facet normal 0 1 0
    outer loop
      vertex 171.075 101 5
      vertex 119.417 101 4
      vertex 118.371 101 5
    endloop
  endfacet
  facet normal 0 1 0
    outer loop
      vertex 118.371 101 5
      vertex 119.417 101 4
      vertex 118.371 101 4
    endloop
  endfacet
  facet normal 0 1 0
    outer loop
      vertex 69.1752 121 4
      vertex 71.2334 121 5
      vertex 71.2334 121 4
    endloop
  endfacet
  facet normal 0 1 0
    outer loop
      vertex 71.2334 121 5
      vertex 69.1752 121 4
      vertex 2.5 121 5
    endloop
  endfacet
  facet normal 0 1 0
    outer loop
      vertex 2.5 121 5
      vertex 69.1752 121 4
      vertex 2.5 121 4
    endloop
  endfacet
  facet normal 0 1 0
    outer loop
      vertex 104.4 121 4
      vertex 171.075 121 5
      vertex 171.075 121 4
    endloop
  endfacet
  facet normal 0 1 0
    outer loop
      vertex 171.075 121 5
      vertex 104.4 121 4
      vertex 102.342 121 5
    endloop
  endfacet
  facet normal 0 1 0
    outer loop
      vertex 102.342 121 5
      vertex 104.4 121 4
      vertex 102.342 121 4
    endloop
  endfacet
  facet normal 0 -1 0
    outer loop
      vertex 67.7988 120 4
      vertex 2.5 120 5
      vertex 2.5 120 4
    endloop
  endfacet
  facet normal 0 -1 0
    outer loop
      vertex 2.5 120 5
      vertex 67.7988 120 4
      vertex 69.4908 120 5
    endloop
  endfacet
  facet normal 0 -1 -0
    outer loop
      vertex 69.4908 120 5
      vertex 67.7988 120 4
      vertex 69.4908 120 4
    endloop
  endfacet
  facet normal 0 -1 0
    outer loop
      vertex 105.776 120 4
      vertex 104.084 120 5
      vertex 104.084 120 4
    endloop
  endfacet
  facet normal 0 -1 0
    outer loop
      vertex 104.084 120 5
      vertex 105.776 120 4
      vertex 171.075 120 5
    endloop
  endfacet
  facet normal 0 -1 -0
    outer loop
      vertex 171.075 120 5
      vertex 105.776 120 4
      vertex 171.075 120 4
    endloop
  endfacet
  facet normal -0 0 1
    outer loop
      vertex 2.5 141 5
      vertex 171.075 140 5
      vertex 171.075 141 5
    endloop
  endfacet
  facet normal 0 0 1
    outer loop
      vertex 171.075 140 5
      vertex 2.5 141 5
      vertex 2.5 140 5
    endloop
  endfacet
  facet normal 0 -1 0
    outer loop
      vertex 2.5 140 4
      vertex 171.075 140 5
      vertex 2.5 140 5
    endloop
  endfacet
  facet normal 0 -1 -0
    outer loop
      vertex 171.075 140 5
      vertex 2.5 140 4
      vertex 171.075 140 4
    endloop
  endfacet
  facet normal 0 1 -0
    outer loop
      vertex 171.075 141 4
      vertex 2.5 141 5
      vertex 171.075 141 5
    endloop
  endfacet
  facet normal 0 1 0
    outer loop
      vertex 2.5 141 5
      vertex 171.075 141 4
      vertex 2.5 141 4
    endloop
  endfacet
  facet normal -0 0 1
    outer loop
      vertex 2.5 161 5
      vertex 171.075 160 5
      vertex 171.075 161 5
    endloop
  endfacet
  facet normal 0 0 1
    outer loop
      vertex 171.075 160 5
      vertex 2.5 161 5
      vertex 2.5 160 5
    endloop
  endfacet
  facet normal 0 -1 0
    outer loop
      vertex 2.5 160 4
      vertex 171.075 160 5
      vertex 2.5 160 5
    endloop
  endfacet
  facet normal 0 -1 -0
    outer loop
      vertex 171.075 160 5
      vertex 2.5 160 4
      vertex 171.075 160 4
    endloop
  endfacet
  facet normal 0 1 -0
    outer loop
      vertex 171.075 161 4
      vertex 2.5 161 5
      vertex 171.075 161 5
    endloop
  endfacet
  facet normal 0 1 0
    outer loop
      vertex 2.5 161 5
      vertex 171.075 161 4
      vertex 2.5 161 4
    endloop
  endfacet
  facet normal -0.994522 -0.104529 0
    outer loop
      vertex 119.787 92 0
      vertex 119.066 98.8611 4
      vertex 119.066 98.8611 0
    endloop
  endfacet
  facet normal -0.994522 -0.104529 0
    outer loop
      vertex 119.066 98.8611 4
      vertex 119.787 92 0
      vertex 119.787 92 4
    endloop
  endfacet
  facet normal 0.994522 0.104529 0
    outer loop
      vertex 54.5086 85.1389 4
      vertex 53.7875 92 0
      vertex 53.7875 92 4
    endloop
  endfacet
  facet normal 0.994522 0.104529 0
    outer loop
      vertex 53.7875 92 0
      vertex 54.5086 85.1389 4
      vertex 54.5086 85.1389 0
    endloop
  endfacet
  facet normal 0 -1 0
    outer loop
      vertex 83.3381 124.819 0
      vertex 90.2369 124.819 4
      vertex 83.3381 124.819 4
    endloop
  endfacet
  facet normal 0 -1 -0
    outer loop
      vertex 90.2369 124.819 4
      vertex 83.3381 124.819 0
      vertex 90.2369 124.819 0
    endloop
  endfacet
  facet normal 0 1 -0
    outer loop
      vertex 90.2369 59.1808 0
      vertex 83.3381 59.1808 4
      vertex 90.2369 59.1808 4
    endloop
  endfacet
  facet normal 0 1 0
    outer loop
      vertex 83.3381 59.1808 4
      vertex 90.2369 59.1808 0
      vertex 83.3381 59.1808 0
    endloop
  endfacet
  facet normal 0.743145 0.669131 0
    outer loop
      vertex 64.7062 67.4762 4
      vertex 60.0899 72.6031 0
      vertex 60.0899 72.6031 4
    endloop
  endfacet
  facet normal 0.743145 0.669131 0
    outer loop
      vertex 60.0899 72.6031 0
      vertex 64.7062 67.4762 4
      vertex 64.7062 67.4762 0
    endloop
  endfacet
  facet normal -0.743145 -0.66913 0
    outer loop
      vertex 113.485 111.397 0
      vertex 108.869 116.524 4
      vertex 108.869 116.524 0
    endloop
  endfacet
  facet normal -0.743145 -0.66913 0
    outer loop
      vertex 108.869 116.524 4
      vertex 113.485 111.397 0
      vertex 113.485 111.397 4
    endloop
  endfacet
  facet normal -0.951057 -0.309016 0
    outer loop
      vertex 116.935 105.422 0
      vertex 118.371 101 4
      vertex 116.935 105.422 4
    endloop
  endfacet
  facet normal -0.951056 -0.309018 0
    outer loop
      vertex 118.371 101 4
      vertex 118.696 100 4
      vertex 118.371 101 5
    endloop
  endfacet
  facet normal -0.951057 -0.309016 -5.98413e-07
    outer loop
      vertex 119.066 98.8611 0
      vertex 118.371 101 4
      vertex 116.935 105.422 0
    endloop
  endfacet
  facet normal -0.951056 -0.309018 2.81665e-07
    outer loop
      vertex 118.371 101 4
      vertex 119.066 98.8611 0
      vertex 118.696 100 4
    endloop
  endfacet
  facet normal -0.951057 -0.309017 0
    outer loop
      vertex 118.696 100 4
      vertex 119.066 98.8611 0
      vertex 119.066 98.8611 4
    endloop
  endfacet
  facet normal -0.951056 -0.309018 0
    outer loop
      vertex 118.371 101 5
      vertex 118.696 100 4
      vertex 118.696 100 5
    endloop
  endfacet
  facet normal 0.743145 -0.669131 0
    outer loop
      vertex 60.0899 111.397 4
      vertex 64.7062 116.524 0
      vertex 64.7062 116.524 4
    endloop
  endfacet
  facet normal 0.743145 -0.669131 0
    outer loop
      vertex 64.7062 116.524 0
      vertex 60.0899 111.397 4
      vertex 60.0899 111.397 0
    endloop
  endfacet
  facet normal 0.406739 -0.913544 0
    outer loop
      vertex 70.2875 120.579 5
      vertex 71.2334 121 4
      vertex 71.2334 121 5
    endloop
  endfacet
  facet normal 0.406739 -0.913544 0
    outer loop
      vertex 70.2875 120.579 0
      vertex 71.2334 121 4
      vertex 70.2875 120.579 5
    endloop
  endfacet
  facet normal 0.406737 -0.913545 5.9296e-07
    outer loop
      vertex 76.5899 123.385 0
      vertex 71.2334 121 4
      vertex 70.2875 120.579 0
    endloop
  endfacet
  facet normal 0.406737 -0.913545 0
    outer loop
      vertex 71.2334 121 4
      vertex 76.5899 123.385 0
      vertex 76.5899 123.385 4
    endloop
  endfacet
  facet normal -0.743145 0.66913 0
    outer loop
      vertex 108.869 67.4762 0
      vertex 113.485 72.6031 4
      vertex 113.485 72.6031 0
    endloop
  endfacet
  facet normal -0.743145 0.66913 0
    outer loop
      vertex 113.485 72.6031 4
      vertex 108.869 67.4762 0
      vertex 108.869 67.4762 4
    endloop
  endfacet
  facet normal -0.866025 0.5 0
    outer loop
      vertex 113.485 72.6031 0
      vertex 116.935 78.5777 4
      vertex 116.935 78.5777 0
    endloop
  endfacet
  facet normal -0.866025 0.5 0
    outer loop
      vertex 116.935 78.5777 4
      vertex 113.485 72.6031 0
      vertex 113.485 72.6031 4
    endloop
  endfacet
  facet normal 0.951056 0.309018 0
    outer loop
      vertex 55.8534 81 5
      vertex 56.1784 80 5
      vertex 55.8534 81 4
    endloop
  endfacet
  facet normal 0.951057 0.309017 0
    outer loop
      vertex 55.8534 81 4
      vertex 54.5086 85.1389 0
      vertex 54.5086 85.1389 4
    endloop
  endfacet
  facet normal 0.951056 0.309018 -0
    outer loop
      vertex 56.1784 80 4
      vertex 55.8534 81 4
      vertex 56.1784 80 5
    endloop
  endfacet
  facet normal 0.951056 0.309018 -6.04019e-07
    outer loop
      vertex 56.6405 78.5777 0
      vertex 55.8534 81 4
      vertex 56.1784 80 4
    endloop
  endfacet
  facet normal 0.951057 0.309016 -0
    outer loop
      vertex 56.6405 78.5777 0
      vertex 56.1784 80 4
      vertex 56.6405 78.5777 4
    endloop
  endfacet
  facet normal 0.951057 0.309017 5.78132e-08
    outer loop
      vertex 55.8534 81 4
      vertex 56.6405 78.5777 0
      vertex 54.5086 85.1389 0
    endloop
  endfacet
  facet normal -0.866025 -0.5 0
    outer loop
      vertex 116.935 105.422 0
      vertex 113.485 111.397 4
      vertex 113.485 111.397 0
    endloop
  endfacet
  facet normal -0.866025 -0.5 0
    outer loop
      vertex 113.485 111.397 4
      vertex 116.935 105.422 0
      vertex 116.935 105.422 4
    endloop
  endfacet
  facet normal -0.406737 -0.913545 -0
    outer loop
      vertex 96.9851 123.385 4
      vertex 96.9851 123.385 0
      vertex 102.342 121 4
    endloop
  endfacet
  facet normal -0.406739 -0.913544 0
    outer loop
      vertex 102.342 121 4
      vertex 103.287 120.579 5
      vertex 102.342 121 5
    endloop
  endfacet
  facet normal -0.406739 -0.913544 0
    outer loop
      vertex 102.342 121 4
      vertex 103.287 120.579 0
      vertex 103.287 120.579 5
    endloop
  endfacet
  facet normal -0.406737 -0.913545 5.9296e-07
    outer loop
      vertex 103.287 120.579 0
      vertex 102.342 121 4
      vertex 96.9851 123.385 0
    endloop
  endfacet
  facet normal -0.207912 -0.978148 0
    outer loop
      vertex 90.2369 124.819 0
      vertex 96.9851 123.385 4
      vertex 90.2369 124.819 4
    endloop
  endfacet
  facet normal -0.207912 -0.978148 -0
    outer loop
      vertex 96.9851 123.385 4
      vertex 90.2369 124.819 0
      vertex 96.9851 123.385 0
    endloop
  endfacet
  facet normal -0.587784 -0.809018 0
    outer loop
      vertex 103.287 120.579 5
      vertex 104.084 120 4
      vertex 104.084 120 5
    endloop
  endfacet
  facet normal -0.587784 -0.809018 0
    outer loop
      vertex 103.287 120.579 0
      vertex 104.084 120 4
      vertex 103.287 120.579 5
    endloop
  endfacet
  facet normal -0.587784 -0.809018 7.33494e-08
    outer loop
      vertex 108.869 116.524 0
      vertex 104.084 120 4
      vertex 103.287 120.579 0
    endloop
  endfacet
  facet normal -0.587785 -0.809018 0
    outer loop
      vertex 104.084 120 4
      vertex 108.869 116.524 0
      vertex 108.869 116.524 4
    endloop
  endfacet
  facet normal 0.951056 -0.309018 0
    outer loop
      vertex 55.2036 101 5
      vertex 54.8787 100 5
      vertex 55.2036 101 4
    endloop
  endfacet
  facet normal 0.951057 -0.309017 0
    outer loop
      vertex 55.2036 101 4
      vertex 56.6405 105.422 0
      vertex 56.6405 105.422 4
    endloop
  endfacet
  facet normal 0.951056 -0.309018 0
    outer loop
      vertex 54.8787 100 4
      vertex 55.2036 101 4
      vertex 54.8787 100 5
    endloop
  endfacet
  facet normal 0.951056 -0.309018 2.81665e-07
    outer loop
      vertex 54.5086 98.8611 0
      vertex 55.2036 101 4
      vertex 54.8787 100 4
    endloop
  endfacet
  facet normal 0.951057 -0.309017 0
    outer loop
      vertex 54.5086 98.8611 0
      vertex 54.8787 100 4
      vertex 54.5086 98.8611 4
    endloop
  endfacet
  facet normal 0.951057 -0.309017 -3.02737e-07
    outer loop
      vertex 55.2036 101 4
      vertex 54.5086 98.8611 0
      vertex 56.6405 105.422 0
    endloop
  endfacet
  facet normal 0.866025 -0.5 0
    outer loop
      vertex 56.6405 105.422 4
      vertex 60.0899 111.397 0
      vertex 60.0899 111.397 4
    endloop
  endfacet
  facet normal 0.866025 -0.5 0
    outer loop
      vertex 60.0899 111.397 0
      vertex 56.6405 105.422 4
      vertex 56.6405 105.422 0
    endloop
  endfacet
  facet normal 0.994522 -0.104529 0
    outer loop
      vertex 53.7875 92 4
      vertex 54.5086 98.8611 0
      vertex 54.5086 98.8611 4
    endloop
  endfacet
  facet normal 0.994522 -0.104529 0
    outer loop
      vertex 54.5086 98.8611 0
      vertex 53.7875 92 4
      vertex 53.7875 92 0
    endloop
  endfacet
  facet normal 0.587785 -0.809017 0
    outer loop
      vertex 64.7062 116.524 4
      vertex 64.7062 116.524 0
      vertex 69.4908 120 4
    endloop
  endfacet
  facet normal 0.587784 -0.809018 0
    outer loop
      vertex 69.4908 120 4
      vertex 70.2875 120.579 5
      vertex 69.4908 120 5
    endloop
  endfacet
  facet normal 0.587784 -0.809018 0
    outer loop
      vertex 69.4908 120 4
      vertex 70.2875 120.579 0
      vertex 70.2875 120.579 5
    endloop
  endfacet
  facet normal 0.587785 -0.809017 2.33381e-07
    outer loop
      vertex 70.2875 120.579 0
      vertex 69.4908 120 4
      vertex 64.7062 116.524 0
    endloop
  endfacet
  facet normal 0.207912 -0.978148 0
    outer loop
      vertex 76.5899 123.385 0
      vertex 83.3381 124.819 4
      vertex 76.5899 123.385 4
    endloop
  endfacet
  facet normal 0.207912 -0.978148 0
    outer loop
      vertex 83.3381 124.819 4
      vertex 76.5899 123.385 0
      vertex 83.3381 124.819 0
    endloop
  endfacet
  facet normal -0.994522 0.104529 0
    outer loop
      vertex 119.066 85.1389 0
      vertex 119.787 92 4
      vertex 119.787 92 0
    endloop
  endfacet
  facet normal -0.994522 0.104529 0
    outer loop
      vertex 119.787 92 4
      vertex 119.066 85.1389 0
      vertex 119.066 85.1389 4
    endloop
  endfacet
  facet normal -0.207912 0.978148 0
    outer loop
      vertex 96.9851 60.6151 5
      vertex 94.0911 60 4
      vertex 94.0911 60 5
    endloop
  endfacet
  facet normal -0.207912 0.978148 0
    outer loop
      vertex 96.9851 60.6151 0
      vertex 94.0911 60 4
      vertex 96.9851 60.6151 5
    endloop
  endfacet
  facet normal -0.207912 0.978148 2.06607e-07
    outer loop
      vertex 90.2369 59.1808 0
      vertex 94.0911 60 4
      vertex 96.9851 60.6151 0
    endloop
  endfacet
  facet normal -0.207911 0.978148 0
    outer loop
      vertex 94.0911 60 4
      vertex 90.2369 59.1808 0
      vertex 90.2369 59.1808 4
    endloop
  endfacet
  facet normal -0.587785 0.809017 0
    outer loop
      vertex 108.869 67.4762 0
      vertex 103.287 63.4212 4
      vertex 108.869 67.4762 4
    endloop
  endfacet
  facet normal -0.587785 0.809017 0
    outer loop
      vertex 103.287 63.4212 4
      vertex 108.869 67.4762 0
      vertex 103.287 63.4212 0
    endloop
  endfacet
  facet normal 0.587785 0.809017 -0
    outer loop
      vertex 70.2875 63.4212 0
      vertex 64.7062 67.4762 4
      vertex 70.2875 63.4212 4
    endloop
  endfacet
  facet normal 0.587785 0.809017 0
    outer loop
      vertex 64.7062 67.4762 4
      vertex 70.2875 63.4212 0
      vertex 64.7062 67.4762 0
    endloop
  endfacet
  facet normal 0.207911 0.978148 0
    outer loop
      vertex 83.3381 59.1808 4
      vertex 83.3381 59.1808 0
      vertex 79.4839 60 4
    endloop
  endfacet
  facet normal 0.207912 0.978148 -0
    outer loop
      vertex 79.4839 60 4
      vertex 76.5899 60.6151 5
      vertex 79.4839 60 5
    endloop
  endfacet
  facet normal 0.207912 0.978148 2.06607e-07
    outer loop
      vertex 76.5899 60.6151 0
      vertex 79.4839 60 4
      vertex 83.3381 59.1808 0
    endloop
  endfacet
  facet normal 0.207912 0.978148 0
    outer loop
      vertex 79.4839 60 4
      vertex 76.5899 60.6151 0
      vertex 76.5899 60.6151 5
    endloop
  endfacet
  facet normal 0.866025 0.5 0
    outer loop
      vertex 60.0899 72.6031 4
      vertex 56.6405 78.5777 0
      vertex 56.6405 78.5777 4
    endloop
  endfacet
  facet normal 0.866025 0.5 0
    outer loop
      vertex 56.6405 78.5777 0
      vertex 60.0899 72.6031 4
      vertex 60.0899 72.6031 0
    endloop
  endfacet
  facet normal -0.406737 0.913545 0
    outer loop
      vertex 103.287 63.4212 4
      vertex 103.287 63.4212 0
      vertex 97.8495 61 4
    endloop
  endfacet
  facet normal -0.406738 0.913545 0
    outer loop
      vertex 97.8495 61 4
      vertex 96.9851 60.6151 5
      vertex 97.8495 61 5
    endloop
  endfacet
  facet normal -0.406738 0.913545 0
    outer loop
      vertex 97.8495 61 4
      vertex 96.9851 60.6151 0
      vertex 96.9851 60.6151 5
    endloop
  endfacet
  facet normal -0.406737 0.913545 -2.27265e-07
    outer loop
      vertex 96.9851 60.6151 0
      vertex 97.8495 61 4
      vertex 103.287 63.4212 0
    endloop
  endfacet
  facet normal -0.951057 0.309016 0
    outer loop
      vertex 119.066 85.1389 0
      vertex 117.722 81 4
      vertex 119.066 85.1389 4
    endloop
  endfacet
  facet normal -0.951056 0.309018 0
    outer loop
      vertex 117.722 81 4
      vertex 117.397 80 4
      vertex 117.722 81 5
    endloop
  endfacet
  facet normal -0.951057 0.309016 3.92664e-07
    outer loop
      vertex 116.935 78.5777 0
      vertex 117.722 81 4
      vertex 119.066 85.1389 0
    endloop
  endfacet
  facet normal -0.951056 0.309018 -6.04019e-07
    outer loop
      vertex 117.722 81 4
      vertex 116.935 78.5777 0
      vertex 117.397 80 4
    endloop
  endfacet
  facet normal -0.951057 0.309016 0
    outer loop
      vertex 117.397 80 4
      vertex 116.935 78.5777 0
      vertex 116.935 78.5777 4
    endloop
  endfacet
  facet normal -0.951056 0.309018 0
    outer loop
      vertex 117.722 81 5
      vertex 117.397 80 4
      vertex 117.397 80 5
    endloop
  endfacet
  facet normal 0.406738 0.913545 0
    outer loop
      vertex 76.5899 60.6151 5
      vertex 75.7255 61 4
      vertex 75.7255 61 5
    endloop
  endfacet
  facet normal 0.406738 0.913545 -0
    outer loop
      vertex 76.5899 60.6151 0
      vertex 75.7255 61 4
      vertex 76.5899 60.6151 5
    endloop
  endfacet
  facet normal 0.406737 0.913545 -2.27265e-07
    outer loop
      vertex 70.2875 63.4212 0
      vertex 75.7255 61 4
      vertex 76.5899 60.6151 0
    endloop
  endfacet
  facet normal 0.406737 0.913545 0
    outer loop
      vertex 75.7255 61 4
      vertex 70.2875 63.4212 0
      vertex 70.2875 63.4212 4
    endloop
  endfacet
endsolid OpenSCAD_Model
