solid OpenSCAD_Model
  facet normal -1 0 0
    outer loop
      vertex 0 0 0
      vertex 0 186 8
      vertex 0 186 0
    endloop
  endfacet
  facet normal -1 -0 0
    outer loop
      vertex 0 186 8
      vertex 0 0 0
      vertex 0 0 8
    endloop
  endfacet
  facet normal 0 0 1
    outer loop
      vertex 173.575 186 8
      vertex 171.075 183.5 8
      vertex 173.575 0 8
    endloop
  endfacet
  facet normal 0 0 1
    outer loop
      vertex 173.575 186 8
      vertex 2.5 183.5 8
      vertex 171.075 183.5 8
    endloop
  endfacet
  facet normal 0 0 1
    outer loop
      vertex 2.5 183.5 8
      vertex 0 186 8
      vertex 2.5 2.5 8
    endloop
  endfacet
  facet normal -0 0 1
    outer loop
      vertex 0 186 8
      vertex 2.5 183.5 8
      vertex 173.575 186 8
    endloop
  endfacet
  facet normal -0 0 1
    outer loop
      vertex 171.075 2.5 8
      vertex 173.575 0 8
      vertex 171.075 183.5 8
    endloop
  endfacet
  facet normal -0 0 1
    outer loop
      vertex 2.5 2.5 8
      vertex 173.575 0 8
      vertex 171.075 2.5 8
    endloop
  endfacet
  facet normal 0 0 1
    outer loop
      vertex 2.5 2.5 8
      vertex 0 0 8
      vertex 173.575 0 8
    endloop
  endfacet
  facet normal 0 0 1
    outer loop
      vertex 0 0 8
      vertex 2.5 2.5 8
      vertex 0 186 8
    endloop
  endfacet
  facet normal 1 -0 0
    outer loop
      vertex 173.575 0 8
      vertex 173.575 186 0
      vertex 173.575 186 8
    endloop
  endfacet
  facet normal 1 0 0
    outer loop
      vertex 173.575 186 0
      vertex 173.575 0 8
      vertex 173.575 0 0
    endloop
  endfacet
  facet normal 0 0 -1
    outer loop
      vertex 0 0 0
      vertex 173.575 186 0
      vertex 173.575 0 0
    endloop
  endfacet
  facet normal -0 0 -1
    outer loop
      vertex 173.575 186 0
      vertex 0 0 0
      vertex 0 186 0
    endloop
  endfacet
  facet normal 0 -1 0
    outer loop
      vertex 0 0 0
      vertex 173.575 0 8
      vertex 0 0 8
    endloop
  endfacet
  facet normal 0 -1 -0
    outer loop
      vertex 173.575 0 8
      vertex 0 0 0
      vertex 173.575 0 0
    endloop
  endfacet
  facet normal 0 1 -0
    outer loop
      vertex 173.575 186 0
      vertex 0 186 8
      vertex 173.575 186 8
    endloop
  endfacet
  facet normal 0 1 0
    outer loop
      vertex 0 186 8
      vertex 173.575 186 0
      vertex 0 186 0
    endloop
  endfacet
  facet normal 1 0 0
    outer loop
      vertex 2.5 183.5 8
      vertex 2.5 161 5
      vertex 2.5 183.5 4
    endloop
  endfacet
  facet normal 1 0 0
    outer loop
      vertex 2.5 183.5 8
      vertex 2.5 160 5
      vertex 2.5 161 5
    endloop
  endfacet
  facet normal 1 0 0
    outer loop
      vertex 2.5 160 5
      vertex 2.5 141 5
      vertex 2.5 160 4
    endloop
  endfacet
  facet normal 1 0 0
    outer loop
      vertex 2.5 183.5 8
      vertex 2.5 141 5
      vertex 2.5 160 5
    endloop
  endfacet
  facet normal 1 0 0
    outer loop
      vertex 2.5 183.5 8
      vertex 2.5 140 5
      vertex 2.5 141 5
    endloop
  endfacet
  facet normal 1 0 0
    outer loop
      vertex 2.5 140 5
      vertex 2.5 121 5
      vertex 2.5 140 4
    endloop
  endfacet
  facet normal 1 0 0
    outer loop
      vertex 2.5 183.5 8
      vertex 2.5 121 5
      vertex 2.5 140 5
    endloop
  endfacet
  facet normal 1 0 0
    outer loop
      vertex 2.5 183.5 8
      vertex 2.5 120 5
      vertex 2.5 121 5
    endloop
  endfacet
  facet normal 1 0 0
    outer loop
      vertex 2.5 120 5
      vertex 2.5 101 5
      vertex 2.5 120 4
    endloop
  endfacet
  facet normal 1 0 0
    outer loop
      vertex 2.5 183.5 8
      vertex 2.5 101 5
      vertex 2.5 120 5
    endloop
  endfacet
  facet normal 1 0 0
    outer loop
      vertex 2.5 183.5 8
      vertex 2.5 100 5
      vertex 2.5 101 5
    endloop
  endfacet
  facet normal 1 0 0
    outer loop
      vertex 2.5 100 5
      vertex 2.5 81 5
      vertex 2.5 100 4
    endloop
  endfacet
  facet normal 1 0 0
    outer loop
      vertex 2.5 183.5 8
      vertex 2.5 81 5
      vertex 2.5 100 5
    endloop
  endfacet
  facet normal 1 0 0
    outer loop
      vertex 2.5 183.5 8
      vertex 2.5 80 5
      vertex 2.5 81 5
    endloop
  endfacet
  facet normal 1 0 0
    outer loop
      vertex 2.5 80 5
      vertex 2.5 61 5
      vertex 2.5 80 4
    endloop
  endfacet
  facet normal 1 -0 0
    outer loop
      vertex 2.5 2.5 8
      vertex 2.5 80 5
      vertex 2.5 183.5 8
    endloop
  endfacet
  facet normal 1 0 0
    outer loop
      vertex 2.5 80 5
      vertex 2.5 2.5 8
      vertex 2.5 61 5
    endloop
  endfacet
  facet normal 1 0 0
    outer loop
      vertex 2.5 60 5
      vertex 2.5 41 5
      vertex 2.5 60 4
    endloop
  endfacet
  facet normal 1 0 0
    outer loop
      vertex 2.5 61 5
      vertex 2.5 2.5 8
      vertex 2.5 60 5
    endloop
  endfacet
  facet normal 1 0 0
    outer loop
      vertex 2.5 60 5
      vertex 2.5 2.5 8
      vertex 2.5 41 5
    endloop
  endfacet
  facet normal 1 0 0
    outer loop
      vertex 2.5 40 5
      vertex 2.5 21 5
      vertex 2.5 40 4
    endloop
  endfacet
  facet normal 1 0 0
    outer loop
      vertex 2.5 41 5
      vertex 2.5 2.5 8
      vertex 2.5 40 5
    endloop
  endfacet
  facet normal 1 0 0
    outer loop
      vertex 2.5 40 5
      vertex 2.5 2.5 8
      vertex 2.5 21 5
    endloop
  endfacet
  facet normal 1 0 0
    outer loop
      vertex 2.5 21 5
      vertex 2.5 2.5 8
      vertex 2.5 20 5
    endloop
  endfacet
  facet normal 1 0 0
    outer loop
      vertex 2.5 2.5 4
      vertex 2.5 20 5
      vertex 2.5 2.5 8
    endloop
  endfacet
  facet normal 1 0 0
    outer loop
      vertex 2.5 20 5
      vertex 2.5 2.5 4
      vertex 2.5 20 4
    endloop
  endfacet
  facet normal 1 0 0
    outer loop
      vertex 2.5 183.5 4
      vertex 2.5 161 5
      vertex 2.5 161 4
    endloop
  endfacet
  facet normal 1 0 0
    outer loop
      vertex 2.5 160 4
      vertex 2.5 141 5
      vertex 2.5 141 4
    endloop
  endfacet
  facet normal 1 0 0
    outer loop
      vertex 2.5 140 4
      vertex 2.5 121 5
      vertex 2.5 121 4
    endloop
  endfacet
  facet normal 1 0 0
    outer loop
      vertex 2.5 120 4
      vertex 2.5 101 5
      vertex 2.5 101 4
    endloop
  endfacet
  facet normal 1 0 0
    outer loop
      vertex 2.5 100 4
      vertex 2.5 81 5
      vertex 2.5 81 4
    endloop
  endfacet
  facet normal 1 0 0
    outer loop
      vertex 2.5 80 4
      vertex 2.5 61 5
      vertex 2.5 61 4
    endloop
  endfacet
  facet normal 1 0 0
    outer loop
      vertex 2.5 60 4
      vertex 2.5 41 5
      vertex 2.5 41 4
    endloop
  endfacet
  facet normal 1 0 0
    outer loop
      vertex 2.5 40 4
      vertex 2.5 21 5
      vertex 2.5 21 4
    endloop
  endfacet
  facet normal -1 0 0
    outer loop
      vertex 171.075 20 4
      vertex 171.075 2.5 4
      vertex 171.075 20 5
    endloop
  endfacet
  facet normal -1 0 0
    outer loop
      vertex 171.075 40 4
      vertex 171.075 21 4
      vertex 171.075 40 5
    endloop
  endfacet
  facet normal -1 0 0
    outer loop
      vertex 171.075 60 4
      vertex 171.075 41 4
      vertex 171.075 60 5
    endloop
  endfacet
  facet normal -1 0 0
    outer loop
      vertex 171.075 80 4
      vertex 171.075 61 4
      vertex 171.075 80 5
    endloop
  endfacet
  facet normal -1 0 0
    outer loop
      vertex 171.075 100 4
      vertex 171.075 81 4
      vertex 171.075 100 5
    endloop
  endfacet
  facet normal -1 0 0
    outer loop
      vertex 171.075 120 4
      vertex 171.075 101 4
      vertex 171.075 120 5
    endloop
  endfacet
  facet normal -1 0 0
    outer loop
      vertex 171.075 140 4
      vertex 171.075 121 4
      vertex 171.075 140 5
    endloop
  endfacet
  facet normal -1 0 0
    outer loop
      vertex 171.075 160 4
      vertex 171.075 141 4
      vertex 171.075 160 5
    endloop
  endfacet
  facet normal -1 0 0
    outer loop
      vertex 171.075 161 5
      vertex 171.075 183.5 4
      vertex 171.075 161 4
    endloop
  endfacet
  facet normal -1 0 0
    outer loop
      vertex 171.075 183.5 4
      vertex 171.075 161 5
      vertex 171.075 183.5 8
    endloop
  endfacet
  facet normal -1 0 0
    outer loop
      vertex 171.075 160 5
      vertex 171.075 183.5 8
      vertex 171.075 161 5
    endloop
  endfacet
  facet normal -1 0 0
    outer loop
      vertex 171.075 141 5
      vertex 171.075 160 5
      vertex 171.075 141 4
    endloop
  endfacet
  facet normal -1 0 0
    outer loop
      vertex 171.075 160 5
      vertex 171.075 141 5
      vertex 171.075 183.5 8
    endloop
  endfacet
  facet normal -1 0 0
    outer loop
      vertex 171.075 140 5
      vertex 171.075 183.5 8
      vertex 171.075 141 5
    endloop
  endfacet
  facet normal -1 0 0
    outer loop
      vertex 171.075 121 5
      vertex 171.075 140 5
      vertex 171.075 121 4
    endloop
  endfacet
  facet normal -1 0 0
    outer loop
      vertex 171.075 140 5
      vertex 171.075 121 5
      vertex 171.075 183.5 8
    endloop
  endfacet
  facet normal -1 0 0
    outer loop
      vertex 171.075 120 5
      vertex 171.075 183.5 8
      vertex 171.075 121 5
    endloop
  endfacet
  facet normal -1 0 0
    outer loop
      vertex 171.075 101 5
      vertex 171.075 120 5
      vertex 171.075 101 4
    endloop
  endfacet
  facet normal -1 0 0
    outer loop
      vertex 171.075 101 5
      vertex 171.075 183.5 8
      vertex 171.075 120 5
    endloop
  endfacet
  facet normal -1 0 0
    outer loop
      vertex 171.075 100 5
      vertex 171.075 183.5 8
      vertex 171.075 101 5
    endloop
  endfacet
  facet normal -1 0 0
    outer loop
      vertex 171.075 81 5
      vertex 171.075 100 5
      vertex 171.075 81 4
    endloop
  endfacet
  facet normal -1 0 0
    outer loop
      vertex 171.075 81 5
      vertex 171.075 183.5 8
      vertex 171.075 100 5
    endloop
  endfacet
  facet normal -1 0 0
    outer loop
      vertex 171.075 80 5
      vertex 171.075 183.5 8
      vertex 171.075 81 5
    endloop
  endfacet
  facet normal -1 0 0
    outer loop
      vertex 171.075 61 5
      vertex 171.075 80 5
      vertex 171.075 61 4
    endloop
  endfacet
  facet normal -1 0 0
    outer loop
      vertex 171.075 2.5 8
      vertex 171.075 80 5
      vertex 171.075 61 5
    endloop
  endfacet
  facet normal -1 0 0
    outer loop
      vertex 171.075 2.5 8
      vertex 171.075 61 5
      vertex 171.075 60 5
    endloop
  endfacet
  facet normal -1 0 0
    outer loop
      vertex 171.075 41 5
      vertex 171.075 60 5
      vertex 171.075 41 4
    endloop
  endfacet
  facet normal -1 0 0
    outer loop
      vertex 171.075 2.5 8
      vertex 171.075 60 5
      vertex 171.075 41 5
    endloop
  endfacet
  facet normal -1 0 0
    outer loop
      vertex 171.075 2.5 8
      vertex 171.075 41 5
      vertex 171.075 40 5
    endloop
  endfacet
  facet normal -1 0 0
    outer loop
      vertex 171.075 21 5
      vertex 171.075 40 5
      vertex 171.075 21 4
    endloop
  endfacet
  facet normal -1 0 0
    outer loop
      vertex 171.075 2.5 8
      vertex 171.075 40 5
      vertex 171.075 21 5
    endloop
  endfacet
  facet normal -1 0 0
    outer loop
      vertex 171.075 2.5 8
      vertex 171.075 21 5
      vertex 171.075 20 5
    endloop
  endfacet
  facet normal -1 0 0
    outer loop
      vertex 171.075 80 5
      vertex 171.075 2.5 8
      vertex 171.075 183.5 8
    endloop
  endfacet
  facet normal -1 0 0
    outer loop
      vertex 171.075 2.5 8
      vertex 171.075 20 5
      vertex 171.075 2.5 4
    endloop
  endfacet
  facet normal 0 -1 0
    outer loop
      vertex 2.5 183.5 4
      vertex 171.075 183.5 8
      vertex 2.5 183.5 8
    endloop
  endfacet
  facet normal 0 -1 -0
    outer loop
      vertex 171.075 183.5 8
      vertex 2.5 183.5 4
      vertex 171.075 183.5 4
    endloop
  endfacet
  facet normal 0 0 1
    outer loop
      vertex 119.742 100 4
      vertex 120.787 92 4
      vertex 120.045 99.069 4
    endloop
  endfacet
  facet normal 0 0 1
    outer loop
      vertex 118.767 81 4
      vertex 120.787 92 4
      vertex 119.742 100 4
    endloop
  endfacet
  facet normal 0 0 1
    outer loop
      vertex 120.787 92 4
      vertex 118.767 81 4
      vertex 120.045 84.931 4
    endloop
  endfacet
  facet normal 0 0 1
    outer loop
      vertex 119.742 100 4
      vertex 54.8077 81 4
      vertex 118.767 81 4
    endloop
  endfacet
  facet normal -0 0 1
    outer loop
      vertex 53.833 100 4
      vertex 54.8077 81 4
      vertex 119.742 100 4
    endloop
  endfacet
  facet normal 0 0 1
    outer loop
      vertex 52.7875 92 4
      vertex 53.833 100 4
      vertex 53.5305 99.069 4
    endloop
  endfacet
  facet normal 0 0 1
    outer loop
      vertex 53.833 100 4
      vertex 52.7875 92 4
      vertex 54.8077 81 4
    endloop
  endfacet
  facet normal 0 0 1
    outer loop
      vertex 54.8077 81 4
      vertex 52.7875 92 4
      vertex 53.5305 84.931 4
    endloop
  endfacet
  facet normal 0 0 1
    outer loop
      vertex 171.075 100 4
      vertex 120.787 92 4
      vertex 171.075 81 4
    endloop
  endfacet
  facet normal 0 0 1
    outer loop
      vertex 171.075 100 4
      vertex 120.045 99.069 4
      vertex 120.787 92 4
    endloop
  endfacet
  facet normal 0 -0 1
    outer loop
      vertex 120.045 99.069 4
      vertex 171.075 100 4
      vertex 119.742 100 4
    endloop
  endfacet
  facet normal -0 0 1
    outer loop
      vertex 120.045 84.931 4
      vertex 171.075 81 4
      vertex 120.787 92 4
    endloop
  endfacet
  facet normal 0 0 1
    outer loop
      vertex 171.075 81 4
      vertex 120.045 84.931 4
      vertex 118.767 81 4
    endloop
  endfacet
  facet normal 0 0 1
    outer loop
      vertex 114.294 111.985 4
      vertex 119.417 101 4
      vertex 117.848 105.829 4
    endloop
  endfacet
  facet normal 0 0 1
    outer loop
      vertex 105.776 120 4
      vertex 114.294 111.985 4
      vertex 109.538 117.267 4
    endloop
  endfacet
  facet normal 0 0 1
    outer loop
      vertex 114.294 111.985 4
      vertex 105.776 120 4
      vertex 119.417 101 4
    endloop
  endfacet
  facet normal -0 0 1
    outer loop
      vertex 67.7988 120 4
      vertex 119.417 101 4
      vertex 105.776 120 4
    endloop
  endfacet
  facet normal 0 0 1
    outer loop
      vertex 59.2809 111.985 4
      vertex 67.7988 120 4
      vertex 64.0371 117.267 4
    endloop
  endfacet
  facet normal 0 0 1
    outer loop
      vertex 67.7988 120 4
      vertex 59.2809 111.985 4
      vertex 54.1579 101 4
    endloop
  endfacet
  facet normal 0 0 1
    outer loop
      vertex 54.1579 101 4
      vertex 59.2809 111.985 4
      vertex 55.727 105.829 4
    endloop
  endfacet
  facet normal 0 0 1
    outer loop
      vertex 67.7988 120 4
      vertex 54.1579 101 4
      vertex 119.417 101 4
    endloop
  endfacet
  facet normal 0 0 1
    outer loop
      vertex 171.075 120 4
      vertex 119.417 101 4
      vertex 171.075 101 4
    endloop
  endfacet
  facet normal 0 0 1
    outer loop
      vertex 171.075 120 4
      vertex 117.848 105.829 4
      vertex 119.417 101 4
    endloop
  endfacet
  facet normal 0 0 1
    outer loop
      vertex 171.075 120 4
      vertex 114.294 111.985 4
      vertex 117.848 105.829 4
    endloop
  endfacet
  facet normal 0 0 1
    outer loop
      vertex 171.075 120 4
      vertex 109.538 117.267 4
      vertex 114.294 111.985 4
    endloop
  endfacet
  facet normal 0 -0 1
    outer loop
      vertex 109.538 117.267 4
      vertex 171.075 120 4
      vertex 105.776 120 4
    endloop
  endfacet
  facet normal 0 0 1
    outer loop
      vertex 53.5305 99.069 4
      vertex 2.5 100 4
      vertex 52.7875 92 4
    endloop
  endfacet
  facet normal -0 0 1
    outer loop
      vertex 2.5 100 4
      vertex 53.5305 99.069 4
      vertex 53.833 100 4
    endloop
  endfacet
  facet normal 0 0 1
    outer loop
      vertex 2.5 81 4
      vertex 52.7875 92 4
      vertex 2.5 100 4
    endloop
  endfacet
  facet normal 0 0 1
    outer loop
      vertex 52.7875 92 4
      vertex 2.5 81 4
      vertex 53.5305 84.931 4
    endloop
  endfacet
  facet normal 0 0 1
    outer loop
      vertex 53.5305 84.931 4
      vertex 2.5 81 4
      vertex 54.8077 81 4
    endloop
  endfacet
  facet normal -0 0 1
    outer loop
      vertex 98.0486 60 4
      vertex 171.075 41 4
      vertex 171.075 60 4
    endloop
  endfacet
  facet normal -0 0 1
    outer loop
      vertex 97.2941 59.6641 4
      vertex 171.075 41 4
      vertex 98.0486 60 4
    endloop
  endfacet
  facet normal -0 0 1
    outer loop
      vertex 90.3415 58.1863 4
      vertex 171.075 41 4
      vertex 97.2941 59.6641 4
    endloop
  endfacet
  facet normal -0 0 1
    outer loop
      vertex 83.2335 58.1863 4
      vertex 171.075 41 4
      vertex 90.3415 58.1863 4
    endloop
  endfacet
  facet normal 0 0 1
    outer loop
      vertex 2.5 41 4
      vertex 75.5264 60 4
      vertex 2.5 60 4
    endloop
  endfacet
  facet normal 0 0 1
    outer loop
      vertex 75.5264 60 4
      vertex 2.5 41 4
      vertex 76.2809 59.6641 4
    endloop
  endfacet
  facet normal 0 0 1
    outer loop
      vertex 76.2809 59.6641 4
      vertex 2.5 41 4
      vertex 83.2335 58.1863 4
    endloop
  endfacet
  facet normal 0 0 1
    outer loop
      vertex 83.2335 58.1863 4
      vertex 2.5 41 4
      vertex 171.075 41 4
    endloop
  endfacet
  facet normal 0 0 1
    outer loop
      vertex 98.0486 60 4
      vertex 90.3415 58.1863 4
      vertex 97.2941 59.6641 4
    endloop
  endfacet
  facet normal 0 0 1
    outer loop
      vertex 98.0486 60 4
      vertex 83.2335 58.1863 4
      vertex 90.3415 58.1863 4
    endloop
  endfacet
  facet normal -0 0 1
    outer loop
      vertex 75.5264 60 4
      vertex 83.2335 58.1863 4
      vertex 98.0486 60 4
    endloop
  endfacet
  facet normal 0 0 1
    outer loop
      vertex 83.2335 58.1863 4
      vertex 75.5264 60 4
      vertex 76.2809 59.6641 4
    endloop
  endfacet
  facet normal 0 0 1
    outer loop
      vertex 97.2941 124.336 4
      vertex 104.4 121 4
      vertex 103.787 121.445 4
    endloop
  endfacet
  facet normal 0 0 1
    outer loop
      vertex 90.3415 125.814 4
      vertex 104.4 121 4
      vertex 97.2941 124.336 4
    endloop
  endfacet
  facet normal -0 0 1
    outer loop
      vertex 83.2335 125.814 4
      vertex 104.4 121 4
      vertex 90.3415 125.814 4
    endloop
  endfacet
  facet normal -0 0 1
    outer loop
      vertex 76.2809 124.336 4
      vertex 104.4 121 4
      vertex 83.2335 125.814 4
    endloop
  endfacet
  facet normal 0 0 1
    outer loop
      vertex 69.1752 121 4
      vertex 76.2809 124.336 4
      vertex 69.7875 121.445 4
    endloop
  endfacet
  facet normal 0 0 1
    outer loop
      vertex 76.2809 124.336 4
      vertex 69.1752 121 4
      vertex 104.4 121 4
    endloop
  endfacet
  facet normal 0 0 1
    outer loop
      vertex 171.075 140 4
      vertex 104.4 121 4
      vertex 171.075 121 4
    endloop
  endfacet
  facet normal 0 0 1
    outer loop
      vertex 171.075 140 4
      vertex 103.787 121.445 4
      vertex 104.4 121 4
    endloop
  endfacet
  facet normal 0 0 1
    outer loop
      vertex 171.075 140 4
      vertex 97.2941 124.336 4
      vertex 103.787 121.445 4
    endloop
  endfacet
  facet normal 0 0 1
    outer loop
      vertex 171.075 140 4
      vertex 90.3415 125.814 4
      vertex 97.2941 124.336 4
    endloop
  endfacet
  facet normal 0 0 1
    outer loop
      vertex 171.075 140 4
      vertex 83.2335 125.814 4
      vertex 90.3415 125.814 4
    endloop
  endfacet
  facet normal -0 0 1
    outer loop
      vertex 2.5 140 4
      vertex 83.2335 125.814 4
      vertex 171.075 140 4
    endloop
  endfacet
  facet normal 0 0 1
    outer loop
      vertex 2.5 140 4
      vertex 76.2809 124.336 4
      vertex 83.2335 125.814 4
    endloop
  endfacet
  facet normal 0 0 1
    outer loop
      vertex 2.5 140 4
      vertex 69.7875 121.445 4
      vertex 76.2809 124.336 4
    endloop
  endfacet
  facet normal 0 0 1
    outer loop
      vertex 2.5 140 4
      vertex 69.1752 121 4
      vertex 69.7875 121.445 4
    endloop
  endfacet
  facet normal 0 0 1
    outer loop
      vertex 69.1752 121 4
      vertex 2.5 140 4
      vertex 2.5 121 4
    endloop
  endfacet
  facet normal -0 0 1
    outer loop
      vertex 2.5 120 4
      vertex 64.0371 117.267 4
      vertex 67.7988 120 4
    endloop
  endfacet
  facet normal 0 0 1
    outer loop
      vertex 2.5 120 4
      vertex 59.2809 111.985 4
      vertex 64.0371 117.267 4
    endloop
  endfacet
  facet normal 0 0 1
    outer loop
      vertex 2.5 120 4
      vertex 55.727 105.829 4
      vertex 59.2809 111.985 4
    endloop
  endfacet
  facet normal 0 0 1
    outer loop
      vertex 2.5 120 4
      vertex 54.1579 101 4
      vertex 55.727 105.829 4
    endloop
  endfacet
  facet normal 0 0 1
    outer loop
      vertex 54.1579 101 4
      vertex 2.5 120 4
      vertex 2.5 101 4
    endloop
  endfacet
  facet normal -0 0 1
    outer loop
      vertex 118.442 80 4
      vertex 171.075 61 4
      vertex 171.075 80 4
    endloop
  endfacet
  facet normal -0 0 1
    outer loop
      vertex 117.848 78.171 4
      vertex 171.075 61 4
      vertex 118.442 80 4
    endloop
  endfacet
  facet normal -0 0 1
    outer loop
      vertex 114.294 72.0153 4
      vertex 171.075 61 4
      vertex 117.848 78.171 4
    endloop
  endfacet
  facet normal -0 0 1
    outer loop
      vertex 109.538 66.7331 4
      vertex 171.075 61 4
      vertex 114.294 72.0153 4
    endloop
  endfacet
  facet normal -0 0 1
    outer loop
      vertex 103.787 62.5551 4
      vertex 171.075 61 4
      vertex 109.538 66.7331 4
    endloop
  endfacet
  facet normal 0 0 1
    outer loop
      vertex 171.075 61 4
      vertex 103.787 62.5551 4
      vertex 100.295 61 4
    endloop
  endfacet
  facet normal 0 0 1
    outer loop
      vertex 118.442 80 4
      vertex 114.294 72.0153 4
      vertex 117.848 78.171 4
    endloop
  endfacet
  facet normal 0 0 1
    outer loop
      vertex 118.442 80 4
      vertex 109.538 66.7331 4
      vertex 114.294 72.0153 4
    endloop
  endfacet
  facet normal 0 0 1
    outer loop
      vertex 100.295 61 4
      vertex 109.538 66.7331 4
      vertex 118.442 80 4
    endloop
  endfacet
  facet normal 0 0 1
    outer loop
      vertex 109.538 66.7331 4
      vertex 100.295 61 4
      vertex 103.787 62.5551 4
    endloop
  endfacet
  facet normal 0 0 1
    outer loop
      vertex 118.442 80 4
      vertex 73.2804 61 4
      vertex 100.295 61 4
    endloop
  endfacet
  facet normal -0 0 1
    outer loop
      vertex 55.1327 80 4
      vertex 73.2804 61 4
      vertex 118.442 80 4
    endloop
  endfacet
  facet normal 0 0 1
    outer loop
      vertex 73.2804 61 4
      vertex 64.0371 66.7331 4
      vertex 69.7875 62.5551 4
    endloop
  endfacet
  facet normal 0 0 1
    outer loop
      vertex 73.2804 61 4
      vertex 55.1327 80 4
      vertex 64.0371 66.7331 4
    endloop
  endfacet
  facet normal 0 0 1
    outer loop
      vertex 64.0371 66.7331 4
      vertex 55.1327 80 4
      vertex 59.2809 72.0153 4
    endloop
  endfacet
  facet normal 0 0 1
    outer loop
      vertex 59.2809 72.0153 4
      vertex 55.1327 80 4
      vertex 55.727 78.171 4
    endloop
  endfacet
  facet normal -0 0 1
    outer loop
      vertex 2.5 80 4
      vertex 55.727 78.171 4
      vertex 55.1327 80 4
    endloop
  endfacet
  facet normal 0 0 1
    outer loop
      vertex 2.5 61 4
      vertex 55.727 78.171 4
      vertex 2.5 80 4
    endloop
  endfacet
  facet normal 0 0 1
    outer loop
      vertex 55.727 78.171 4
      vertex 2.5 61 4
      vertex 59.2809 72.0153 4
    endloop
  endfacet
  facet normal 0 0 1
    outer loop
      vertex 59.2809 72.0153 4
      vertex 2.5 61 4
      vertex 64.0371 66.7331 4
    endloop
  endfacet
  facet normal 0 0 1
    outer loop
      vertex 64.0371 66.7331 4
      vertex 2.5 61 4
      vertex 69.7875 62.5551 4
    endloop
  endfacet
  facet normal 0 0 1
    outer loop
      vertex 69.7875 62.5551 4
      vertex 2.5 61 4
      vertex 73.2804 61 4
    endloop
  endfacet
  facet normal -0 0 1
    outer loop
      vertex 2.5 183.5 4
      vertex 171.075 161 4
      vertex 171.075 183.5 4
    endloop
  endfacet
  facet normal 0 0 1
    outer loop
      vertex 171.075 161 4
      vertex 2.5 183.5 4
      vertex 2.5 161 4
    endloop
  endfacet
  facet normal -0 0 1
    outer loop
      vertex 2.5 20 4
      vertex 171.075 2.5 4
      vertex 171.075 20 4
    endloop
  endfacet
  facet normal 0 0 1
    outer loop
      vertex 171.075 2.5 4
      vertex 2.5 20 4
      vertex 2.5 2.5 4
    endloop
  endfacet
  facet normal -0 0 1
    outer loop
      vertex 2.5 160 4
      vertex 171.075 141 4
      vertex 171.075 160 4
    endloop
  endfacet
  facet normal 0 0 1
    outer loop
      vertex 171.075 141 4
      vertex 2.5 160 4
      vertex 2.5 141 4
    endloop
  endfacet
  facet normal -0 0 1
    outer loop
      vertex 2.5 40 4
      vertex 171.075 21 4
      vertex 171.075 40 4
    endloop
  endfacet
  facet normal 0 0 1
    outer loop
      vertex 171.075 21 4
      vertex 2.5 40 4
      vertex 2.5 21 4
    endloop
  endfacet
  facet normal 0 1 -0
    outer loop
      vertex 171.075 2.5 4
      vertex 2.5 2.5 8
      vertex 171.075 2.5 8
    endloop
  endfacet
  facet normal 0 1 0
    outer loop
      vertex 2.5 2.5 8
      vertex 171.075 2.5 4
      vertex 2.5 2.5 4
    endloop
  endfacet
  facet normal -0 0 1
    outer loop
      vertex 2.5 21 5
      vertex 171.075 20 5
      vertex 171.075 21 5
    endloop
  endfacet
  facet normal 0 0 1
    outer loop
      vertex 171.075 20 5
      vertex 2.5 21 5
      vertex 2.5 20 5
    endloop
  endfacet
  facet normal 0 -1 0
    outer loop
      vertex 2.5 20 4
      vertex 171.075 20 5
      vertex 2.5 20 5
    endloop
  endfacet
  facet normal 0 -1 -0
    outer loop
      vertex 171.075 20 5
      vertex 2.5 20 4
      vertex 171.075 20 4
    endloop
  endfacet
  facet normal 0 1 -0
    outer loop
      vertex 171.075 21 4
      vertex 2.5 21 5
      vertex 171.075 21 5
    endloop
  endfacet
  facet normal 0 1 0
    outer loop
      vertex 2.5 21 5
      vertex 171.075 21 4
      vertex 2.5 21 4
    endloop
  endfacet
  facet normal -0 0 1
    outer loop
      vertex 2.5 41 5
      vertex 171.075 40 5
      vertex 171.075 41 5
    endloop
  endfacet
  facet normal 0 0 1
    outer loop
      vertex 171.075 40 5
      vertex 2.5 41 5
      vertex 2.5 40 5
    endloop
  endfacet
  facet normal 0 1 -0
    outer loop
      vertex 171.075 41 4
      vertex 2.5 41 5
      vertex 171.075 41 5
    endloop
  endfacet
  facet normal 0 1 0
    outer loop
      vertex 2.5 41 5
      vertex 171.075 41 4
      vertex 2.5 41 4
    endloop
  endfacet
  facet normal 0 -1 0
    outer loop
      vertex 2.5 40 4
      vertex 171.075 40 5
      vertex 2.5 40 5
    endloop
  endfacet
  facet normal 0 -1 -0
    outer loop
      vertex 171.075 40 5
      vertex 2.5 40 4
      vertex 171.075 40 4
    endloop
  endfacet
  facet normal -0 0 1
    outer loop
      vertex 2.5 61 5
      vertex 171.075 60 5
      vertex 171.075 61 5
    endloop
  endfacet
  facet normal 0 0 1
    outer loop
      vertex 171.075 60 5
      vertex 2.5 61 5
      vertex 2.5 60 5
    endloop
  endfacet
  facet normal 0 1 0
    outer loop
      vertex 100.295 61 4
      vertex 171.075 61 5
      vertex 171.075 61 4
    endloop
  endfacet
  facet normal 0 1 0
    outer loop
      vertex 171.075 61 5
      vertex 100.295 61 4
      vertex 2.5 61 5
    endloop
  endfacet
  facet normal 0 1 -0
    outer loop
      vertex 73.2804 61 4
      vertex 2.5 61 5
      vertex 100.295 61 4
    endloop
  endfacet
  facet normal 0 1 0
    outer loop
      vertex 2.5 61 5
      vertex 73.2804 61 4
      vertex 2.5 61 4
    endloop
  endfacet
  facet normal 0 -1 0
    outer loop
      vertex 75.5264 60 4
      vertex 2.5 60 5
      vertex 2.5 60 4
    endloop
  endfacet
  facet normal 0 -1 0
    outer loop
      vertex 2.5 60 5
      vertex 75.5264 60 4
      vertex 171.075 60 5
    endloop
  endfacet
  facet normal 0 -1 0
    outer loop
      vertex 98.0486 60 4
      vertex 171.075 60 5
      vertex 75.5264 60 4
    endloop
  endfacet
  facet normal 0 -1 -0
    outer loop
      vertex 171.075 60 5
      vertex 98.0486 60 4
      vertex 171.075 60 4
    endloop
  endfacet
  facet normal -0 0 1
    outer loop
      vertex 2.5 81 5
      vertex 171.075 80 5
      vertex 171.075 81 5
    endloop
  endfacet
  facet normal 0 0 1
    outer loop
      vertex 171.075 80 5
      vertex 2.5 81 5
      vertex 2.5 80 5
    endloop
  endfacet
  facet normal 0 1 0
    outer loop
      vertex 118.767 81 4
      vertex 171.075 81 5
      vertex 171.075 81 4
    endloop
  endfacet
  facet normal 0 1 0
    outer loop
      vertex 171.075 81 5
      vertex 118.767 81 4
      vertex 2.5 81 5
    endloop
  endfacet
  facet normal 0 1 -0
    outer loop
      vertex 54.8077 81 4
      vertex 2.5 81 5
      vertex 118.767 81 4
    endloop
  endfacet
  facet normal 0 1 0
    outer loop
      vertex 2.5 81 5
      vertex 54.8077 81 4
      vertex 2.5 81 4
    endloop
  endfacet
  facet normal 0 -1 0
    outer loop
      vertex 55.1327 80 4
      vertex 2.5 80 5
      vertex 2.5 80 4
    endloop
  endfacet
  facet normal 0 -1 0
    outer loop
      vertex 2.5 80 5
      vertex 55.1327 80 4
      vertex 171.075 80 5
    endloop
  endfacet
  facet normal 0 -1 0
    outer loop
      vertex 118.442 80 4
      vertex 171.075 80 5
      vertex 55.1327 80 4
    endloop
  endfacet
  facet normal 0 -1 -0
    outer loop
      vertex 171.075 80 5
      vertex 118.442 80 4
      vertex 171.075 80 4
    endloop
  endfacet
  facet normal -0 0 1
    outer loop
      vertex 2.5 101 5
      vertex 171.075 100 5
      vertex 171.075 101 5
    endloop
  endfacet
  facet normal 0 0 1
    outer loop
      vertex 171.075 100 5
      vertex 2.5 101 5
      vertex 2.5 100 5
    endloop
  endfacet
  facet normal 0 -1 0
    outer loop
      vertex 53.833 100 4
      vertex 2.5 100 5
      vertex 2.5 100 4
    endloop
  endfacet
  facet normal 0 -1 0
    outer loop
      vertex 2.5 100 5
      vertex 53.833 100 4
      vertex 171.075 100 5
    endloop
  endfacet
  facet normal 0 -1 0
    outer loop
      vertex 119.742 100 4
      vertex 171.075 100 5
      vertex 53.833 100 4
    endloop
  endfacet
  facet normal 0 -1 -0
    outer loop
      vertex 171.075 100 5
      vertex 119.742 100 4
      vertex 171.075 100 4
    endloop
  endfacet
  facet normal 0 1 0
    outer loop
      vertex 119.417 101 4
      vertex 171.075 101 5
      vertex 171.075 101 4
    endloop
  endfacet
  facet normal 0 1 0
    outer loop
      vertex 171.075 101 5
      vertex 119.417 101 4
      vertex 2.5 101 5
    endloop
  endfacet
  facet normal 0 1 -0
    outer loop
      vertex 54.1579 101 4
      vertex 2.5 101 5
      vertex 119.417 101 4
    endloop
  endfacet
  facet normal 0 1 0
    outer loop
      vertex 2.5 101 5
      vertex 54.1579 101 4
      vertex 2.5 101 4
    endloop
  endfacet
  facet normal -0 0 1
    outer loop
      vertex 2.5 121 5
      vertex 171.075 120 5
      vertex 171.075 121 5
    endloop
  endfacet
  facet normal 0 0 1
    outer loop
      vertex 171.075 120 5
      vertex 2.5 121 5
      vertex 2.5 120 5
    endloop
  endfacet
  facet normal 0 1 0
    outer loop
      vertex 104.4 121 4
      vertex 171.075 121 5
      vertex 171.075 121 4
    endloop
  endfacet
  facet normal 0 1 0
    outer loop
      vertex 171.075 121 5
      vertex 104.4 121 4
      vertex 2.5 121 5
    endloop
  endfacet
  facet normal 0 1 -0
    outer loop
      vertex 69.1752 121 4
      vertex 2.5 121 5
      vertex 104.4 121 4
    endloop
  endfacet
  facet normal 0 1 0
    outer loop
      vertex 2.5 121 5
      vertex 69.1752 121 4
      vertex 2.5 121 4
    endloop
  endfacet
  facet normal 0 -1 0
    outer loop
      vertex 67.7988 120 4
      vertex 2.5 120 5
      vertex 2.5 120 4
    endloop
  endfacet
  facet normal 0 -1 0
    outer loop
      vertex 2.5 120 5
      vertex 67.7988 120 4
      vertex 171.075 120 5
    endloop
  endfacet
  facet normal 0 -1 0
    outer loop
      vertex 105.776 120 4
      vertex 171.075 120 5
      vertex 67.7988 120 4
    endloop
  endfacet
  facet normal 0 -1 -0
    outer loop
      vertex 171.075 120 5
      vertex 105.776 120 4
      vertex 171.075 120 4
    endloop
  endfacet
  facet normal -0 0 1
    outer loop
      vertex 2.5 141 5
      vertex 171.075 140 5
      vertex 171.075 141 5
    endloop
  endfacet
  facet normal 0 0 1
    outer loop
      vertex 171.075 140 5
      vertex 2.5 141 5
      vertex 2.5 140 5
    endloop
  endfacet
  facet normal 0 -1 0
    outer loop
      vertex 2.5 140 4
      vertex 171.075 140 5
      vertex 2.5 140 5
    endloop
  endfacet
  facet normal 0 -1 -0
    outer loop
      vertex 171.075 140 5
      vertex 2.5 140 4
      vertex 171.075 140 4
    endloop
  endfacet
  facet normal 0 1 -0
    outer loop
      vertex 171.075 141 4
      vertex 2.5 141 5
      vertex 171.075 141 5
    endloop
  endfacet
  facet normal 0 1 0
    outer loop
      vertex 2.5 141 5
      vertex 171.075 141 4
      vertex 2.5 141 4
    endloop
  endfacet
  facet normal -0 0 1
    outer loop
      vertex 2.5 161 5
      vertex 171.075 160 5
      vertex 171.075 161 5
    endloop
  endfacet
  facet normal 0 0 1
    outer loop
      vertex 171.075 160 5
      vertex 2.5 161 5
      vertex 2.5 160 5
    endloop
  endfacet
  facet normal 0 -1 0
    outer loop
      vertex 2.5 160 4
      vertex 171.075 160 5
      vertex 2.5 160 5
    endloop
  endfacet
  facet normal 0 -1 -0
    outer loop
      vertex 171.075 160 5
      vertex 2.5 160 4
      vertex 171.075 160 4
    endloop
  endfacet
  facet normal 0 1 -0
    outer loop
      vertex 171.075 161 4
      vertex 2.5 161 5
      vertex 171.075 161 5
    endloop
  endfacet
  facet normal 0 1 0
    outer loop
      vertex 2.5 161 5
      vertex 171.075 161 4
      vertex 2.5 161 4
    endloop
  endfacet
endsolid OpenSCAD_Model
